<svg xmlns="http://www.w3.org/2000/svg" xmlns:xlink="http://www.w3.org/1999/xlink" width="1123" zoomAndPan="magnify" viewBox="0 0 842.25 595.499986" height="794" preserveAspectRatio="xMidYMid meet" version="1.2"><defs><clipPath id="9121313e51"><path d="M 304 0.015625 L 467 0.015625 L 467 116 L 304 116 Z M 304 0.015625 "/></clipPath></defs><g id="7b52ba1431"><g clip-rule="nonzero" clip-path="url(#9121313e51)"><path style=" stroke:none;fill-rule:nonzero;fill:#6b3406;fill-opacity:1;" d="M 424.832031 6.242188 C 398.746094 19.328125 372.585938 32.449219 348.242188 48.558594 C 338.882812 54.746094 329.707031 61.453125 322.398438 69.96875 C 311.636719 82.503906 305.332031 98.792969 304.839844 115.3125 C 306.289062 103.90625 307.734375 92.507812 309.183594 81.101562 C 309.652344 77.40625 310.160156 73.59375 312.0625 70.402344 C 314.402344 66.484375 318.503906 64.019531 322.4375 61.722656 C 354.570312 42.945312 386.695312 24.164062 418.824219 5.390625 C 423.164062 2.847656 427.75 0.246094 432.773438 0.117188 C 435.820312 0.0429688 438.800781 0.890625 441.726562 1.738281 C 449.917969 4.097656 458.109375 6.453125 466.300781 8.816406 C 411.457031 38.609375 359.316406 73.371094 310.714844 112.53125 C 309.089844 113.84375 305.273438 113.3125 306.582031 111.667969 C 314.8125 103.96875 323.058594 96.261719 332.007812 89.410156 C 371.25 59.382812 423.371094 46.292969 455.511719 8.75 C 449.910156 9.765625 444 9.023438 438.835938 6.628906 C 436.585938 5.597656 434.390625 4.234375 431.917969 4.105469 C 429.425781 3.96875 427.066406 5.121094 424.832031 6.242188 "/></g><path style=" stroke:none;fill-rule:nonzero;fill:#6b3406;fill-opacity:1;" d="M 312.933594 74.183594 C 326.195312 76.78125 339.703125 78.109375 353.222656 78.164062 C 342.148438 76.152344 331.070312 74.136719 319.996094 72.121094 C 316.8125 71.539062 312.152344 72.113281 312.214844 75.34375 L 312.933594 74.183594 "/><path style=" stroke:none;fill-rule:nonzero;fill:#6b3406;fill-opacity:1;" d="M 368.355469 36.972656 C 382.992188 37.777344 397.558594 39.980469 411.78125 43.535156 C 400.1875 39.921875 388.597656 36.3125 377.011719 32.707031 C 376.054688 32.410156 375.054688 32.105469 374.0625 32.265625 C 370.863281 32.765625 369.433594 37.585938 366.195312 37.480469 C 366.097656 36.34375 366 35.199219 365.902344 34.054688 L 368.355469 36.972656 "/><path style=" stroke:none;fill-rule:nonzero;fill:#6b3406;fill-opacity:1;" d="M 305.453125 117.753906 C 344.1875 115.820312 383.058594 116.753906 421.648438 120.550781 C 430.441406 82.238281 456.054688 49.25 463.71875 10.691406 C 459.980469 13.09375 456.246094 15.488281 452.507812 17.890625 C 404.664062 48.679688 357.496094 80.535156 311.078125 113.425781 C 360.101562 82.542969 409.136719 51.660156 458.164062 20.777344 C 441.929688 51.828125 427.78125 83.96875 415.867188 116.925781 C 410.144531 111.878906 401.808594 110.992188 394.238281 111.925781 C 386.667969 112.863281 379.34375 115.351562 371.757812 116.132812 C 358.542969 117.496094 345.355469 113.628906 332.078125 113.351562 C 323.035156 113.160156 313.949219 114.667969 305.453125 117.753906 "/><path style=" stroke:none;fill-rule:nonzero;fill:#6b3406;fill-opacity:1;" d="M 367.953125 35.109375 C 361.71875 47.644531 357.65625 61.261719 356.003906 75.167969 C 362.429688 61.117188 367.878906 46.613281 372.296875 31.804688 C 370.628906 32.273438 368.960938 32.742188 367.28125 33.207031 L 367.953125 35.109375 "/><path style=" stroke:none;fill-rule:nonzero;fill:#6b3406;fill-opacity:1;" d="M 421.285156 4.519531 C 418.09375 16.691406 415.472656 29.007812 413.417969 41.421875 C 416.554688 38.351562 417.867188 33.933594 419.066406 29.71875 C 421.664062 20.585938 424.257812 11.449219 426.847656 2.316406 C 423.945312 3.195312 421.246094 4.769531 419.050781 6.863281 L 421.285156 4.519531 "/><path style=" stroke:none;fill-rule:nonzero;fill:#6b3406;fill-opacity:1;" d="M 411.636719 62.375 C 414.957031 79.085938 416.164062 96.214844 415.230469 113.230469 C 411.417969 108.273438 406 104.855469 400.703125 101.542969 C 388.136719 93.683594 375.570312 85.832031 363.011719 77.972656 C 361.832031 80.542969 359.421875 82.511719 356.671875 83.15625 C 363.027344 83.929688 368.734375 87.273438 374.230469 90.539062 C 388.453125 98.988281 402.664062 107.4375 416.882812 115.882812 C 416.328125 92.449219 415.289062 69.03125 413.78125 45.648438 C 409.433594 49.628906 410.492188 56.59375 411.636719 62.375 "/><path style=" stroke:none;fill-rule:nonzero;fill:#6b3406;fill-opacity:1;" d="M 409.457031 119.148438 C 413.328125 123.664062 420.566406 125.476562 425.476562 122.117188 C 430.386719 118.753906 430.652344 110.007812 425.371094 107.273438 C 423.210938 110.402344 428.007812 115.3125 425.5 118.175781 C 424.742188 119.042969 423.535156 119.34375 422.390625 119.558594 C 418.238281 120.351562 413.980469 120.585938 409.773438 120.269531 C 410.046875 121.34375 410.964844 122.222656 412.046875 122.453125 L 409.457031 119.148438 "/><path style=" stroke:none;fill-rule:nonzero;fill:#6b3406;fill-opacity:1;" d="M 409.96875 123.960938 C 408.644531 125.664062 409.691406 128.378906 411.578125 129.425781 C 413.472656 130.476562 415.804688 130.257812 417.898438 129.710938 C 426.523438 127.453125 433.457031 119.730469 434.769531 110.910156 C 432.441406 110.417969 430.113281 109.925781 427.78125 109.445312 C 431.644531 110.3125 433.289062 115.402344 431.789062 119.050781 C 430.28125 122.710938 426.660156 125.042969 423.027344 126.582031 C 420.738281 127.558594 418.15625 128.316406 415.785156 127.550781 C 413.425781 126.792969 411.628906 123.914062 412.828125 121.730469 C 410.878906 122.710938 409.683594 125 410 127.152344 C 411.0625 126.792969 412.136719 126.4375 413.207031 126.074219 L 409.96875 123.960938 "/><path style=" stroke:none;fill-rule:nonzero;fill:#6b3406;fill-opacity:1;" d="M 433.328125 116.578125 C 431.878906 114.609375 434.335938 112.152344 436.472656 111.023438 C 475.835938 90 522.519531 82.558594 566.234375 91.53125 C 609.941406 100.511719 650.242188 126.097656 675.941406 162.589844 C 680.414062 168.945312 684.453125 175.59375 688.234375 182.390625 C 690.675781 186.800781 693.039062 191.273438 695.246094 195.84375 C 683.832031 173.652344 664.839844 156.289062 646.300781 139.496094 C 634.5625 128.878906 622.734375 118.191406 609.097656 110.183594 C 582.90625 94.8125 551.328125 90.3125 521.066406 93.039062 C 490.804688 95.78125 461.566406 105.355469 433.328125 116.578125 "/><path style=" stroke:none;fill-rule:nonzero;fill:#6b3406;fill-opacity:1;" d="M 698.285156 202.339844 C 697.441406 200.445312 696.554688 198.554688 695.648438 196.675781 C 695.882812 197.117188 696.109375 197.5625 696.328125 198.003906 C 697.011719 199.441406 697.691406 200.890625 698.285156 202.339844 "/><path style=" stroke:none;fill-rule:nonzero;fill:#6b3406;fill-opacity:1;" d="M 478.261719 456.457031 C 478.011719 457.003906 477.777344 457.539062 477.550781 458.0625 C 476.328125 457.714844 475.125 457.359375 473.910156 456.988281 C 463.90625 454.046875 453.996094 450.683594 444.171875 447.292969 C 435.554688 444.292969 426.878906 441.238281 418.9375 436.738281 C 397.59375 424.6875 383.1875 403.488281 370.796875 382.332031 C 364.234375 371.121094 358.003906 359.648438 353.03125 347.652344 C 341.71875 320.414062 337.15625 290.453125 339.527344 261.074219 C 339.550781 260.957031 339.550781 260.84375 339.566406 260.722656 C 340.253906 252.355469 341.511719 244.035156 343.332031 235.84375 C 343.792969 233.75 344.292969 231.675781 344.839844 229.613281 C 344.855469 229.484375 344.886719 229.363281 344.929688 229.242188 C 355.132812 190.289062 378.414062 154.894531 410.105469 130.0625 C 412.335938 128.289062 417.222656 128.152344 416.40625 130.894531 C 402.375 137.304688 393.367188 151.015625 385.121094 164.058594 C 375.457031 179.3125 365.757812 194.707031 358.328125 211.113281 C 358.125 211.539062 357.929688 211.984375 357.753906 212.425781 C 356.238281 215.820312 354.835938 219.253906 353.546875 222.761719 C 352.730469 224.953125 351.972656 227.171875 351.28125 229.394531 C 350.613281 231.46875 349.992188 233.554688 349.417969 235.644531 C 347.210938 243.695312 345.652344 251.894531 344.710938 260.15625 C 344.679688 260.367188 344.664062 260.578125 344.644531 260.792969 C 339.195312 310.242188 355.5625 362.164062 385.523438 402.566406 C 391.683594 410.863281 398.421875 418.8125 406.566406 425.164062 C 417.457031 433.660156 430.402344 438.988281 443.234375 444.035156 C 453.554688 448.097656 463.960938 452.046875 474.546875 455.320312 C 475.777344 455.714844 477.019531 456.101562 478.261719 456.457031 "/><path style=" stroke:none;fill-rule:nonzero;fill:#6b3406;fill-opacity:1;" d="M 502.695312 461.996094 C 502.945312 462.027344 503.210938 462.066406 503.460938 462.101562 C 503.210938 462.753906 502.960938 463.390625 502.71875 464.027344 C 501.460938 463.816406 500.222656 463.566406 498.980469 463.316406 C 499.195312 462.71875 499.40625 462.101562 499.601562 461.480469 C 500.625 461.671875 501.671875 461.832031 502.695312 461.996094 "/><path style=" stroke:none;fill-rule:nonzero;fill:#6b3406;fill-opacity:1;" d="M 714.539062 304.027344 C 711.992188 318.472656 707.015625 332.394531 700.980469 345.757812 C 685.886719 379.0625 663.582031 409.46875 634.472656 431.605469 C 605.378906 453.765625 569.296875 467.339844 532.714844 467.035156 C 528.5 467 524.324219 466.792969 520.148438 466.421875 C 517.617188 466.203125 515.101562 465.921875 512.59375 465.589844 C 512.699219 465.285156 512.804688 464.984375 512.910156 464.6875 C 513.085938 464.1875 513.265625 463.710938 513.425781 463.210938 C 515.972656 463.429688 518.535156 463.566406 521.109375 463.625 C 557.59375 464.632812 594.304688 452.699219 624.363281 431.804688 C 659.511719 407.378906 685.847656 371.371094 701.816406 331.652344 C 705.582031 322.292969 708.804688 312.660156 710.628906 302.753906 C 714.003906 284.261719 712.394531 265.195312 709.636719 246.597656 C 707.402344 231.554688 704.378906 216.457031 698.375 202.519531 C 712.820312 234.53125 720.625 269.734375 714.539062 304.027344 "/><path style=" stroke:none;fill-rule:nonzero;fill:#6b3406;fill-opacity:1;" d="M 360.859375 257.109375 C 360.769531 257.769531 360.695312 258.441406 360.640625 259.109375 C 360.566406 259.746094 360.503906 260.367188 360.445312 261.003906 C 360.285156 262.792969 360.148438 264.566406 360.042969 266.347656 C 360.109375 264.566406 360.222656 262.792969 360.375 261.003906 C 360.445312 260.382812 360.519531 259.746094 360.566406 259.109375 C 360.664062 258.441406 360.746094 257.785156 360.859375 257.109375 "/><path style=" stroke:none;fill-rule:nonzero;fill:#6b3406;fill-opacity:1;" d="M 431.394531 140.027344 C 419.84375 155.617188 408.265625 171.210938 396.691406 186.800781 C 390.28125 195.457031 383.792969 204.285156 378.125 213.492188 C 377.246094 214.867188 376.40625 216.261719 375.59375 217.667969 C 373.085938 221.945312 370.765625 226.316406 368.75 230.796875 C 368.023438 232.386719 367.332031 233.980469 366.695312 235.59375 C 364.089844 242.082031 362.132812 248.816406 361.035156 255.804688 C 360.976562 256.101562 360.945312 256.382812 360.90625 256.683594 C 361.71875 249.574219 362.960938 242.527344 364.679688 235.578125 C 365.015625 234.144531 365.386719 232.707031 365.773438 231.289062 C 365.863281 230.976562 365.953125 230.667969 366.039062 230.355469 C 367.257812 225.960938 368.660156 221.609375 370.273438 217.34375 C 370.871094 215.714844 371.492188 214.085938 372.160156 212.5 C 384.164062 183.097656 404.710938 157.117188 431.394531 140.027344 "/><path style=" stroke:none;fill-rule:nonzero;fill:#6b3406;fill-opacity:1;" d="M 484.171875 439.519531 C 484.097656 439.800781 484.007812 440.085938 483.9375 440.367188 C 482.363281 439.996094 480.792969 439.625 479.230469 439.214844 C 448.523438 431.320312 419.875 416.707031 399.308594 393.007812 C 387.015625 378.835938 378.078125 361.972656 371.652344 344.324219 C 362.605469 319.542969 358.464844 292.863281 360.042969 266.558594 C 359.6875 277.496094 361.15625 288.507812 363.261719 299.285156 C 369.3125 330.273438 380.816406 360.585938 399.859375 385.769531 C 418.90625 410.949219 445.910156 430.757812 476.632812 437.996094 C 477.535156 438.207031 478.457031 438.425781 479.375 438.601562 C 480.96875 438.957031 482.558594 439.253906 484.171875 439.519531 "/><path style=" stroke:none;fill-rule:nonzero;fill:#6b3406;fill-opacity:1;" d="M 509.476562 441.785156 C 509.25 442.792969 509.015625 443.785156 508.773438 444.777344 C 507.296875 444.597656 505.832031 444.40625 504.363281 444.1875 C 504.558594 443.339844 504.734375 442.46875 504.894531 441.625 C 506.410156 441.695312 507.933594 441.746094 509.476562 441.785156 "/><path style=" stroke:none;fill-rule:nonzero;fill:#6b3406;fill-opacity:1;" d="M 682.785156 321.90625 C 672.488281 350.265625 655.480469 375.753906 636.617188 399.328125 C 628.015625 410.089844 618.851562 420.632812 607.539062 428.507812 C 584.40625 444.632812 554.78125 447.921875 526.484375 446.363281 C 525.035156 446.277344 523.582031 446.1875 522.132812 446.082031 C 521.195312 446.007812 520.269531 445.945312 519.335938 445.871094 C 519.777344 444.527344 520.179688 443.179688 520.589844 441.832031 C 522.992188 441.816406 525.402344 441.785156 527.816406 441.730469 C 528.515625 441.714844 529.226562 441.695312 529.933594 441.671875 C 548.160156 441.214844 566.902344 440.117188 583.453125 432.476562 C 599.574219 425.027344 612.335938 411.984375 624.628906 399.148438 C 647.960938 374.8125 671.8125 349.105469 681.921875 316.933594 C 693.425781 280.398438 685.386719 240.070312 668.894531 205.507812 C 661.285156 189.582031 651.8125 174.335938 639.253906 161.9375 C 629.855469 152.660156 618.828125 145.089844 607.167969 138.875 C 554.183594 110.71875 486.539062 112.402344 435.019531 143.140625 C 439.890625 132.683594 451.957031 127.953125 463.042969 124.753906 C 502.839844 113.230469 546.515625 108.96875 585.128906 123.996094 C 611.480469 134.257812 633.875 152.910156 652.546875 174.144531 C 667.742188 191.433594 680.960938 210.976562 687.605469 233.023438 C 696.3125 261.921875 693.085938 293.53125 682.785156 321.90625 "/><path style=" stroke:none;fill-rule:nonzero;fill:#6b3406;fill-opacity:1;" d="M 488.667969 411.75 C 488.628906 412.441406 488.597656 413.136719 488.539062 413.835938 C 486.597656 413.273438 484.644531 412.652344 482.734375 412 C 447.925781 400.15625 417.472656 375.015625 401.277344 341.898438 C 389.820312 318.472656 385.894531 291.855469 388.832031 265.976562 C 388.855469 265.855469 388.871094 265.726562 388.886719 265.605469 C 389.789062 257.769531 391.328125 249.976562 393.488281 242.390625 C 393.609375 241.980469 393.722656 241.550781 393.84375 241.148438 C 395.875 234.25 398.40625 227.5 401.4375 221.011719 C 401.617188 220.625 401.792969 220.230469 401.96875 219.84375 C 408.5625 205.984375 417.398438 193.257812 428.339844 182.429688 C 422.105469 194.289062 415.859375 206.121094 409.613281 217.980469 C 408.917969 219.292969 408.234375 220.601562 407.539062 221.914062 C 407.226562 222.527344 406.902344 223.132812 406.605469 223.753906 C 403.453125 229.804688 400.460938 235.925781 398.019531 242.285156 C 397.808594 242.808594 397.609375 243.355469 397.414062 243.890625 C 397.117188 244.6875 396.835938 245.484375 396.570312 246.300781 C 387.289062 273.820312 390.886719 304.792969 403.308594 331.046875 C 415.738281 357.296875 436.472656 379.0625 460.277344 395.699219 C 467.410156 400.6875 474.949219 405.261719 482.808594 409.082031 C 484.734375 410.015625 486.703125 410.902344 488.667969 411.75 "/><path style=" stroke:none;fill-rule:nonzero;fill:#6b3406;fill-opacity:1;" d="M 509.210938 418.261719 C 508.75 418.214844 508.304688 418.140625 507.863281 418.085938 C 507.886719 418.054688 507.886719 418.011719 507.863281 417.980469 C 508.304688 418.085938 508.773438 418.175781 509.210938 418.261719 "/><path style=" stroke:none;fill-rule:nonzero;fill:#6b3406;fill-opacity:1;" d="M 512.894531 418.722656 C 512.894531 418.792969 512.894531 418.867188 512.875 418.941406 C 511.652344 418.746094 510.433594 418.527344 509.210938 418.261719 C 510.433594 418.441406 511.652344 418.585938 512.894531 418.722656 "/><path style=" stroke:none;fill-rule:nonzero;fill:#6b3406;fill-opacity:1;" d="M 540.859375 418.777344 C 538.375 419.222656 535.882812 419.550781 533.367188 419.769531 C 531.207031 419.964844 529.046875 420.050781 526.871094 420.070312 L 525.921875 420.070312 C 525.953125 419.875 525.984375 419.679688 526.007812 419.480469 C 528.484375 419.519531 530.957031 419.480469 533.441406 419.359375 C 535.917969 419.238281 538.390625 419.0625 540.859375 418.777344 "/><path style=" stroke:none;fill-rule:nonzero;fill:#6b3406;fill-opacity:1;" d="M 663.976562 278.964844 C 663.582031 294.273438 662.863281 309.847656 657.691406 324.253906 C 649.199219 347.984375 629.796875 365.863281 611.078125 382.730469 C 599.890625 392.8125 588.515625 403.027344 574.972656 409.589844 C 565.1875 414.335938 554.539062 417.046875 543.757812 418.441406 C 542.800781 418.570312 541.847656 418.691406 540.890625 418.777344 C 557.382812 415.859375 573.085938 408.265625 586.78125 398.480469 C 604.316406 385.929688 619.003906 369.878906 633.359375 353.773438 C 638.929688 347.523438 644.542969 341.15625 648.554688 333.8125 C 653.335938 325.050781 655.714844 315.214844 657.335938 305.371094 C 664.839844 260.207031 655.160156 208.917969 619.980469 179.617188 C 609.433594 170.839844 597.148438 164.445312 584.992188 158.109375 C 568.691406 149.652344 551.613281 140.980469 533.246094 140.875 C 523.992188 140.800781 514.875 142.945312 505.902344 145.285156 C 478.753906 152.378906 451.273438 161.777344 430.191406 180.285156 C 460.777344 150.023438 505.9375 135.191406 548.515625 141.421875 C 591.09375 147.652344 630.105469 174.804688 650.742188 212.5625 C 655.714844 221.648438 659.671875 231.328125 661.816406 241.445312 C 664.421875 253.730469 664.292969 266.421875 663.976562 278.964844 "/><path style=" stroke:none;fill-rule:nonzero;fill:#6b3406;fill-opacity:1;" d="M 188.160156 501.792969 C 193.546875 510.75 199.574219 519.277344 206.28125 527.226562 C 202.285156 523.246094 198.566406 518.980469 195.351562 514.320312 C 192.628906 510.347656 190.273438 506.128906 188.160156 501.792969 "/><path style=" stroke:none;fill-rule:nonzero;fill:#6b3406;fill-opacity:1;" d="M 284.542969 225.898438 C 292.933594 222.953125 301.535156 220.019531 310.226562 218.035156 L 274.882812 229.539062 C 275.785156 229.097656 276.707031 228.695312 277.625 228.300781 C 279.9375 227.5 282.242188 226.703125 284.542969 225.898438 "/><path style=" stroke:none;fill-rule:nonzero;fill:#6b3406;fill-opacity:1;" d="M 180.648438 483.996094 C 182.992188 489.976562 185.386719 495.988281 188.160156 501.792969 C 182.148438 491.78125 176.921875 481.246094 172.480469 470.46875 C 163.96875 449.78125 158.132812 427.839844 156.785156 405.5 C 153.902344 357.3125 172.851562 308.660156 205.894531 273.480469 C 224.476562 253.691406 247.363281 238.140625 272.238281 227.421875 C 284.71875 222.050781 297.730469 217.875 311.007812 214.972656 C 314.449219 214.214844 318.117188 213.859375 321.847656 213.667969 C 306.703125 217.101562 291.835938 222.003906 277.625 228.300781 C 272.84375 229.984375 268.0625 231.644531 263.292969 233.304688 L 274.882812 229.539062 C 238.421875 246.171875 206.394531 271.941406 185.050781 305.6875 C 178.695312 315.722656 173.3125 326.378906 169 337.457031 C 161.617188 356.410156 157.367188 376.707031 157.882812 397.0625 C 158.640625 427.164062 169.636719 455.957031 180.648438 483.996094 "/><path style=" stroke:none;fill-rule:nonzero;fill:#6b3406;fill-opacity:1;" d="M 323.992188 213.5625 C 323.285156 213.578125 322.558594 213.609375 321.847656 213.667969 C 323.640625 213.242188 325.429688 212.855469 327.226562 212.5 L 323.992188 213.5625 "/><path style=" stroke:none;fill-rule:nonzero;fill:#6b3406;fill-opacity:1;" d="M 333.367188 211.304688 C 331.320312 211.683594 329.265625 212.070312 327.226562 212.5 L 329.402344 211.789062 C 330.734375 211.613281 332.046875 211.449219 333.367188 211.304688 "/><path style=" stroke:none;fill-rule:nonzero;fill:#6b3406;fill-opacity:1;" d="M 310.226562 218.035156 L 323.992188 213.5625 C 332.773438 213.152344 341.777344 213.273438 349.136719 210.589844 C 350.5 212.621094 348.78125 215.5625 346.484375 216.425781 C 344.1875 217.277344 341.617188 216.761719 339.195312 216.367188 C 329.515625 214.867188 319.816406 215.859375 310.226562 218.035156 "/><path style=" stroke:none;fill-rule:nonzero;fill:#6b3406;fill-opacity:1;" d="M 356.375 211.007812 C 357.027344 211.023438 357.664062 211.0625 358.328125 211.113281 C 358.125 211.539062 357.929688 211.984375 357.753906 212.425781 C 357.277344 212 356.820312 211.523438 356.375 211.007812 "/><path style=" stroke:none;fill-rule:nonzero;fill:#6b3406;fill-opacity:1;" d="M 378.125 213.492188 C 377.246094 214.867188 376.40625 216.261719 375.59375 217.667969 C 373.773438 217.625 371.980469 217.539062 370.273438 217.34375 C 370.871094 215.714844 371.492188 214.085938 372.160156 212.5 C 374.167969 212.78125 376.140625 213.09375 378.125 213.492188 "/><path style=" stroke:none;fill-rule:nonzero;fill:#6b3406;fill-opacity:1;" d="M 534.496094 411.113281 C 534.3125 413.878906 533.933594 416.632812 533.441406 419.359375 C 533.425781 419.480469 533.386719 419.625 533.367188 419.769531 C 532.464844 424.632812 531.191406 429.46875 529.878906 434.238281 C 529.210938 436.738281 528.515625 439.238281 527.816406 441.730469 C 527.371094 443.269531 526.929688 444.824219 526.484375 446.363281 C 524.785156 452.136719 523.019531 457.90625 521.109375 463.625 C 520.785156 464.558594 520.488281 465.5 520.148438 466.421875 C 511.472656 491.636719 499.972656 515.722656 481.761719 534.910156 C 460.277344 557.546875 430.972656 571.523438 400.800781 579.472656 C 343.140625 594.652344 277.519531 587.703125 230.636719 550.886719 C 221.703125 543.867188 213.59375 535.902344 206.28125 527.226562 C 210 530.941406 213.933594 534.441406 217.929688 537.8125 C 231.554688 549.332031 246.105469 559.914062 262.140625 567.734375 C 317.972656 594.957031 386.394531 585.234375 441.277344 556.125 C 456.707031 547.929688 471.601562 538.125 482.929688 524.855469 C 497.351562 507.953125 505.164062 486.558594 512.59375 465.589844 C 512.699219 465.285156 512.804688 464.984375 512.910156 464.6875 C 513.085938 464.1875 513.265625 463.710938 513.425781 463.210938 C 515.457031 457.480469 517.472656 451.691406 519.335938 445.871094 C 519.777344 444.527344 520.179688 443.179688 520.589844 441.832031 C 522.785156 434.652344 524.644531 427.394531 525.921875 420.070312 C 525.953125 419.875 525.984375 419.679688 526.007812 419.480469 C 527.121094 412.917969 527.742188 406.300781 527.667969 399.609375 C 527.460938 381.695312 522.234375 364.269531 516.964844 347.136719 C 510.789062 327 504.257812 306.4375 491.515625 289.636719 C 479.890625 274.3125 463.785156 263.089844 447.960938 252.136719 C 436.671875 244.316406 425.378906 236.496094 414.101562 228.695312 C 411.660156 226.992188 409.167969 225.277344 406.605469 223.753906 C 404.921875 222.730469 403.203125 221.800781 401.4375 221.011719 C 401.617188 220.625 401.792969 220.230469 401.96875 219.84375 C 403.839844 220.496094 405.703125 221.1875 407.539062 221.914062 C 432.320312 231.539062 454.972656 247.007812 473.375 266.257812 C 503.90625 298.222656 523.15625 339.972656 531.902344 383.308594 C 533.753906 392.457031 535.160156 401.808594 534.496094 411.113281 "/><path style=" stroke:none;fill-rule:nonzero;fill:#6b3406;fill-opacity:1;" d="M 471.539062 296.433594 C 456.101562 278.503906 437.183594 263.488281 416.214844 252.492188 C 410.105469 249.289062 403.824219 246.421875 397.414062 243.890625 C 396.109375 243.355469 394.796875 242.867188 393.488281 242.390625 C 393.609375 241.980469 393.722656 241.550781 393.84375 241.148438 C 395.238281 241.503906 396.640625 241.890625 398.019531 242.285156 C 427.453125 250.992188 452.828125 271.320312 471.539062 296.433594 "/><path style=" stroke:none;fill-rule:nonzero;fill:#6b3406;fill-opacity:1;" d="M 368.75 230.796875 C 368.023438 232.386719 367.332031 233.980469 366.695312 235.59375 C 366.023438 235.59375 365.347656 235.578125 364.679688 235.578125 C 365.015625 234.144531 365.386719 232.707031 365.773438 231.289062 C 365.863281 230.976562 365.953125 230.667969 366.039062 230.355469 C 366.945312 230.476562 367.847656 230.621094 368.75 230.796875 "/><path style=" stroke:none;fill-rule:nonzero;fill:#6b3406;fill-opacity:1;" d="M 512.894531 418.722656 C 512.894531 418.792969 512.894531 418.867188 512.875 418.941406 C 512.289062 426.636719 511.160156 434.28125 509.476562 441.785156 C 509.25 442.792969 509.015625 443.785156 508.773438 444.777344 C 507.339844 450.652344 505.566406 456.433594 503.460938 462.101562 C 503.210938 462.753906 502.960938 463.390625 502.71875 464.027344 C 499.261719 472.878906 495.003906 481.390625 489.886719 489.425781 C 477.480469 508.910156 460.664062 525.226562 442.566406 539.5625 C 433.789062 546.515625 424.636719 553.0625 414.601562 558.054688 C 382.742188 573.933594 344.929688 572.726562 310.078125 565.421875 C 281.746094 559.488281 253.625 549.46875 231.152344 531.210938 C 199.332031 505.332031 181.863281 465.140625 175.117188 424.6875 C 173.515625 415.046875 172.433594 405.261719 172.820312 395.488281 C 173.296875 383.1875 176.078125 371.082031 179.15625 359.15625 C 184.785156 337.472656 191.667969 315.675781 204.535156 297.320312 C 228.25 263.488281 268.96875 245.855469 309.023438 235.699219 C 320.648438 232.742188 332.789062 230.339844 344.839844 229.613281 C 346.976562 229.46875 349.136719 229.394531 351.28125 229.394531 C 350.613281 231.46875 349.992188 233.554688 349.417969 235.644531 C 347.386719 235.683594 345.371094 235.753906 343.332031 235.84375 C 329.320312 236.457031 315.375 237.996094 301.640625 240.9375 C 273.746094 246.894531 246.667969 258.914062 225.929688 278.503906 C 195.632812 307.179688 181.421875 349.742188 179.472656 391.402344 C 178.929688 403.117188 179.261719 414.886719 180.890625 426.476562 C 188.144531 478.367188 222.710938 525.390625 269.570312 548.796875 C 316.433594 572.214844 374.230469 571.765625 421.253906 548.679688 C 443.664062 537.648438 463.785156 521.671875 478.695312 501.65625 C 487.460938 489.902344 494.183594 476.964844 498.980469 463.316406 C 499.195312 462.71875 499.40625 462.101562 499.601562 461.480469 C 501.511719 455.820312 503.105469 450.046875 504.363281 444.1875 C 504.558594 443.339844 504.734375 442.46875 504.894531 441.625 C 506.4375 433.894531 507.425781 426.019531 507.863281 418.085938 C 507.886719 418.054688 507.886719 418.011719 507.863281 417.980469 C 509.828125 383.574219 501.761719 348.074219 485.195312 317.761719 C 481.164062 310.402344 476.59375 303.226562 471.539062 296.433594 C 486.4375 313.707031 498.101562 333.707031 505.25 355.367188 C 511.957031 375.683594 514.519531 397.398438 512.894531 418.722656 "/><path style=" stroke:none;fill-rule:nonzero;fill:#6b3406;fill-opacity:1;" d="M 390.039062 266.316406 C 389.628906 266.195312 389.242188 266.082031 388.832031 265.976562 C 388.855469 265.855469 388.871094 265.726562 388.886719 265.605469 C 389.273438 265.816406 389.667969 266.066406 390.039062 266.316406 "/><path style=" stroke:none;fill-rule:nonzero;fill:#6b3406;fill-opacity:1;" d="M 464.847656 334.273438 C 455.925781 322.574219 445.234375 312.136719 434.652344 301.832031 C 424.105469 291.589844 413.3125 281.148438 399.988281 274.933594 C 396.730469 273.410156 392.675781 271.070312 393.273438 267.515625 C 423.574219 281.148438 449.128906 305.019531 464.847656 334.273438 "/><path style=" stroke:none;fill-rule:nonzero;fill:#6b3406;fill-opacity:1;" d="M 360.445312 261.003906 L 360.375 261.003906 C 360.445312 260.382812 360.519531 259.746094 360.566406 259.109375 L 360.640625 259.109375 C 360.566406 259.746094 360.503906 260.367188 360.445312 261.003906 "/><path style=" stroke:none;fill-rule:nonzero;fill:#6b3406;fill-opacity:1;" d="M 488.667969 411.75 C 488.628906 412.441406 488.597656 413.136719 488.539062 413.835938 C 487.960938 422.496094 486.46875 431.113281 484.171875 439.519531 C 484.097656 439.800781 484.007812 440.085938 483.9375 440.367188 C 482.398438 445.855469 480.488281 451.234375 478.261719 456.457031 C 478.011719 457.003906 477.777344 457.539062 477.550781 458.0625 C 474.382812 465.179688 470.578125 471.976562 466.171875 478.367188 C 440.035156 516.183594 394.925781 538.890625 349.070312 542.164062 C 337.898438 542.953125 326.613281 542.695312 315.640625 540.535156 C 273.699219 532.25 239.945312 506.378906 220.761719 469 C 202.679688 433.75 194.746094 390.992188 208.441406 352.871094 C 221.050781 317.777344 248.144531 287.671875 282.613281 273.464844 C 300.664062 266.019531 320.148438 262.914062 339.566406 260.722656 C 340.945312 260.558594 342.308594 260.40625 343.6875 260.261719 C 344.027344 260.230469 344.378906 260.1875 344.710938 260.15625 C 344.679688 260.367188 344.664062 260.578125 344.644531 260.792969 C 342.945312 260.84375 341.226562 260.957031 339.527344 261.074219 C 298.632812 264.097656 258.808594 284.011719 233.875 316.699219 C 198.585938 362.945312 196.054688 431.835938 228.589844 480.058594 C 261.117188 528.289062 326.613281 551.71875 382.074219 534.230469 C 397.964844 529.226562 412.796875 521.292969 426.582031 511.933594 C 441.753906 501.65625 455.941406 489.355469 465.621094 473.78125 C 468.933594 468.46875 471.660156 462.824219 473.910156 456.988281 C 474.132812 456.433594 474.328125 455.867188 474.546875 455.320312 C 476.472656 450.0625 478.011719 444.6875 479.230469 439.214844 C 479.285156 439.003906 479.34375 438.792969 479.375 438.601562 C 479.566406 437.730469 479.746094 436.84375 479.921875 435.980469 C 481.496094 428.082031 482.4375 420.070312 482.734375 412 C 482.769531 411.023438 482.808594 410.054688 482.808594 409.082031 C 483.25 384.035156 477.535156 358.867188 466.066406 336.585938 C 465.664062 335.8125 465.25 335.046875 464.847656 334.273438 C 468.183594 338.625 471.273438 343.15625 474.03125 347.894531 C 485.179688 367.1875 489.8125 389.523438 488.667969 411.75 "/></g></svg>