<svg xmlns="http://www.w3.org/2000/svg" xmlns:xlink="http://www.w3.org/1999/xlink" width="1123" zoomAndPan="magnify" viewBox="0 0 842.25 595.499986" height="794" preserveAspectRatio="xMidYMid meet" version="1.2"><defs><clipPath id="320ce688ff"><path d="M 213 16 L 357 16 L 357 594.984375 L 213 594.984375 Z M 213 16 "/></clipPath><clipPath id="4ff3c61d4f"><path d="M 388 11 L 502 11 L 502 594.984375 L 388 594.984375 Z M 388 11 "/></clipPath><clipPath id="f453e6c4d5"><path d="M 536 0.015625 L 638 0.015625 L 638 594.984375 L 536 594.984375 Z M 536 0.015625 "/></clipPath></defs><g id="19a5ad4b06"><g clip-rule="nonzero" clip-path="url(#320ce688ff)"><path style=" stroke:none;fill-rule:nonzero;fill:#6b3406;fill-opacity:1;" d="M 285.105469 16.878906 C 270.894531 16.878906 254.917969 28.476562 241.257812 48.691406 C 218.875 81.828125 203.289062 138.601562 221.957031 184.96875 C 228.425781 201.015625 238.789062 215.460938 252.765625 227.90625 C 257.871094 232.457031 260.742188 238.964844 260.660156 245.753906 C 260.117188 286.683594 258.519531 328.160156 255.910156 369.019531 C 255.03125 382.777344 254.222656 393.628906 253.527344 402.980469 C 252.113281 421.925781 251.179688 434.449219 251.007812 452.53125 C 250.582031 495.863281 255.03125 539.90625 264.222656 583.421875 C 265.566406 589.792969 271.277344 594.421875 277.808594 594.421875 L 292.402344 594.421875 C 298.925781 594.421875 304.640625 589.800781 305.988281 583.425781 C 315.171875 539.910156 319.625 495.871094 319.203125 452.53125 C 319.03125 434.429688 318.09375 421.894531 316.679688 402.925781 C 315.984375 393.585938 315.175781 382.75 314.296875 369.023438 C 311.6875 328.164062 310.089844 286.691406 309.546875 245.765625 C 309.460938 238.972656 312.34375 232.46875 317.449219 227.917969 C 331.429688 215.460938 341.792969 201.019531 348.25 184.976562 C 366.917969 138.609375 351.332031 81.835938 328.949219 48.703125 C 315.289062 28.476562 299.3125 16.878906 285.105469 16.878906 Z M 339.507812 181.449219 C 333.59375 196.132812 324.066406 209.394531 311.179688 220.875 C 304.027344 227.238281 300 236.355469 300.121094 245.878906 C 300.664062 286.96875 302.269531 328.605469 304.890625 369.617188 C 305.769531 383.390625 306.578125 394.253906 307.277344 403.628906 C 308.683594 422.414062 309.605469 434.824219 309.78125 452.621094 C 310.195312 495.277344 305.8125 538.628906 296.765625 581.472656 C 296.332031 583.515625 294.5 584.996094 292.398438 584.996094 L 277.804688 584.996094 C 275.703125 584.996094 273.867188 583.515625 273.4375 581.472656 C 264.382812 538.621094 260.003906 495.269531 260.421875 452.621094 C 260.59375 434.84375 261.515625 422.445312 262.914062 403.683594 C 263.613281 394.296875 264.425781 383.414062 265.308594 369.617188 C 267.925781 328.605469 269.527344 286.972656 270.074219 245.878906 C 270.195312 236.359375 266.167969 227.242188 259.023438 220.875 C 246.144531 209.40625 236.605469 196.144531 230.691406 181.453125 C 213.3125 138.28125 228.027344 85.105469 249.050781 53.972656 C 260.753906 36.648438 274.230469 26.304688 285.089844 26.304688 C 295.953125 26.304688 309.425781 36.648438 321.125 53.972656 C 342.167969 85.101562 356.890625 138.277344 339.507812 181.449219 Z M 339.507812 181.449219 "/></g><path style=" stroke:none;fill-rule:nonzero;fill:#6b3406;fill-opacity:1;" d="M 244.523438 165.359375 C 242.78125 163.425781 239.804688 163.277344 237.875 165.011719 C 235.941406 166.757812 235.792969 169.734375 237.535156 171.667969 C 242.003906 176.628906 258.65625 192.816406 285.109375 192.816406 C 291.792969 192.816406 314.96875 191.289062 332.6875 171.667969 C 334.429688 169.738281 334.277344 166.761719 332.347656 165.019531 C 330.421875 163.277344 327.4375 163.425781 325.695312 165.355469 C 310.585938 182.09375 290.816406 183.394531 285.117188 183.394531 C 262.542969 183.394531 248.339844 169.59375 244.523438 165.359375 Z M 244.523438 165.359375 "/><path style=" stroke:none;fill-rule:nonzero;fill:#6b3406;fill-opacity:1;" d="M 279.582031 454.753906 C 279.300781 433.800781 280.898438 412.65625 284.320312 391.917969 C 284.742188 389.351562 283.007812 386.925781 280.441406 386.503906 C 277.824219 386.035156 275.445312 387.820312 275.03125 390.382812 C 271.519531 411.671875 269.882812 433.371094 270.164062 454.871094 C 270.503906 481.519531 273.78125 508.226562 279.894531 534.253906 C 280.40625 536.425781 282.34375 537.886719 284.480469 537.886719 C 284.835938 537.886719 285.199219 537.84375 285.558594 537.761719 C 288.09375 537.164062 289.660156 534.628906 289.066406 532.101562 C 283.105469 506.738281 279.914062 480.71875 279.582031 454.753906 Z M 279.582031 454.753906 "/><g clip-rule="nonzero" clip-path="url(#4ff3c61d4f)"><path style=" stroke:none;fill-rule:nonzero;fill:#6b3406;fill-opacity:1;" d="M 481.015625 11.980469 C 473.75 11.980469 467.839844 17.886719 467.839844 25.148438 L 467.839844 135.507812 C 467.839844 137.609375 466.132812 139.316406 464.027344 139.316406 L 463.367188 139.316406 C 462.34375 139.316406 461.382812 138.917969 460.660156 138.1875 C 459.941406 137.457031 459.550781 136.492188 459.5625 135.464844 L 460.855469 28.390625 C 460.957031 20.0625 454.832031 12.894531 446.925781 12.070312 C 442.523438 11.59375 438.101562 13.035156 434.832031 15.988281 C 431.554688 18.941406 429.671875 23.167969 429.671875 27.582031 L 429.671875 135.054688 C 429.671875 137.128906 428.292969 138.980469 426.539062 139.265625 C 424.964844 139.507812 423.898438 138.84375 423.394531 138.414062 C 422.539062 137.6875 422.054688 136.628906 422.054688 135.511719 L 422.054688 25.15625 C 422.054688 17.890625 416.140625 11.984375 408.878906 11.984375 C 403.078125 11.984375 397.890625 15.8125 396.261719 21.296875 C 390.875 39.394531 388.144531 58.152344 388.144531 77.054688 L 388.148438 168.289062 C 387.6875 177.695312 388.640625 196.125 400.261719 213.921875 C 404.460938 220.347656 409.640625 226.09375 415.679688 231.003906 C 418.78125 233.523438 420.597656 237.511719 420.546875 241.675781 C 420.019531 284.6875 418.40625 327.53125 415.753906 369.019531 C 415.238281 377.203125 414.617188 385.382812 414 393.566406 C 412.542969 412.855469 411.039062 432.792969 410.847656 452.53125 C 410.429688 495.871094 414.875 539.910156 424.066406 583.425781 C 425.410156 589.800781 431.125 594.421875 437.648438 594.421875 L 452.242188 594.421875 C 458.765625 594.421875 464.480469 589.800781 465.828125 583.425781 C 475.011719 539.929688 479.464844 495.890625 479.046875 452.53125 C 478.871094 434.449219 477.9375 421.933594 476.523438 402.980469 C 475.832031 393.628906 475.023438 382.777344 474.140625 369.019531 C 471.660156 330.101562 470.023438 266.65625 469.441406 241.183594 C 469.34375 237.167969 471.105469 233.269531 474.253906 230.476562 C 479.597656 225.746094 484.285156 220.355469 488.179688 214.464844 C 499.390625 197.484375 501.746094 180.105469 501.746094 168.519531 L 501.746094 77.050781 C 501.746094 58.148438 499.011719 39.386719 493.628906 21.296875 C 492.003906 15.808594 486.8125 11.980469 481.015625 11.980469 Z M 492.324219 168.511719 C 492.324219 178.8125 490.242188 194.238281 480.316406 209.269531 C 476.878906 214.472656 472.738281 219.234375 468.011719 223.417969 C 462.777344 228.050781 459.863281 234.605469 460.019531 241.398438 C 460.609375 266.925781 462.242188 330.527344 464.738281 369.613281 C 465.621094 383.414062 466.429688 394.292969 467.132812 403.679688 C 468.53125 422.4375 469.453125 434.835938 469.625 452.617188 C 470.039062 495.292969 465.660156 538.644531 456.609375 581.464844 C 456.175781 583.511719 454.34375 584.988281 452.242188 584.988281 L 437.648438 584.988281 C 435.554688 584.988281 433.714844 583.511719 433.285156 581.464844 C 424.234375 538.621094 419.855469 495.269531 420.269531 452.617188 C 420.457031 433.191406 421.949219 413.40625 423.390625 394.269531 C 424.011719 386.050781 424.636719 377.832031 425.15625 369.613281 C 427.8125 327.96875 429.429688 284.960938 429.96875 241.789062 C 430.054688 234.667969 427.011719 228.074219 421.625 223.6875 C 416.34375 219.390625 411.8125 214.371094 408.152344 208.765625 C 397.988281 193.195312 397.148438 177.007812 397.5625 168.511719 L 397.5625 77.050781 C 397.5625 59.054688 400.164062 41.203125 405.292969 23.972656 C 405.742188 22.460938 407.214844 21.402344 408.878906 21.402344 C 410.945312 21.402344 412.632812 23.082031 412.632812 25.148438 L 412.632812 135.507812 C 412.632812 139.394531 414.328125 143.0625 417.292969 145.585938 C 420.257812 148.109375 424.191406 149.207031 428.046875 148.558594 C 434.34375 147.539062 439.089844 141.730469 439.089844 135.054688 L 439.089844 27.582031 C 439.089844 25.832031 439.835938 24.15625 441.140625 22.988281 C 442.449219 21.804688 444.15625 21.253906 445.949219 21.4375 C 449.015625 21.757812 451.480469 24.824219 451.4375 28.273438 L 450.140625 135.351562 C 450.101562 138.917969 451.457031 142.277344 453.96875 144.808594 C 456.46875 147.34375 459.808594 148.738281 463.375 148.738281 L 464.035156 148.738281 C 471.328125 148.738281 477.265625 142.804688 477.265625 135.507812 L 477.265625 25.15625 C 477.265625 23.085938 478.945312 21.40625 481.019531 21.40625 C 482.683594 21.40625 484.15625 22.464844 484.609375 23.980469 C 489.734375 41.207031 492.332031 59.0625 492.332031 77.054688 L 492.332031 168.511719 Z M 492.324219 168.511719 "/></g><path style=" stroke:none;fill-rule:nonzero;fill:#6b3406;fill-opacity:1;" d="M 439.703125 457.75 C 439.429688 436.765625 441.027344 415.621094 444.445312 394.910156 C 444.871094 392.339844 443.136719 389.914062 440.570312 389.496094 C 437.945312 389.03125 435.574219 390.808594 435.15625 393.371094 C 431.648438 414.632812 430.007812 436.332031 430.289062 457.867188 C 430.632812 484.546875 433.910156 511.257812 440.023438 537.253906 C 440.53125 539.421875 442.472656 540.886719 444.605469 540.886719 C 444.964844 540.886719 445.328125 540.84375 445.691406 540.761719 C 448.21875 540.164062 449.789062 537.632812 449.195312 535.097656 C 443.230469 509.769531 440.042969 483.746094 439.703125 457.75 Z M 439.703125 457.75 "/><g clip-rule="nonzero" clip-path="url(#f453e6c4d5)"><path style=" stroke:none;fill-rule:nonzero;fill:#6b3406;fill-opacity:1;" d="M 632.589844 368.765625 C 624.527344 299.722656 623.4375 181.378906 629.328125 17.023438 C 629.503906 12.253906 627.523438 7.722656 623.910156 4.59375 C 620.429688 1.582031 615.890625 0.324219 611.234375 1.175781 C 565.542969 9.746094 550.050781 96.175781 544.214844 128.714844 C 536.910156 169.472656 521.703125 254.292969 570.671875 301.933594 L 570.773438 302.027344 C 570.773438 302.027344 570.777344 302.03125 570.777344 302.03125 C 574.960938 306.09375 577.210938 311.777344 576.960938 317.636719 C 576.230469 334.925781 575.335938 351.726562 574.238281 369.015625 C 573.714844 377.203125 573.097656 385.386719 572.484375 393.570312 C 571.023438 412.855469 569.519531 432.792969 569.332031 452.527344 C 568.910156 495.886719 573.359375 539.925781 582.546875 583.421875 C 583.894531 589.792969 589.609375 594.414062 596.132812 594.414062 L 610.726562 594.414062 C 617.25 594.414062 622.964844 589.792969 624.3125 583.421875 C 633.496094 539.90625 637.949219 495.867188 637.53125 452.527344 C 637.222656 422.074219 635.613281 394.675781 632.589844 368.765625 Z M 615.085938 581.472656 C 614.652344 583.515625 612.816406 584.996094 610.71875 584.996094 L 596.125 584.996094 C 594.027344 584.996094 592.191406 583.515625 591.757812 581.472656 C 582.707031 538.644531 578.328125 495.292969 578.742188 452.621094 C 578.925781 433.199219 580.417969 413.414062 581.867188 394.285156 C 582.488281 386.0625 583.109375 377.84375 583.632812 369.617188 C 584.734375 352.265625 585.632812 335.390625 586.363281 318.039062 C 586.726562 309.503906 583.433594 301.210938 577.335938 295.28125 L 574.050781 298.660156 L 577.238281 295.1875 C 531.851562 251.027344 546.460938 169.539062 553.480469 130.378906 C 558.472656 102.539062 573.660156 17.8125 613.097656 10.410156 C 615.351562 10 616.96875 11.054688 617.734375 11.71875 C 619.1875 12.972656 619.976562 14.78125 619.90625 16.691406 C 613.996094 181.523438 615.109375 300.34375 623.222656 369.867188 C 626.210938 395.441406 627.800781 422.511719 628.089844 452.621094 C 628.507812 495.273438 624.132812 538.625 615.085938 581.472656 Z M 615.085938 581.472656 "/></g><path style=" stroke:none;fill-rule:nonzero;fill:#6b3406;fill-opacity:1;" d="M 599.667969 460.1875 C 599.394531 439.222656 600.992188 418.082031 604.410156 397.34375 C 604.835938 394.777344 603.101562 392.351562 600.535156 391.929688 C 597.914062 391.460938 595.535156 393.246094 595.121094 395.808594 C 591.613281 417.09375 589.972656 438.792969 590.25 460.304688 C 590.59375 486.988281 593.871094 513.691406 599.988281 539.683594 C 600.496094 541.851562 602.4375 543.316406 604.570312 543.316406 C 604.929688 543.316406 605.289062 543.273438 605.652344 543.195312 C 608.183594 542.597656 609.75 540.0625 609.160156 537.527344 C 603.195312 512.203125 600.003906 486.179688 599.667969 460.1875 Z M 599.667969 460.1875 "/><path style=" stroke:none;fill-rule:nonzero;fill:#6b3406;fill-opacity:1;" d="M 604.703125 141.296875 C 602.097656 141.296875 599.992188 143.40625 599.992188 146.007812 L 599.992188 275.335938 C 599.992188 277.15625 599.285156 278.859375 597.988281 280.140625 C 596.714844 281.414062 595.015625 282.109375 593.042969 282.109375 C 593.03125 282.109375 593.011719 282.109375 592.996094 282.109375 C 590.882812 282.101562 588.949219 281.15625 587.699219 279.523438 C 581.730469 271.761719 576.78125 263.25 572.988281 254.21875 C 568.277344 243.023438 565.398438 231.207031 564.433594 219.09375 C 564.226562 216.503906 562.03125 214.558594 559.359375 214.773438 C 556.769531 214.980469 554.832031 217.253906 555.039062 219.84375 C 556.089844 232.953125 559.207031 245.746094 564.304688 257.871094 C 568.414062 267.640625 573.773438 276.859375 580.230469 285.257812 C 583.269531 289.214844 587.898438 291.5 593.117188 291.527344 C 593.152344 291.527344 593.191406 291.527344 593.21875 291.527344 C 597.523438 291.527344 601.574219 289.859375 604.632812 286.816406 C 607.710938 283.753906 609.414062 279.675781 609.414062 275.332031 L 609.414062 146.007812 C 609.414062 143.40625 607.300781 141.296875 604.703125 141.296875 Z M 604.703125 141.296875 "/></g></svg>