<svg xmlns="http://www.w3.org/2000/svg" xmlns:xlink="http://www.w3.org/1999/xlink" width="40" zoomAndPan="magnify" viewBox="0 0 30 30.000001" height="40" preserveAspectRatio="xMidYMid meet" version="1.2"><g id="9b176671b8"><path style=" stroke:none;fill-rule:nonzero;fill:#f5eadb;fill-opacity:1;" d="M 15.46875 0.171875 L 17.304688 0.398438 C 20.984375 1.214844 23.855469 3.191406 25.921875 6.324219 C 27.984375 9.480469 28.699219 13.101562 28.0625 17.199219 C 27.269531 21.097656 25.386719 24.148438 22.414062 26.355469 C 21.453125 27.0625 20.417969 27.632812 19.304688 28.0625 L 17.597656 28.589844 C 16.429688 28.871094 15.21875 28.976562 13.964844 28.914062 C 10.125 28.613281 7 27.039062 4.589844 24.203125 C 2.175781 21.367188 1.03125 17.910156 1.148438 13.832031 C 1.457031 9.765625 2.960938 6.449219 5.652344 3.878906 C 8.347656 1.308594 11.621094 0.0742188 15.46875 0.171875 "/><path style=" stroke:none;fill-rule:nonzero;fill:#442a28;fill-opacity:1;" d="M 13.605469 14.824219 C 13.636719 14.824219 13.667969 14.796875 13.667969 14.761719 C 13.664062 13.878906 13.683594 13.085938 13.902344 12.316406 C 13.910156 12.285156 13.890625 12.25 13.859375 12.242188 C 13.824219 12.230469 13.792969 12.25 13.78125 12.285156 C 13.558594 13.066406 13.542969 13.871094 13.542969 14.761719 C 13.542969 14.796875 13.570312 14.824219 13.605469 14.824219 Z M 13.605469 14.824219 "/><path style=" stroke:none;fill-rule:nonzero;fill:#442a28;fill-opacity:1;" d="M 14.492188 19.480469 C 14.503906 19.339844 14.519531 19.195312 14.535156 19.050781 C 14.566406 18.761719 14.597656 18.464844 14.609375 18.167969 C 14.613281 18.160156 14.617188 18.148438 14.617188 18.140625 C 14.621094 17.699219 14.625 17.242188 14.652344 16.792969 C 14.667969 16.53125 14.695312 16.265625 14.71875 16.007812 C 14.742188 15.722656 14.769531 15.429688 14.785156 15.140625 C 14.8125 14.671875 14.808594 14.195312 14.78125 13.726562 C 14.78125 13.691406 14.75 13.664062 14.714844 13.667969 C 14.679688 13.667969 14.65625 13.699219 14.65625 13.734375 C 14.683594 14.195312 14.6875 14.667969 14.660156 15.132812 C 14.644531 15.421875 14.617188 15.714844 14.589844 15.996094 C 14.566406 16.253906 14.542969 16.523438 14.527344 16.785156 C 14.503906 17.195312 14.496094 17.609375 14.492188 18.011719 C 14.488281 18.019531 14.488281 18.023438 14.488281 18.027344 C 14.488281 18.363281 14.449219 18.707031 14.410156 19.039062 C 14.394531 19.183594 14.378906 19.328125 14.367188 19.472656 C 14.34375 19.710938 14.328125 19.953125 14.3125 20.183594 C 14.285156 20.628906 14.257812 21.089844 14.179688 21.53125 L 14.179688 21.539062 C 14.179688 21.542969 14.179688 21.542969 14.179688 21.546875 L 14.179688 21.5625 C 14.210938 22.070312 14.234375 22.507812 14.042969 22.964844 C 14.023438 23.007812 14.003906 23.050781 13.980469 23.09375 C 13.949219 23.160156 13.914062 23.230469 13.886719 23.304688 C 13.835938 23.453125 13.824219 23.585938 13.855469 23.703125 C 13.882812 23.808594 13.945312 23.898438 14.007812 23.980469 C 14.058594 24.042969 14.109375 24.101562 14.164062 24.164062 C 14.175781 24.179688 14.191406 24.183594 14.210938 24.183594 C 14.222656 24.183594 14.238281 24.179688 14.25 24.167969 C 14.277344 24.148438 14.28125 24.105469 14.257812 24.082031 C 14.207031 24.023438 14.15625 23.964844 14.105469 23.902344 C 14.050781 23.832031 13.996094 23.753906 13.972656 23.671875 C 13.949219 23.578125 13.960938 23.46875 14.003906 23.347656 C 14.03125 23.28125 14.058594 23.214844 14.09375 23.148438 C 14.113281 23.105469 14.136719 23.058594 14.15625 23.011719 C 14.359375 22.53125 14.335938 22.078125 14.304688 21.554688 L 14.300781 21.546875 C 14.382812 21.097656 14.410156 20.640625 14.4375 20.191406 C 14.453125 19.957031 14.46875 19.71875 14.492188 19.480469 Z M 14.492188 19.480469 "/><path style=" stroke:none;fill-rule:nonzero;fill:#442a28;fill-opacity:1;" d="M 19.617188 13.492188 C 19.597656 13.351562 19.589844 13.203125 19.585938 13.058594 C 19.585938 12.953125 19.582031 12.839844 19.570312 12.734375 C 19.535156 12.332031 19.515625 11.921875 19.496094 11.523438 C 19.472656 11.011719 19.445312 10.484375 19.386719 9.964844 C 19.339844 9.558594 19.375 9.140625 19.410156 8.734375 C 19.421875 8.574219 19.4375 8.410156 19.445312 8.25 C 19.46875 7.78125 19.464844 7.09375 19.140625 6.535156 C 18.945312 6.203125 18.660156 5.945312 18.382812 5.691406 C 18.371094 5.683594 18.359375 5.679688 18.347656 5.679688 C 18.34375 5.675781 18.34375 5.671875 18.34375 5.671875 C 18.273438 5.570312 18.191406 5.46875 18.109375 5.378906 C 18.105469 5.367188 18.101562 5.355469 18.09375 5.347656 L 17.964844 5.203125 C 17.953125 5.191406 17.925781 5.160156 17.882812 5.164062 C 17.828125 5.078125 17.8125 4.96875 17.796875 4.867188 C 17.769531 4.667969 17.742188 4.464844 17.757812 4.265625 C 17.761719 4.222656 17.769531 4.179688 17.78125 4.132812 C 17.792969 4.078125 17.804688 4.027344 17.804688 3.96875 C 17.808594 3.953125 17.808594 3.9375 17.804688 3.921875 C 17.804688 3.921875 17.800781 3.917969 17.800781 3.917969 C 17.789062 3.878906 17.773438 3.839844 17.757812 3.808594 C 17.753906 3.792969 17.746094 3.78125 17.742188 3.765625 C 17.695312 3.652344 17.621094 3.554688 17.554688 3.460938 C 17.46875 3.34375 17.382812 3.21875 17.265625 3.117188 C 17.160156 3.027344 17.054688 2.980469 16.953125 2.984375 C 16.9375 2.984375 16.925781 2.988281 16.910156 2.988281 C 16.890625 2.992188 16.871094 2.992188 16.855469 2.992188 C 16.835938 2.988281 16.808594 2.976562 16.785156 2.960938 L 16.761719 2.949219 C 16.742188 2.9375 16.710938 2.921875 16.675781 2.917969 C 16.640625 2.914062 16.605469 2.917969 16.578125 2.921875 L 16.304688 2.960938 C 16.285156 2.964844 16.269531 2.976562 16.261719 2.992188 C 16.226562 3.042969 16.160156 3.082031 16.097656 3.074219 C 16.082031 3.074219 16.0625 3.082031 16.050781 3.09375 C 16.039062 3.109375 16.03125 3.125 16.035156 3.144531 C 16.035156 3.164062 16.015625 3.1875 15.984375 3.199219 C 15.949219 3.214844 15.902344 3.210938 15.855469 3.207031 C 15.835938 3.207031 15.820312 3.214844 15.804688 3.226562 C 15.792969 3.242188 15.785156 3.261719 15.789062 3.277344 C 15.792969 3.308594 15.78125 3.335938 15.761719 3.355469 C 15.738281 3.371094 15.707031 3.378906 15.679688 3.367188 C 15.65625 3.359375 15.632812 3.367188 15.613281 3.382812 C 15.597656 3.394531 15.59375 3.414062 15.59375 3.433594 C 15.59375 3.4375 15.585938 3.441406 15.582031 3.441406 C 15.574219 3.445312 15.566406 3.449219 15.5625 3.449219 C 15.53125 3.457031 15.496094 3.46875 15.46875 3.5 C 15.453125 3.515625 15.445312 3.535156 15.4375 3.546875 L 15.433594 3.558594 C 15.425781 3.570312 15.414062 3.582031 15.402344 3.59375 C 15.394531 3.605469 15.382812 3.617188 15.375 3.625 C 15.359375 3.644531 15.347656 3.667969 15.339844 3.6875 C 15.335938 3.6875 15.335938 3.6875 15.335938 3.691406 C 15.289062 3.707031 15.253906 3.753906 15.257812 3.804688 C 15.257812 3.875 15.316406 3.925781 15.34375 3.945312 C 15.378906 3.972656 15.410156 3.992188 15.441406 4.003906 C 15.40625 4.105469 15.421875 4.207031 15.4375 4.308594 C 15.449219 4.375 15.460938 4.4375 15.453125 4.496094 L 15.453125 4.523438 C 15.445312 4.578125 15.4375 4.652344 15.484375 4.707031 C 15.5 4.726562 15.519531 4.738281 15.539062 4.75 C 15.546875 4.757812 15.5625 4.765625 15.5625 4.769531 C 15.5625 4.773438 15.558594 4.785156 15.558594 4.792969 C 15.511719 4.9375 15.484375 5.085938 15.472656 5.238281 C 15.472656 5.253906 15.472656 5.265625 15.472656 5.28125 L 15.273438 5.132812 C 15.234375 5.101562 15.195312 5.070312 15.167969 5.035156 C 15.148438 5.003906 15.136719 4.964844 15.121094 4.925781 L 15.117188 4.914062 C 15.074219 4.785156 15 4.601562 14.847656 4.484375 C 14.84375 4.484375 14.839844 4.480469 14.835938 4.480469 C 14.839844 4.394531 14.832031 4.304688 14.804688 4.222656 C 14.796875 4.203125 14.777344 4.140625 14.71875 4.125 C 14.679688 4.113281 14.640625 4.128906 14.621094 4.136719 C 14.601562 4.148438 14.578125 4.15625 14.554688 4.164062 C 14.507812 4.179688 14.449219 4.203125 14.40625 4.242188 C 14.398438 4.21875 14.378906 4.203125 14.355469 4.199219 C 14.195312 4.179688 14.035156 4.175781 13.875 4.191406 C 13.824219 4.195312 13.769531 4.199219 13.71875 4.226562 C 13.695312 4.242188 13.675781 4.257812 13.660156 4.273438 C 13.652344 4.269531 13.644531 4.261719 13.636719 4.261719 C 13.484375 4.21875 13.308594 4.246094 13.152344 4.34375 C 13.035156 4.417969 12.929688 4.527344 12.820312 4.6875 C 12.746094 4.800781 12.699219 4.898438 12.675781 4.992188 C 12.640625 5.113281 12.644531 5.238281 12.648438 5.359375 C 12.648438 5.46875 12.652344 5.570312 12.632812 5.667969 C 12.617188 5.738281 12.589844 5.808594 12.558594 5.882812 C 12.503906 6.027344 12.445312 6.175781 12.480469 6.335938 C 12.5 6.425781 12.546875 6.5 12.59375 6.574219 C 12.628906 6.628906 12.660156 6.683594 12.679688 6.742188 C 12.714844 6.847656 12.699219 6.976562 12.636719 7.085938 C 12.621094 7.113281 12.601562 7.140625 12.585938 7.164062 C 12.527344 7.246094 12.464844 7.335938 12.472656 7.449219 C 12.476562 7.5625 12.554688 7.652344 12.625 7.734375 C 12.691406 7.808594 12.75 7.878906 12.738281 7.953125 C 12.730469 8.011719 12.683594 8.058594 12.628906 8.109375 C 12.574219 8.164062 12.511719 8.226562 12.488281 8.3125 C 12.449219 8.460938 12.570312 8.566406 12.664062 8.648438 C 12.695312 8.675781 12.726562 8.699219 12.75 8.726562 C 12.835938 8.816406 12.925781 8.949219 12.890625 9.070312 C 12.878906 9.109375 12.855469 9.144531 12.832031 9.183594 C 12.792969 9.242188 12.75 9.3125 12.75 9.394531 C 12.75 9.507812 12.824219 9.589844 12.890625 9.660156 C 12.910156 9.683594 12.929688 9.703125 12.949219 9.726562 C 13.085938 9.902344 13.054688 10.191406 12.882812 10.335938 C 12.859375 10.355469 12.855469 10.386719 12.867188 10.410156 C 12.878906 10.433594 12.898438 10.445312 12.921875 10.445312 C 12.929688 10.445312 12.933594 10.445312 12.9375 10.445312 L 13.128906 10.402344 C 13.183594 10.390625 13.246094 10.375 13.296875 10.332031 C 13.355469 10.28125 13.382812 10.179688 13.320312 10.105469 C 13.296875 10.078125 13.289062 10.042969 13.292969 9.992188 L 13.300781 9.992188 C 13.328125 9.992188 13.355469 9.96875 13.359375 9.941406 L 13.414062 9.511719 C 13.414062 9.503906 13.414062 9.496094 13.417969 9.484375 C 13.496094 9.621094 13.578125 9.769531 13.644531 9.925781 C 13.632812 9.925781 13.621094 9.929688 13.613281 9.9375 C 13.585938 9.953125 13.582031 9.980469 13.582031 9.988281 C 13.566406 10.0625 13.582031 10.140625 13.613281 10.210938 C 13.605469 10.214844 13.601562 10.222656 13.597656 10.230469 C 13.574219 10.28125 13.558594 10.34375 13.5625 10.402344 C 13.5625 10.476562 13.59375 10.515625 13.621094 10.539062 C 13.625 10.542969 13.632812 10.546875 13.640625 10.550781 C 13.609375 10.605469 13.609375 10.679688 13.648438 10.734375 C 13.636719 10.730469 13.621094 10.726562 13.609375 10.730469 C 13.527344 10.757812 13.480469 10.847656 13.5 10.929688 C 13.507812 10.960938 13.527344 10.988281 13.550781 11.011719 C 13.535156 11.023438 13.515625 11.039062 13.503906 11.058594 C 13.496094 11.074219 13.496094 11.089844 13.492188 11.105469 C 13.433594 11.210938 13.363281 11.316406 13.296875 11.421875 C 13.128906 11.683594 12.953125 11.957031 12.847656 12.246094 C 12.714844 12.621094 12.640625 13.011719 12.582031 13.378906 C 12.550781 13.578125 12.523438 13.777344 12.496094 13.976562 C 12.492188 13.988281 12.488281 13.996094 12.484375 14.007812 C 12.46875 14.289062 12.367188 14.5625 12.269531 14.828125 C 12.246094 14.890625 12.226562 14.949219 12.203125 15.011719 C 12.054688 15.4375 11.945312 15.886719 11.84375 16.320312 C 11.816406 16.429688 11.789062 16.535156 11.765625 16.644531 C 11.589844 17.347656 11.386719 18.054688 11.152344 18.742188 C 11.148438 18.746094 11.144531 18.753906 11.144531 18.761719 C 11.066406 19.054688 10.953125 19.34375 10.839844 19.621094 C 10.769531 19.804688 10.691406 19.996094 10.628906 20.1875 C 10.601562 20.269531 10.574219 20.347656 10.550781 20.429688 C 10.496094 20.601562 10.441406 20.777344 10.367188 20.941406 C 10.261719 21.1875 10.117188 21.417969 9.976562 21.640625 C 9.972656 21.640625 9.96875 21.644531 9.964844 21.648438 C 9.933594 21.6875 9.867188 21.707031 9.789062 21.707031 C 9.75 21.707031 9.707031 21.699219 9.664062 21.691406 C 9.625 21.6875 9.585938 21.679688 9.546875 21.675781 C 9.515625 21.675781 9.488281 21.675781 9.460938 21.675781 C 9.390625 21.675781 9.324219 21.675781 9.269531 21.648438 C 9.238281 21.632812 9.210938 21.609375 9.179688 21.582031 C 9.160156 21.5625 9.136719 21.542969 9.113281 21.527344 C 9.046875 21.476562 8.933594 21.445312 8.847656 21.503906 C 8.757812 21.566406 8.761719 21.675781 8.765625 21.765625 C 8.765625 21.789062 8.769531 21.808594 8.765625 21.832031 C 8.761719 21.96875 8.660156 22.089844 8.582031 22.171875 C 8.445312 22.3125 8.292969 22.433594 8.125 22.53125 C 8.097656 22.542969 8.074219 22.558594 8.050781 22.574219 C 7.941406 22.632812 7.832031 22.695312 7.742188 22.789062 C 7.628906 22.917969 7.570312 23.121094 7.679688 23.273438 C 7.726562 23.339844 7.792969 23.378906 7.859375 23.414062 C 8 23.488281 8.152344 23.546875 8.300781 23.601562 C 8.53125 23.6875 8.789062 23.78125 9.058594 23.78125 C 9.089844 23.78125 9.121094 23.78125 9.152344 23.777344 C 9.523438 23.746094 9.839844 23.507812 10.074219 23.308594 C 10.621094 22.832031 11.011719 22.351562 11.332031 21.75 C 11.332031 21.746094 11.332031 21.746094 11.332031 21.746094 C 11.332031 21.742188 11.335938 21.742188 11.335938 21.742188 C 11.683594 20.808594 11.882812 19.816406 12.078125 18.855469 C 12.140625 18.539062 12.207031 18.238281 12.273438 17.949219 C 12.335938 17.660156 12.402344 17.355469 12.46875 17.039062 C 12.609375 16.410156 12.753906 15.761719 12.84375 15.109375 C 12.871094 14.894531 12.898438 14.667969 12.921875 14.453125 C 13 13.71875 13.082031 12.960938 13.394531 12.292969 C 13.410156 12.261719 13.394531 12.222656 13.363281 12.207031 C 13.332031 12.195312 13.292969 12.207031 13.28125 12.238281 C 12.960938 12.929688 12.875 13.695312 12.796875 14.4375 C 12.773438 14.65625 12.75 14.878906 12.71875 15.09375 C 12.628906 15.738281 12.484375 16.386719 12.34375 17.011719 L 12.34375 17.015625 C 12.28125 17.332031 12.214844 17.632812 12.148438 17.921875 C 12.085938 18.214844 12.019531 18.515625 11.953125 18.832031 C 11.761719 19.785156 11.5625 20.769531 11.21875 21.695312 C 10.90625 22.285156 10.527344 22.753906 9.992188 23.214844 C 9.773438 23.40625 9.476562 23.625 9.140625 23.65625 C 8.867188 23.679688 8.589844 23.578125 8.34375 23.484375 C 8.199219 23.433594 8.050781 23.378906 7.914062 23.308594 C 7.863281 23.28125 7.8125 23.25 7.78125 23.207031 C 7.710938 23.109375 7.757812 22.964844 7.835938 22.878906 C 7.910156 22.796875 8.007812 22.746094 8.109375 22.6875 C 8.132812 22.671875 8.160156 22.660156 8.183594 22.644531 C 8.363281 22.539062 8.527344 22.414062 8.671875 22.265625 C 8.761719 22.167969 8.886719 22.019531 8.890625 21.839844 C 8.890625 21.816406 8.890625 21.792969 8.890625 21.765625 C 8.886719 21.6875 8.886719 21.636719 8.917969 21.613281 C 8.949219 21.589844 9.003906 21.609375 9.039062 21.636719 C 9.0625 21.648438 9.078125 21.667969 9.097656 21.683594 C 9.132812 21.714844 9.167969 21.746094 9.214844 21.765625 C 9.292969 21.804688 9.378906 21.804688 9.457031 21.808594 C 9.484375 21.808594 9.511719 21.808594 9.539062 21.808594 C 9.574219 21.8125 9.609375 21.816406 9.644531 21.824219 C 9.691406 21.828125 9.738281 21.835938 9.785156 21.839844 C 9.808594 21.839844 9.832031 21.835938 9.855469 21.835938 L 9.492188 22.398438 C 9.472656 22.425781 9.480469 22.464844 9.511719 22.484375 C 9.523438 22.488281 9.535156 22.492188 9.546875 22.492188 C 9.566406 22.492188 9.585938 22.484375 9.597656 22.464844 L 10.042969 21.773438 C 10.199219 21.527344 10.363281 21.277344 10.480469 21 C 10.554688 20.828125 10.613281 20.652344 10.667969 20.476562 C 10.691406 20.398438 10.71875 20.316406 10.746094 20.238281 C 10.808594 20.050781 10.882812 19.859375 10.957031 19.679688 C 11.058594 19.425781 11.160156 19.160156 11.238281 18.894531 C 11.484375 18.167969 11.703125 17.425781 11.882812 16.683594 C 11.910156 16.578125 11.9375 16.46875 11.960938 16.359375 C 12.066406 15.929688 12.171875 15.484375 12.320312 15.0625 C 12.34375 15.003906 12.363281 14.941406 12.386719 14.882812 C 12.476562 14.632812 12.570312 14.375 12.601562 14.101562 C 12.605469 14.097656 12.605469 14.089844 12.605469 14.082031 C 12.636719 13.855469 12.667969 13.628906 12.703125 13.40625 C 12.761719 13.046875 12.835938 12.660156 12.964844 12.296875 C 13.0625 12.023438 13.234375 11.753906 13.398438 11.5 C 13.453125 11.414062 13.507812 11.328125 13.558594 11.242188 C 13.5625 11.246094 13.566406 11.246094 13.570312 11.25 C 13.570312 11.25 13.574219 11.25 13.578125 11.25 C 13.558594 11.261719 13.539062 11.277344 13.523438 11.300781 C 13.503906 11.34375 13.511719 11.398438 13.550781 11.433594 C 13.574219 11.457031 13.605469 11.46875 13.632812 11.476562 C 13.675781 11.488281 13.722656 11.496094 13.765625 11.5 C 13.757812 11.511719 13.753906 11.527344 13.753906 11.542969 C 13.753906 11.589844 13.773438 11.636719 13.8125 11.667969 C 13.871094 11.714844 13.949219 11.742188 14.046875 11.742188 C 14.0625 11.742188 14.078125 11.742188 14.097656 11.738281 C 14.132812 11.738281 14.167969 11.730469 14.207031 11.726562 C 14.253906 11.71875 14.296875 11.710938 14.339844 11.710938 C 14.390625 11.707031 14.4375 11.714844 14.488281 11.722656 C 14.515625 11.726562 14.542969 11.730469 14.570312 11.730469 C 14.800781 11.753906 15.03125 11.699219 15.242188 11.621094 C 15.265625 11.816406 15.257812 12.011719 15.246094 12.21875 C 15.238281 12.34375 15.230469 12.472656 15.230469 12.605469 C 15.234375 12.792969 15.257812 12.976562 15.28125 13.160156 C 15.292969 13.242188 15.300781 13.320312 15.3125 13.402344 C 15.367188 13.929688 15.347656 14.472656 15.328125 14.996094 C 15.316406 15.269531 15.304688 15.550781 15.304688 15.832031 C 15.304688 15.832031 15.308594 15.835938 15.308594 15.835938 C 15.285156 16.359375 15.265625 16.898438 15.285156 17.429688 C 15.304688 17.855469 15.347656 18.289062 15.386719 18.710938 L 15.546875 20.304688 L 15.796875 23.296875 C 15.808594 23.441406 15.820312 23.589844 15.792969 23.726562 C 15.769531 23.847656 15.714844 23.949219 15.640625 24.015625 C 15.585938 23.945312 15.511719 23.894531 15.425781 23.867188 C 15.402344 23.859375 15.371094 23.867188 15.355469 23.890625 C 15.3125 23.957031 15.335938 24.027344 15.359375 24.082031 C 15.371094 24.113281 15.382812 24.148438 15.375 24.167969 C 15.367188 24.1875 15.324219 24.207031 15.285156 24.21875 C 15.128906 24.265625 14.96875 24.3125 14.8125 24.359375 C 14.820312 24.339844 14.828125 24.316406 14.828125 24.292969 C 14.832031 24.226562 14.800781 24.160156 14.753906 24.121094 C 14.664062 24.054688 14.527344 24.0625 14.441406 24.144531 C 14.371094 24.210938 14.332031 24.3125 14.339844 24.433594 C 14.339844 24.445312 14.34375 24.464844 14.339844 24.46875 C 14.335938 24.472656 14.316406 24.476562 14.3125 24.476562 C 14.105469 24.511719 13.875 24.53125 13.757812 24.394531 L 13.742188 24.375 C 13.722656 24.351562 13.699219 24.324219 13.667969 24.304688 C 13.578125 24.253906 13.472656 24.296875 13.410156 24.351562 C 13.386719 24.371094 13.367188 24.390625 13.347656 24.414062 C 13.320312 24.441406 13.296875 24.464844 13.269531 24.484375 C 13.195312 24.53125 13.097656 24.527344 12.984375 24.519531 L 12.335938 24.46875 C 12.324219 24.46875 12.316406 24.46875 12.308594 24.464844 C 12.339844 24.449219 12.382812 24.445312 12.441406 24.441406 C 12.5 24.433594 12.5625 24.429688 12.617188 24.40625 C 12.675781 24.382812 12.710938 24.34375 12.722656 24.296875 C 12.734375 24.253906 12.722656 24.207031 12.691406 24.171875 C 12.648438 24.128906 12.578125 24.105469 12.515625 24.113281 C 12.414062 24.132812 12.339844 24.207031 12.273438 24.269531 C 12.207031 24.332031 12.152344 24.386719 12.085938 24.390625 C 12.039062 24.390625 11.988281 24.363281 11.933594 24.332031 C 11.875 24.296875 11.804688 24.257812 11.726562 24.257812 L 11.722656 24.257812 C 11.652344 24.257812 11.585938 24.289062 11.53125 24.3125 C 11.472656 24.339844 11.425781 24.363281 11.378906 24.355469 C 11.339844 24.347656 11.304688 24.3125 11.265625 24.269531 C 11.230469 24.230469 11.1875 24.1875 11.136719 24.164062 C 11.132812 24.160156 11.128906 24.160156 11.128906 24.160156 C 11.144531 24.152344 11.164062 24.144531 11.183594 24.132812 C 11.328125 24.058594 11.457031 23.96875 11.589844 23.871094 C 11.894531 23.652344 12.242188 23.390625 12.511719 23.066406 C 12.867188 22.636719 13.054688 22.222656 13.113281 21.722656 C 13.761719 20.097656 14.148438 18.390625 14.261719 16.644531 C 14.265625 16.613281 14.238281 16.582031 14.203125 16.578125 C 14.167969 16.574219 14.140625 16.601562 14.136719 16.636719 C 14.027344 18.371094 13.640625 20.070312 12.992188 21.683594 C 12.992188 21.683594 12.992188 21.6875 12.992188 21.691406 C 12.992188 21.691406 12.988281 21.695312 12.988281 21.699219 C 12.933594 22.175781 12.757812 22.574219 12.414062 22.984375 C 12.152344 23.300781 11.8125 23.554688 11.515625 23.769531 C 11.386719 23.863281 11.257812 23.953125 11.125 24.023438 C 11.003906 24.085938 10.875 24.136719 10.75 24.183594 C 10.667969 24.214844 10.582031 24.25 10.496094 24.261719 C 10.417969 24.273438 10.335938 24.269531 10.261719 24.246094 C 10.25 24.246094 10.246094 24.242188 10.246094 24.242188 C 10.246094 24.242188 10.246094 24.234375 10.246094 24.222656 C 10.246094 24.183594 10.25 24.148438 10.257812 24.113281 C 10.265625 24.046875 10.277344 23.980469 10.269531 23.910156 C 10.265625 23.886719 10.257812 23.847656 10.238281 23.816406 C 10.179688 23.730469 10.070312 23.738281 9.980469 23.746094 C 9.941406 23.75 9.902344 23.738281 9.882812 23.714844 C 9.882812 23.703125 9.914062 23.683594 9.972656 23.671875 C 10.335938 23.605469 10.714844 23.519531 11.003906 23.289062 C 11.28125 23.066406 11.449219 22.742188 11.59375 22.457031 C 11.671875 22.304688 11.738281 22.203125 11.808594 22.09375 C 11.878906 21.988281 11.953125 21.878906 12.035156 21.722656 C 12.035156 21.722656 12.035156 21.71875 12.035156 21.71875 C 12.035156 21.71875 12.035156 21.71875 12.035156 21.714844 C 12.636719 20.1875 13.089844 18.816406 13.507812 17.273438 C 14.203125 15.589844 14.675781 13.820312 14.902344 12.015625 C 14.90625 11.980469 14.882812 11.949219 14.851562 11.945312 C 14.816406 11.941406 14.785156 11.964844 14.78125 12 C 14.550781 13.792969 14.085938 15.554688 13.390625 17.226562 C 13.390625 17.226562 13.390625 17.230469 13.390625 17.230469 C 13.390625 17.230469 13.386719 17.234375 13.386719 17.234375 C 12.96875 18.773438 12.515625 20.140625 11.921875 21.667969 C 11.84375 21.816406 11.777344 21.917969 11.707031 22.027344 C 11.636719 22.132812 11.5625 22.242188 11.484375 22.398438 C 11.34375 22.675781 11.183594 22.984375 10.925781 23.1875 C 10.660156 23.402344 10.296875 23.484375 9.953125 23.546875 C 9.789062 23.578125 9.757812 23.660156 9.757812 23.710938 C 9.753906 23.75 9.769531 23.785156 9.800781 23.8125 C 9.851562 23.863281 9.933594 23.875 10 23.871094 C 10.050781 23.867188 10.117188 23.859375 10.132812 23.886719 C 10.136719 23.894531 10.140625 23.90625 10.144531 23.925781 C 10.148438 23.980469 10.140625 24.035156 10.132812 24.09375 C 10.125 24.132812 10.121094 24.175781 10.117188 24.214844 C 10.117188 24.246094 10.117188 24.289062 10.144531 24.320312 C 10.167969 24.347656 10.199219 24.359375 10.226562 24.367188 C 10.285156 24.382812 10.351562 24.390625 10.410156 24.390625 C 10.445312 24.390625 10.480469 24.390625 10.511719 24.386719 C 10.589844 24.375 10.667969 24.347656 10.738281 24.320312 C 10.757812 24.332031 10.78125 24.335938 10.800781 24.324219 C 10.894531 24.28125 11 24.238281 11.078125 24.277344 C 11.113281 24.292969 11.140625 24.324219 11.171875 24.355469 C 11.21875 24.40625 11.273438 24.460938 11.351562 24.476562 C 11.4375 24.496094 11.515625 24.460938 11.582031 24.425781 C 11.632812 24.402344 11.679688 24.382812 11.722656 24.382812 C 11.769531 24.382812 11.820312 24.410156 11.871094 24.441406 C 11.933594 24.476562 12.003906 24.515625 12.085938 24.515625 C 12.113281 24.511719 12.140625 24.507812 12.160156 24.5 C 12.175781 24.539062 12.214844 24.585938 12.324219 24.59375 L 12.972656 24.644531 C 13.011719 24.648438 13.050781 24.648438 13.089844 24.648438 C 13.171875 24.648438 13.261719 24.636719 13.335938 24.585938 C 13.375 24.5625 13.40625 24.53125 13.4375 24.5 C 13.453125 24.480469 13.472656 24.460938 13.488281 24.445312 C 13.523438 24.417969 13.570312 24.394531 13.601562 24.414062 C 13.617188 24.421875 13.628906 24.4375 13.640625 24.453125 L 13.660156 24.476562 C 13.820312 24.660156 14.089844 24.640625 14.332031 24.597656 C 14.359375 24.59375 14.402344 24.585938 14.433594 24.550781 C 14.46875 24.511719 14.464844 24.457031 14.460938 24.414062 C 14.457031 24.339844 14.480469 24.273438 14.523438 24.234375 C 14.566406 24.195312 14.632812 24.1875 14.671875 24.21875 C 14.691406 24.230469 14.703125 24.257812 14.699219 24.285156 C 14.699219 24.296875 14.695312 24.320312 14.667969 24.335938 C 14.628906 24.359375 14.582031 24.390625 14.574219 24.441406 C 14.570312 24.46875 14.578125 24.492188 14.59375 24.511719 C 14.609375 24.53125 14.636719 24.539062 14.660156 24.535156 C 14.882812 24.46875 15.101562 24.402344 15.320312 24.335938 C 15.367188 24.320312 15.460938 24.292969 15.492188 24.207031 C 15.515625 24.148438 15.492188 24.085938 15.476562 24.039062 C 15.472656 24.03125 15.472656 24.027344 15.46875 24.023438 C 15.511719 24.050781 15.542969 24.089844 15.566406 24.132812 C 15.574219 24.148438 15.585938 24.160156 15.605469 24.164062 C 15.621094 24.171875 15.640625 24.167969 15.65625 24.160156 C 15.785156 24.078125 15.878906 23.929688 15.914062 23.75 C 15.945312 23.589844 15.933594 23.4375 15.921875 23.285156 L 15.675781 20.328125 L 15.675781 20.324219 L 15.671875 20.292969 L 15.664062 20.207031 C 15.664062 20.207031 15.664062 20.203125 15.664062 20.199219 L 15.625 19.835938 L 15.621094 19.644531 C 15.617188 19.5 15.613281 19.332031 15.613281 19.242188 C 15.613281 18.882812 15.625 18.515625 15.636719 18.164062 C 15.648438 17.808594 15.660156 17.441406 15.660156 17.078125 C 15.660156 16.878906 15.640625 16.683594 15.621094 16.496094 C 15.605469 16.335938 15.589844 16.167969 15.585938 15.996094 C 15.578125 15.761719 15.605469 15.523438 15.632812 15.296875 C 15.636719 15.242188 15.644531 15.1875 15.648438 15.132812 C 15.660156 15.222656 15.671875 15.308594 15.683594 15.394531 C 15.703125 15.515625 15.71875 15.640625 15.730469 15.761719 L 15.917969 17.671875 C 15.949219 18 16.011719 18.320312 16.070312 18.632812 C 16.101562 18.785156 16.128906 18.941406 16.15625 19.101562 C 16.226562 19.523438 16.300781 19.957031 16.40625 20.382812 C 16.492188 20.738281 16.597656 21.160156 16.734375 21.582031 C 16.695312 21.585938 16.652344 21.589844 16.613281 21.59375 C 16.472656 21.609375 16.332031 21.621094 16.183594 21.59375 C 16.101562 21.582031 15.988281 21.5625 15.917969 21.644531 C 15.867188 21.703125 15.871094 21.777344 15.875 21.835938 C 15.878906 21.863281 15.878906 21.894531 15.875 21.917969 C 15.867188 21.957031 15.863281 22 15.863281 22.042969 C 15.863281 22.070312 15.859375 22.101562 15.855469 22.132812 C 15.828125 22.296875 15.980469 22.339844 16.0625 22.359375 L 16.105469 22.371094 C 16.183594 22.394531 16.246094 22.410156 16.34375 22.40625 C 16.476562 22.402344 16.613281 22.421875 16.746094 22.4375 C 16.867188 22.453125 16.988281 22.472656 17.113281 22.472656 C 17.140625 22.472656 17.171875 22.46875 17.203125 22.46875 C 17.035156 22.601562 16.859375 22.738281 16.683594 22.871094 C 16.675781 22.875 16.664062 22.886719 16.644531 22.894531 C 16.5625 22.953125 16.476562 23.019531 16.417969 23.085938 L 16.414062 23.085938 C 16.277344 23.121094 16.15625 23.203125 16.074219 23.316406 C 16.027344 23.382812 16.011719 23.441406 16.019531 23.496094 L 16.019531 23.5 C 16.019531 23.507812 16.019531 23.53125 16.015625 23.558594 C 16.007812 23.652344 16.007812 23.710938 16.015625 23.75 C 16.015625 23.765625 16.019531 23.777344 16.027344 23.789062 C 16.042969 23.8125 16.0625 23.824219 16.085938 23.835938 C 16.238281 23.921875 16.375 23.957031 16.546875 23.984375 C 16.664062 24.003906 16.78125 24.011719 16.898438 24.015625 C 17.023438 24.023438 17.144531 24.027344 17.265625 24.03125 C 17.292969 24.03125 17.316406 24.03125 17.34375 24.03125 C 17.433594 24.03125 17.515625 24.027344 17.597656 24.011719 C 17.804688 23.976562 17.984375 23.878906 18.160156 23.785156 C 18.277344 23.722656 18.398438 23.660156 18.523438 23.617188 C 18.632812 23.578125 18.75 23.554688 18.847656 23.535156 C 18.90625 23.523438 18.988281 23.507812 19.042969 23.445312 C 19.074219 23.40625 19.089844 23.359375 19.09375 23.324219 C 19.109375 23.246094 19.109375 23.160156 19.089844 23.078125 C 19.082031 23.054688 19.0625 23.039062 19.042969 23.035156 C 19.042969 23.027344 19.042969 23.015625 19.042969 23.007812 C 19.027344 22.859375 19 22.710938 18.957031 22.570312 C 18.953125 22.554688 18.945312 22.527344 18.929688 22.503906 C 18.933594 22.5 18.9375 22.496094 18.941406 22.492188 C 18.957031 22.472656 18.960938 22.449219 18.960938 22.441406 C 18.992188 22.238281 18.988281 22.039062 18.953125 21.839844 C 18.929688 21.691406 18.925781 21.570312 18.945312 21.445312 C 18.980469 21.1875 19.007812 20.925781 19.015625 20.667969 C 19.039062 20.140625 19 19.609375 18.964844 19.09375 C 18.941406 18.773438 18.890625 18.464844 18.839844 18.152344 C 18.710938 17.378906 18.578125 16.578125 18.566406 15.78125 C 18.554688 15.148438 18.621094 14.511719 18.757812 13.894531 C 18.761719 13.882812 18.757812 13.875 18.757812 13.863281 L 18.921875 13.839844 C 18.945312 13.835938 18.988281 13.828125 19.015625 13.796875 C 19.046875 13.769531 19.050781 13.726562 19.054688 13.707031 C 19.074219 13.507812 19.085938 13.3125 19.085938 13.113281 C 19.144531 13.375 19.222656 13.609375 19.320312 13.820312 C 19.332031 13.839844 19.347656 13.851562 19.367188 13.855469 C 19.371094 13.855469 19.375 13.855469 19.378906 13.855469 C 19.394531 13.855469 19.410156 13.851562 19.421875 13.839844 C 19.480469 13.78125 19.535156 13.71875 19.582031 13.648438 C 19.59375 13.632812 19.605469 13.613281 19.613281 13.589844 C 19.625 13.554688 19.621094 13.519531 19.617188 13.492188 Z M 12.539062 24.234375 C 12.539062 24.234375 12.542969 24.234375 12.546875 24.234375 C 12.566406 24.234375 12.589844 24.242188 12.601562 24.261719 C 12.601562 24.265625 12.59375 24.277344 12.574219 24.285156 C 12.535156 24.300781 12.484375 24.304688 12.433594 24.308594 C 12.425781 24.308594 12.414062 24.3125 12.40625 24.3125 C 12.449219 24.273438 12.488281 24.242188 12.539062 24.234375 Z M 17.769531 6.714844 C 17.761719 6.726562 17.757812 6.738281 17.757812 6.75 C 17.738281 6.765625 17.714844 6.777344 17.691406 6.792969 C 17.664062 6.816406 17.660156 6.855469 17.679688 6.882812 C 17.703125 6.910156 17.742188 6.914062 17.769531 6.894531 C 17.9375 6.765625 18.140625 6.691406 18.339844 6.621094 C 18.347656 6.617188 18.355469 6.613281 18.355469 6.609375 C 18.355469 6.613281 18.359375 6.621094 18.355469 6.628906 C 18.347656 6.648438 18.324219 6.667969 18.296875 6.683594 C 18.25 6.710938 18.203125 6.738281 18.160156 6.765625 C 18.046875 6.828125 17.925781 6.898438 17.832031 6.996094 C 17.753906 7.082031 17.699219 7.183594 17.644531 7.277344 C 17.597656 7.363281 17.554688 7.441406 17.496094 7.511719 C 17.484375 7.527344 17.472656 7.539062 17.460938 7.550781 C 17.421875 7.589844 17.386719 7.632812 17.359375 7.683594 C 17.324219 7.753906 17.316406 7.828125 17.308594 7.898438 C 17.210938 8.804688 17.011719 9.621094 16.710938 10.328125 C 16.683594 10.386719 16.660156 10.4375 16.621094 10.46875 C 16.550781 10.523438 16.4375 10.503906 16.34375 10.480469 C 16.019531 10.40625 15.707031 10.285156 15.414062 10.125 C 15.550781 10.058594 15.683594 9.980469 15.800781 9.882812 L 15.824219 9.867188 C 15.980469 9.738281 16.148438 9.589844 16.132812 9.457031 C 16.136719 9.453125 16.140625 9.453125 16.140625 9.449219 C 16.230469 9.3125 16.308594 9.171875 16.382812 9.03125 C 16.382812 9.03125 16.386719 9.027344 16.386719 9.023438 C 16.546875 8.707031 16.675781 8.371094 16.761719 8.019531 C 16.773438 7.96875 16.785156 7.917969 16.796875 7.867188 C 16.8125 7.796875 16.828125 7.726562 16.847656 7.65625 C 16.929688 7.351562 17.050781 7.058594 17.214844 6.792969 C 17.285156 6.675781 17.359375 6.578125 17.433594 6.492188 C 17.421875 6.515625 17.425781 6.546875 17.449219 6.5625 C 17.460938 6.574219 17.472656 6.578125 17.488281 6.578125 C 17.507812 6.578125 17.523438 6.570312 17.535156 6.554688 C 17.589844 6.492188 17.644531 6.429688 17.703125 6.367188 C 17.742188 6.328125 17.777344 6.292969 17.820312 6.269531 C 17.851562 6.253906 17.894531 6.246094 17.933594 6.238281 L 18.03125 6.21875 L 18.007812 6.226562 C 17.945312 6.246094 17.878906 6.269531 17.820312 6.308594 C 17.765625 6.351562 17.71875 6.402344 17.679688 6.449219 C 17.644531 6.488281 17.617188 6.523438 17.582031 6.550781 C 17.558594 6.574219 17.554688 6.613281 17.574219 6.640625 C 17.597656 6.664062 17.636719 6.667969 17.664062 6.648438 C 17.707031 6.613281 17.742188 6.570312 17.773438 6.53125 C 17.8125 6.484375 17.847656 6.441406 17.894531 6.410156 C 17.9375 6.378906 17.992188 6.359375 18.050781 6.34375 L 18.332031 6.246094 C 18.363281 6.234375 18.382812 6.234375 18.378906 6.238281 C 18.363281 6.292969 18.300781 6.328125 18.269531 6.34375 C 18.242188 6.355469 18.210938 6.367188 18.183594 6.378906 C 18.144531 6.390625 18.105469 6.40625 18.066406 6.425781 C 17.933594 6.492188 17.847656 6.609375 17.769531 6.714844 Z M 17.484375 9.808594 C 17.488281 9.820312 17.492188 9.835938 17.503906 9.855469 C 17.410156 9.910156 17.304688 9.953125 17.191406 9.996094 C 17.105469 10.03125 17.015625 10.070312 16.929688 10.113281 C 17.132812 9.574219 17.28125 8.980469 17.378906 8.335938 C 17.390625 8.390625 17.40625 8.441406 17.417969 8.496094 C 17.445312 8.597656 17.46875 8.691406 17.484375 8.792969 L 17.488281 8.8125 C 17.515625 8.96875 17.542969 9.132812 17.527344 9.289062 C 17.523438 9.339844 17.511719 9.394531 17.503906 9.445312 C 17.480469 9.566406 17.457031 9.6875 17.484375 9.808594 Z M 15.457031 10.605469 C 15.449219 10.597656 15.441406 10.59375 15.433594 10.589844 C 15.347656 10.566406 15.277344 10.511719 15.199219 10.449219 C 15.152344 10.414062 15.101562 10.375 15.046875 10.34375 C 15.007812 10.316406 14.960938 10.296875 14.910156 10.28125 C 15.039062 10.261719 15.164062 10.230469 15.285156 10.183594 C 15.289062 10.195312 15.296875 10.203125 15.308594 10.210938 C 15.496094 10.316406 15.691406 10.402344 15.890625 10.476562 C 15.742188 10.515625 15.589844 10.5625 15.457031 10.605469 Z M 13.691406 10.792969 C 13.691406 10.785156 13.6875 10.78125 13.6875 10.777344 C 13.691406 10.78125 13.695312 10.78125 13.699219 10.785156 C 13.695312 10.789062 13.695312 10.792969 13.691406 10.796875 Z M 13.871094 10.667969 C 13.855469 10.675781 13.839844 10.679688 13.824219 10.6875 C 13.816406 10.683594 13.808594 10.683594 13.796875 10.683594 C 13.78125 10.6875 13.761719 10.679688 13.75 10.664062 C 13.738281 10.652344 13.738281 10.628906 13.746094 10.617188 C 13.753906 10.605469 13.753906 10.59375 13.753906 10.585938 C 13.777344 10.59375 13.804688 10.605469 13.828125 10.617188 L 13.90625 10.660156 C 13.894531 10.664062 13.882812 10.664062 13.871094 10.667969 Z M 14.058594 10.621094 C 14.054688 10.605469 14.042969 10.589844 14.027344 10.582031 L 13.886719 10.507812 C 13.847656 10.484375 13.800781 10.460938 13.746094 10.453125 L 13.726562 10.449219 C 13.714844 10.445312 13.699219 10.445312 13.691406 10.441406 C 13.691406 10.4375 13.683594 10.429688 13.683594 10.402344 C 13.683594 10.378906 13.6875 10.355469 13.691406 10.335938 C 13.761719 10.40625 13.859375 10.457031 13.972656 10.476562 C 13.976562 10.476562 13.980469 10.476562 13.984375 10.476562 L 14 10.484375 C 14.011719 10.488281 14.019531 10.492188 14.027344 10.492188 C 14.035156 10.492188 14.042969 10.488281 14.050781 10.484375 C 14.097656 10.539062 14.171875 10.574219 14.269531 10.589844 C 14.261719 10.589844 14.253906 10.589844 14.246094 10.589844 C 14.1875 10.601562 14.121094 10.609375 14.058594 10.621094 Z M 15.507812 8.671875 C 15.511719 8.671875 15.515625 8.671875 15.519531 8.671875 C 15.535156 8.671875 15.550781 8.667969 15.5625 8.65625 C 15.570312 8.648438 15.574219 8.640625 15.578125 8.632812 L 15.632812 8.605469 C 15.644531 8.597656 15.652344 8.597656 15.648438 8.59375 C 15.652344 8.59375 15.65625 8.597656 15.664062 8.609375 C 15.703125 8.65625 15.738281 8.707031 15.765625 8.761719 C 15.714844 8.785156 15.65625 8.800781 15.597656 8.808594 L 15.601562 8.828125 C 15.578125 8.804688 15.558594 8.777344 15.535156 8.753906 C 15.535156 8.746094 15.53125 8.734375 15.527344 8.726562 C 15.519531 8.710938 15.503906 8.699219 15.484375 8.695312 C 15.484375 8.691406 15.480469 8.691406 15.476562 8.6875 Z M 17.882812 5.304688 L 17.949219 5.375 C 17.710938 5.542969 17.519531 5.71875 17.367188 5.914062 C 17.242188 6.070312 17.144531 6.242188 17.050781 6.414062 L 16.847656 6.304688 C 16.832031 6.292969 16.808594 6.28125 16.804688 6.269531 C 16.796875 6.25 16.8125 6.214844 16.851562 6.175781 C 16.984375 6.042969 17.132812 5.921875 17.273438 5.804688 Z M 16.804688 6.421875 L 16.988281 6.527344 C 16.980469 6.546875 16.96875 6.566406 16.960938 6.585938 L 16.894531 6.710938 C 16.890625 6.710938 16.890625 6.710938 16.886719 6.710938 C 16.867188 6.722656 16.835938 6.722656 16.808594 6.722656 L 16.617188 6.730469 L 16.65625 6.589844 C 16.660156 6.574219 16.667969 6.558594 16.671875 6.546875 C 16.679688 6.539062 16.691406 6.527344 16.707031 6.519531 L 16.785156 6.457031 C 16.796875 6.445312 16.800781 6.433594 16.804688 6.421875 Z M 16.484375 6.824219 C 16.492188 6.839844 16.511719 6.859375 16.550781 6.859375 L 16.554688 6.859375 L 16.8125 6.847656 L 16.820312 6.847656 L 16.699219 7.078125 C 16.542969 7.375 16.382812 7.679688 16.277344 8.003906 C 16.171875 8.324219 16.121094 8.675781 16.113281 9.054688 C 16.070312 9 16.035156 8.929688 16 8.863281 L 15.945312 8.761719 C 15.9375 8.738281 15.914062 8.726562 15.890625 8.726562 C 15.855469 8.65625 15.8125 8.589844 15.761719 8.53125 C 15.761719 8.527344 15.757812 8.523438 15.753906 8.519531 L 15.816406 8.527344 C 15.832031 8.382812 15.847656 8.234375 15.886719 8.09375 C 15.898438 8.050781 15.914062 8.007812 15.929688 7.964844 C 15.945312 7.921875 15.957031 7.875 15.972656 7.832031 C 15.984375 7.789062 15.992188 7.746094 16.003906 7.703125 C 16.011719 7.671875 16.019531 7.636719 16.027344 7.605469 C 16.085938 7.394531 16.183594 7.191406 16.277344 6.996094 C 16.34375 6.867188 16.417969 6.710938 16.527344 6.589844 L 16.480469 6.761719 C 16.472656 6.78125 16.476562 6.808594 16.484375 6.824219 Z M 14.8125 10.167969 C 14.707031 10.179688 14.597656 10.179688 14.496094 10.183594 L 14.410156 10.183594 C 14.230469 10.1875 14.050781 10.195312 13.875 10.214844 C 13.851562 10.136719 13.828125 10.0625 13.800781 9.992188 C 14.324219 9.808594 14.785156 9.636719 15.171875 9.320312 C 15.203125 9.296875 15.230469 9.273438 15.257812 9.25 C 15.371094 9.152344 15.476562 9.066406 15.601562 9.023438 C 15.605469 9.027344 15.613281 9.03125 15.617188 9.039062 C 15.6875 9.117188 15.761719 9.199219 15.835938 9.28125 C 15.847656 9.296875 15.871094 9.316406 15.894531 9.339844 C 15.933594 9.375 16 9.4375 16.007812 9.472656 C 16.015625 9.5 15.984375 9.574219 15.742188 9.765625 L 15.71875 9.785156 C 15.460938 10 15.136719 10.132812 14.8125 10.167969 Z M 13.71875 9.792969 L 13.988281 9.699219 C 14.226562 9.613281 14.472656 9.527344 14.683594 9.375 C 14.742188 9.335938 14.792969 9.292969 14.847656 9.25 L 14.902344 9.203125 C 15.074219 9.066406 15.257812 8.945312 15.449219 8.84375 C 15.472656 8.871094 15.492188 8.894531 15.515625 8.921875 C 15.390625 8.976562 15.28125 9.0625 15.179688 9.152344 C 15.152344 9.175781 15.125 9.199219 15.09375 9.222656 C 14.726562 9.523438 14.269531 9.695312 13.757812 9.871094 C 13.757812 9.871094 13.753906 9.875 13.753906 9.875 C 13.738281 9.847656 13.730469 9.820312 13.71875 9.792969 Z M 15.855469 8.859375 L 15.886719 8.921875 C 15.925781 8.992188 15.960938 9.066406 16.015625 9.136719 C 16.019531 9.136719 16.019531 9.140625 16.019531 9.140625 C 16.019531 9.144531 16.015625 9.148438 16.011719 9.152344 L 15.957031 9.21875 C 15.953125 9.21875 15.953125 9.21875 15.953125 9.222656 C 15.945312 9.210938 15.933594 9.203125 15.929688 9.195312 C 15.855469 9.117188 15.78125 9.035156 15.710938 8.953125 C 15.703125 8.941406 15.691406 8.929688 15.683594 8.917969 C 15.742188 8.90625 15.800781 8.886719 15.855469 8.859375 Z M 16.066406 9.332031 C 16.0625 9.328125 16.058594 9.324219 16.054688 9.320312 C 16.058594 9.308594 16.0625 9.296875 16.058594 9.289062 L 16.105469 9.234375 C 16.109375 9.230469 16.109375 9.230469 16.113281 9.226562 C 16.113281 9.238281 16.113281 9.25 16.113281 9.261719 C 16.097656 9.285156 16.082031 9.308594 16.066406 9.332031 Z M 15.363281 8.746094 C 15.175781 8.851562 14.992188 8.96875 14.824219 9.105469 L 14.765625 9.152344 C 14.714844 9.195312 14.667969 9.234375 14.613281 9.273438 C 14.414062 9.414062 14.175781 9.5 13.945312 9.582031 L 13.660156 9.683594 C 13.652344 9.667969 13.644531 9.65625 13.636719 9.640625 C 13.699219 9.609375 13.765625 9.585938 13.835938 9.566406 L 13.898438 9.546875 C 14.261719 9.429688 14.574219 9.214844 14.855469 9 L 14.890625 8.972656 C 15.027344 8.871094 15.167969 8.765625 15.324219 8.703125 C 15.339844 8.714844 15.351562 8.730469 15.363281 8.746094 Z M 14.015625 10.355469 C 14.007812 10.355469 14 10.351562 13.992188 10.351562 C 13.972656 10.347656 13.949219 10.34375 13.929688 10.335938 C 13.964844 10.332031 14 10.328125 14.035156 10.328125 C 14.027344 10.335938 14.019531 10.347656 14.015625 10.355469 Z M 16.433594 8.621094 C 16.484375 8.308594 16.574219 8.054688 16.679688 7.820312 C 16.679688 7.828125 16.675781 7.832031 16.675781 7.839844 C 16.664062 7.890625 16.652344 7.941406 16.640625 7.992188 C 16.585938 8.207031 16.515625 8.417969 16.433594 8.621094 Z M 17.761719 6.054688 C 17.757812 6.0625 17.757812 6.070312 17.753906 6.074219 C 17.515625 6.195312 17.300781 6.40625 17.109375 6.726562 C 17.050781 6.820312 17.003906 6.914062 16.953125 7.011719 C 16.953125 7.015625 16.949219 7.015625 16.949219 7.019531 C 16.898438 7.121094 16.847656 7.21875 16.792969 7.316406 C 16.546875 7.777344 16.3125 8.21875 16.265625 8.980469 C 16.257812 9 16.25 9.019531 16.238281 9.035156 C 16.246094 8.675781 16.296875 8.34375 16.394531 8.042969 C 16.496094 7.726562 16.65625 7.425781 16.808594 7.136719 L 17.070312 6.640625 C 17.1875 6.417969 17.308594 6.191406 17.464844 5.992188 C 17.609375 5.804688 17.792969 5.636719 18.023438 5.472656 C 18.082031 5.539062 18.136719 5.605469 18.191406 5.675781 C 18.015625 5.757812 17.859375 5.890625 17.761719 6.054688 Z M 15.386719 3.820312 C 15.402344 3.824219 15.414062 3.820312 15.425781 3.8125 C 15.453125 3.796875 15.464844 3.765625 15.453125 3.734375 C 15.453125 3.734375 15.457031 3.722656 15.46875 3.707031 C 15.472656 3.699219 15.480469 3.691406 15.488281 3.683594 C 15.503906 3.667969 15.519531 3.648438 15.535156 3.625 C 15.539062 3.617188 15.542969 3.613281 15.546875 3.605469 C 15.550781 3.597656 15.554688 3.589844 15.558594 3.585938 C 15.5625 3.582031 15.578125 3.574219 15.59375 3.570312 C 15.601562 3.566406 15.613281 3.566406 15.621094 3.5625 C 15.652344 3.550781 15.683594 3.527344 15.699219 3.5 C 15.75 3.5 15.796875 3.484375 15.835938 3.453125 C 15.871094 3.421875 15.898438 3.378906 15.90625 3.335938 C 15.945312 3.335938 15.988281 3.332031 16.027344 3.316406 C 16.085938 3.292969 16.128906 3.25 16.148438 3.199219 C 16.226562 3.1875 16.296875 3.144531 16.347656 3.082031 L 16.59375 3.046875 C 16.613281 3.042969 16.636719 3.039062 16.65625 3.042969 C 16.671875 3.042969 16.6875 3.050781 16.703125 3.058594 L 16.722656 3.070312 C 16.753906 3.089844 16.792969 3.109375 16.839844 3.113281 C 16.867188 3.117188 16.898438 3.113281 16.921875 3.113281 C 16.933594 3.109375 16.945312 3.109375 16.953125 3.109375 C 17.027344 3.105469 17.097656 3.140625 17.179688 3.210938 C 17.285156 3.304688 17.367188 3.417969 17.449219 3.53125 C 17.511719 3.621094 17.578125 3.714844 17.621094 3.8125 C 17.625 3.828125 17.632812 3.84375 17.640625 3.859375 C 17.652344 3.882812 17.664062 3.910156 17.671875 3.933594 C 17.667969 3.945312 17.667969 3.957031 17.671875 3.964844 C 17.671875 3.96875 17.671875 3.972656 17.675781 3.976562 C 17.671875 4.019531 17.660156 4.058594 17.652344 4.101562 C 17.648438 4.121094 17.644531 4.140625 17.640625 4.160156 C 17.636719 4.160156 17.636719 4.160156 17.632812 4.160156 C 17.613281 4.167969 17.574219 4.132812 17.554688 4.117188 C 17.453125 4.03125 17.378906 4.050781 17.347656 4.070312 C 17.339844 4.074219 17.332031 4.078125 17.332031 4.085938 C 17.328125 4.085938 17.320312 4.082031 17.316406 4.078125 C 17.296875 4.066406 17.277344 4.058594 17.25 4.054688 C 17.21875 4.050781 17.191406 4.058594 17.171875 4.066406 C 17.164062 4.070312 17.15625 4.074219 17.152344 4.074219 C 17.152344 4.074219 17.144531 4.066406 17.140625 4.066406 C 17.125 4.054688 17.097656 4.035156 17.0625 4.035156 C 17.03125 4.035156 17 4.050781 16.976562 4.0625 C 16.976562 4.0625 16.976562 4.066406 16.976562 4.066406 C 16.96875 4.058594 16.957031 4.050781 16.941406 4.042969 C 16.890625 4.023438 16.851562 4.054688 16.835938 4.070312 C 16.832031 4.070312 16.832031 4.074219 16.832031 4.074219 C 16.824219 4.070312 16.816406 4.066406 16.804688 4.0625 C 16.730469 4.042969 16.683594 4.101562 16.652344 4.136719 C 16.644531 4.148438 16.625 4.171875 16.609375 4.171875 C 16.597656 4.167969 16.578125 4.164062 16.5625 4.167969 C 16.511719 4.175781 16.484375 4.210938 16.464844 4.238281 C 16.460938 4.246094 16.453125 4.253906 16.457031 4.257812 C 16.449219 4.253906 16.4375 4.246094 16.429688 4.242188 L 16.410156 4.230469 C 16.375 4.210938 16.335938 4.199219 16.296875 4.199219 C 16.285156 4.199219 16.273438 4.199219 16.261719 4.203125 C 16.265625 4.101562 16.269531 4.003906 16.277344 3.90625 L 16.28125 3.832031 C 16.285156 3.800781 16.285156 3.761719 16.269531 3.726562 C 16.246094 3.671875 16.1875 3.640625 16.136719 3.652344 C 16.105469 3.660156 16.082031 3.679688 16.066406 3.699219 C 16.058594 3.691406 16.054688 3.679688 16.046875 3.671875 C 16.023438 3.644531 15.96875 3.605469 15.859375 3.65625 C 15.765625 3.703125 15.652344 3.757812 15.574219 3.847656 L 15.5625 3.859375 C 15.550781 3.871094 15.539062 3.882812 15.53125 3.890625 C 15.507812 3.898438 15.46875 3.882812 15.421875 3.84375 C 15.40625 3.839844 15.394531 3.828125 15.386719 3.820312 Z M 15.558594 4.289062 C 15.542969 4.195312 15.53125 4.105469 15.5625 4.03125 C 15.5625 4.023438 15.5625 4.019531 15.566406 4.011719 C 15.570312 4.011719 15.578125 4.011719 15.585938 4.007812 C 15.617188 3.992188 15.640625 3.964844 15.65625 3.945312 L 15.667969 3.933594 C 15.730469 3.863281 15.824219 3.820312 15.914062 3.773438 C 15.9375 3.761719 15.949219 3.761719 15.949219 3.757812 C 15.953125 3.761719 15.953125 3.765625 15.957031 3.769531 C 15.964844 3.792969 15.976562 3.832031 16.023438 3.851562 C 16.085938 3.875 16.128906 3.824219 16.152344 3.800781 C 16.152344 3.796875 16.15625 3.792969 16.15625 3.792969 C 16.160156 3.800781 16.15625 3.816406 16.15625 3.828125 L 16.152344 3.90625 C 16.144531 4.035156 16.136719 4.167969 16.136719 4.300781 C 16.136719 4.324219 16.152344 4.34375 16.171875 4.355469 C 16.191406 4.363281 16.21875 4.363281 16.238281 4.347656 C 16.265625 4.328125 16.3125 4.324219 16.347656 4.34375 L 16.359375 4.351562 C 16.386719 4.367188 16.425781 4.394531 16.476562 4.382812 C 16.523438 4.371094 16.546875 4.339844 16.566406 4.316406 C 16.570312 4.308594 16.578125 4.296875 16.585938 4.296875 C 16.59375 4.300781 16.605469 4.300781 16.621094 4.300781 C 16.683594 4.300781 16.722656 4.253906 16.75 4.21875 C 16.757812 4.207031 16.773438 4.191406 16.777344 4.191406 C 16.792969 4.199219 16.808594 4.207031 16.835938 4.207031 C 16.867188 4.207031 16.890625 4.191406 16.90625 4.179688 C 16.910156 4.183594 16.914062 4.183594 16.917969 4.1875 C 16.96875 4.21875 17.019531 4.191406 17.042969 4.175781 C 17.050781 4.171875 17.058594 4.167969 17.054688 4.164062 C 17.058594 4.167969 17.066406 4.171875 17.070312 4.171875 C 17.082031 4.183594 17.101562 4.195312 17.128906 4.203125 C 17.164062 4.210938 17.195312 4.199219 17.214844 4.191406 C 17.222656 4.1875 17.234375 4.183594 17.238281 4.183594 C 17.242188 4.183594 17.25 4.1875 17.257812 4.191406 C 17.28125 4.203125 17.316406 4.222656 17.363281 4.210938 C 17.378906 4.203125 17.394531 4.195312 17.410156 4.183594 C 17.414062 4.179688 17.4375 4.183594 17.476562 4.214844 C 17.507812 4.242188 17.5625 4.289062 17.625 4.292969 C 17.617188 4.492188 17.644531 4.691406 17.671875 4.886719 C 17.6875 4.996094 17.707031 5.125 17.777344 5.234375 L 17.195312 5.710938 C 17.082031 5.800781 16.96875 5.898438 16.859375 6.003906 C 16.847656 5.996094 16.835938 5.988281 16.824219 5.984375 C 16.917969 5.914062 17.003906 5.835938 17.082031 5.726562 C 17.160156 5.628906 17.226562 5.515625 17.226562 5.386719 C 17.222656 5.332031 17.210938 5.273438 17.179688 5.226562 C 17.164062 5.195312 17.125 5.1875 17.09375 5.203125 C 17.066406 5.21875 17.054688 5.257812 17.070312 5.289062 C 17.089844 5.320312 17.097656 5.355469 17.101562 5.390625 C 17.101562 5.480469 17.042969 5.570312 16.980469 5.652344 C 16.839844 5.84375 16.667969 5.941406 16.445312 6.070312 C 16.394531 6.101562 16.339844 6.136719 16.28125 6.171875 C 16.238281 6.195312 16.167969 6.175781 16.121094 6.160156 C 16.066406 6.140625 16.023438 6.101562 16.011719 6.058594 C 16.003906 6.035156 16.003906 6.003906 16.003906 5.972656 C 16.003906 5.925781 16.003906 5.871094 15.980469 5.820312 C 15.96875 5.792969 15.949219 5.769531 15.933594 5.75 C 15.921875 5.738281 15.914062 5.726562 15.90625 5.710938 C 15.898438 5.699219 15.898438 5.683594 15.894531 5.683594 C 15.914062 5.671875 15.925781 5.648438 15.925781 5.628906 C 15.925781 5.605469 15.914062 5.585938 15.894531 5.574219 C 15.871094 5.5625 15.847656 5.550781 15.820312 5.546875 C 15.8125 5.511719 15.804688 5.480469 15.792969 5.449219 C 15.789062 5.433594 15.78125 5.40625 15.753906 5.386719 C 15.71875 5.355469 15.675781 5.363281 15.648438 5.371094 C 15.644531 5.371094 15.636719 5.371094 15.632812 5.371094 C 15.625 5.371094 15.609375 5.359375 15.601562 5.34375 C 15.59375 5.320312 15.59375 5.285156 15.597656 5.253906 C 15.605469 5.113281 15.632812 4.972656 15.675781 4.835938 C 15.683594 4.816406 15.691406 4.78125 15.683594 4.746094 C 15.671875 4.699219 15.636719 4.671875 15.609375 4.652344 C 15.597656 4.648438 15.585938 4.640625 15.582031 4.632812 C 15.566406 4.617188 15.570312 4.578125 15.574219 4.542969 L 15.578125 4.511719 C 15.582031 4.433594 15.570312 4.359375 15.558594 4.289062 Z M 15.46875 5.574219 C 15.507812 5.539062 15.53125 5.503906 15.542969 5.464844 C 15.570312 5.484375 15.601562 5.496094 15.636719 5.496094 C 15.648438 5.496094 15.660156 5.492188 15.671875 5.492188 L 15.675781 5.492188 C 15.6875 5.53125 15.699219 5.570312 15.707031 5.613281 C 15.710938 5.640625 15.734375 5.660156 15.761719 5.664062 C 15.765625 5.664062 15.769531 5.664062 15.773438 5.664062 C 15.769531 5.699219 15.777344 5.742188 15.796875 5.773438 C 15.808594 5.792969 15.820312 5.8125 15.835938 5.828125 C 15.847656 5.84375 15.859375 5.859375 15.867188 5.875 C 15.878906 5.898438 15.878906 5.933594 15.878906 5.972656 C 15.878906 6.007812 15.878906 6.050781 15.890625 6.09375 C 15.914062 6.175781 15.984375 6.246094 16.078125 6.277344 C 16.125 6.292969 16.175781 6.308594 16.230469 6.308594 C 16.269531 6.308594 16.308594 6.300781 16.34375 6.277344 C 16.402344 6.242188 16.457031 6.210938 16.507812 6.179688 C 16.570312 6.144531 16.628906 6.109375 16.683594 6.074219 C 16.691406 6.082031 16.703125 6.085938 16.710938 6.085938 C 16.722656 6.089844 16.730469 6.085938 16.742188 6.082031 C 16.746094 6.085938 16.753906 6.089844 16.761719 6.09375 C 16.660156 6.195312 16.667969 6.273438 16.691406 6.324219 C 16.695312 6.335938 16.703125 6.347656 16.710938 6.355469 C 16.710938 6.359375 16.707031 6.359375 16.707031 6.359375 L 16.695312 6.367188 C 16.675781 6.34375 16.640625 6.335938 16.609375 6.351562 C 16.386719 6.492188 16.261719 6.742188 16.164062 6.945312 C 16.066406 7.144531 15.964844 7.351562 15.90625 7.574219 C 15.898438 7.609375 15.886719 7.644531 15.878906 7.679688 C 15.871094 7.71875 15.863281 7.757812 15.851562 7.796875 C 15.839844 7.839844 15.824219 7.882812 15.808594 7.925781 C 15.792969 7.972656 15.78125 8.015625 15.765625 8.0625 C 15.726562 8.199219 15.710938 8.339844 15.695312 8.480469 C 15.691406 8.476562 15.6875 8.476562 15.6875 8.476562 C 15.636719 8.460938 15.597656 8.484375 15.574219 8.496094 L 15.523438 8.523438 C 15.308594 8.296875 15.148438 8.011719 14.996094 7.738281 C 14.9375 7.632812 14.878906 7.527344 14.820312 7.425781 C 14.816406 7.421875 14.8125 7.417969 14.8125 7.417969 C 14.796875 7.1875 14.835938 6.949219 14.929688 6.734375 C 14.933594 6.761719 14.9375 6.789062 14.941406 6.816406 C 14.941406 6.847656 14.96875 6.871094 15.003906 6.871094 C 15.039062 6.871094 15.066406 6.84375 15.066406 6.8125 C 15.066406 6.722656 15.0625 6.640625 15.046875 6.554688 C 15.09375 6.519531 15.148438 6.5 15.210938 6.476562 C 15.265625 6.457031 15.324219 6.433594 15.375 6.402344 C 15.4375 6.367188 15.472656 6.320312 15.476562 6.269531 C 15.480469 6.234375 15.472656 6.203125 15.464844 6.175781 C 15.460938 6.160156 15.453125 6.144531 15.457031 6.136719 C 15.457031 6.132812 15.464844 6.121094 15.46875 6.109375 C 15.480469 6.097656 15.488281 6.085938 15.492188 6.070312 C 15.511719 6.03125 15.511719 5.980469 15.492188 5.9375 C 15.484375 5.921875 15.476562 5.90625 15.46875 5.894531 C 15.484375 5.855469 15.480469 5.800781 15.460938 5.753906 C 15.453125 5.742188 15.445312 5.726562 15.433594 5.714844 C 15.421875 5.691406 15.410156 5.671875 15.410156 5.65625 C 15.40625 5.632812 15.4375 5.605469 15.46875 5.574219 Z M 14.996094 4.957031 L 15.003906 4.96875 C 15.019531 5.015625 15.035156 5.0625 15.0625 5.105469 C 15.097656 5.160156 15.148438 5.199219 15.195312 5.234375 L 15.394531 5.386719 C 15.40625 5.394531 15.421875 5.410156 15.425781 5.417969 C 15.429688 5.429688 15.417969 5.453125 15.378906 5.488281 C 15.339844 5.527344 15.28125 5.578125 15.28125 5.65625 C 15.28125 5.707031 15.304688 5.75 15.328125 5.78125 C 15.332031 5.789062 15.339844 5.800781 15.347656 5.8125 C 15.351562 5.824219 15.351562 5.84375 15.359375 5.839844 C 15.332031 5.847656 15.3125 5.871094 15.308594 5.898438 C 15.308594 5.925781 15.324219 5.953125 15.351562 5.960938 C 15.363281 5.964844 15.371094 5.972656 15.375 5.984375 C 15.382812 5.996094 15.382812 6.011719 15.378906 6.019531 C 15.375 6.027344 15.371094 6.035156 15.363281 6.039062 C 15.351562 6.058594 15.339844 6.078125 15.332031 6.109375 C 15.320312 6.148438 15.332031 6.183594 15.34375 6.214844 C 15.347656 6.226562 15.351562 6.242188 15.351562 6.253906 C 15.351562 6.265625 15.332031 6.28125 15.308594 6.296875 C 15.265625 6.320312 15.21875 6.339844 15.167969 6.355469 C 15.117188 6.375 15.0625 6.394531 15.015625 6.425781 C 15.007812 6.390625 14.996094 6.355469 14.984375 6.320312 L 14.96875 6.28125 C 14.949219 6.230469 14.929688 6.183594 14.925781 6.136719 C 14.921875 6.066406 14.941406 5.996094 14.964844 5.921875 C 14.984375 5.867188 15.003906 5.8125 15.011719 5.753906 C 15.027344 5.640625 15.007812 5.523438 14.953125 5.40625 C 14.9375 5.371094 14.917969 5.335938 14.898438 5.300781 C 14.875 5.257812 14.851562 5.214844 14.835938 5.171875 C 14.785156 5.03125 14.800781 4.878906 14.816406 4.714844 C 14.820312 4.691406 14.824219 4.664062 14.824219 4.640625 C 14.894531 4.714844 14.949219 4.816406 14.996094 4.957031 Z M 14.597656 4.285156 C 14.625 4.273438 14.648438 4.265625 14.671875 4.253906 C 14.675781 4.253906 14.675781 4.253906 14.679688 4.25 C 14.679688 4.253906 14.683594 4.257812 14.683594 4.261719 C 14.726562 4.398438 14.710938 4.546875 14.695312 4.703125 C 14.675781 4.871094 14.65625 5.046875 14.71875 5.21875 C 14.738281 5.269531 14.765625 5.316406 14.789062 5.363281 C 14.808594 5.394531 14.824219 5.425781 14.839844 5.457031 C 14.851562 5.488281 14.863281 5.519531 14.871094 5.546875 C 14.851562 5.519531 14.832031 5.492188 14.808594 5.46875 L 14.785156 5.4375 C 14.707031 5.34375 14.660156 5.222656 14.660156 5.097656 C 14.660156 5.070312 14.664062 5.042969 14.664062 5.011719 C 14.671875 4.941406 14.675781 4.867188 14.652344 4.792969 C 14.628906 4.714844 14.589844 4.652344 14.550781 4.59375 C 14.542969 4.578125 14.53125 4.5625 14.523438 4.546875 C 14.527344 4.515625 14.53125 4.484375 14.527344 4.449219 C 14.523438 4.429688 14.507812 4.410156 14.488281 4.402344 C 14.480469 4.398438 14.46875 4.398438 14.460938 4.398438 C 14.453125 4.347656 14.480469 4.328125 14.597656 4.285156 Z M 14.261719 5.042969 C 14.265625 5.050781 14.269531 5.058594 14.273438 5.0625 C 14.25 5.089844 14.226562 5.117188 14.207031 5.144531 C 14.191406 5.164062 14.1875 5.191406 14.199219 5.214844 C 14.207031 5.230469 14.222656 5.238281 14.238281 5.242188 C 14.214844 5.285156 14.199219 5.332031 14.1875 5.378906 L 14.183594 5.398438 C 14.179688 5.425781 14.171875 5.453125 14.160156 5.46875 C 14.148438 5.480469 14.117188 5.484375 14.085938 5.488281 C 14.058594 5.492188 14.03125 5.496094 14.003906 5.507812 C 13.992188 5.496094 13.980469 5.488281 13.964844 5.488281 C 13.898438 5.480469 13.816406 5.464844 13.746094 5.4375 C 13.699219 5.417969 13.640625 5.382812 13.601562 5.328125 C 13.757812 5.296875 13.894531 5.207031 14.027344 5.113281 C 14.128906 5.039062 14.234375 4.960938 14.324219 4.871094 C 14.304688 4.910156 14.285156 4.949219 14.265625 4.988281 C 14.253906 5.007812 14.253906 5.027344 14.261719 5.042969 Z M 13.777344 4.339844 C 13.804688 4.324219 13.84375 4.320312 13.882812 4.316406 C 14.019531 4.304688 14.160156 4.308594 14.296875 4.320312 C 14.300781 4.328125 14.308594 4.332031 14.3125 4.335938 L 14.265625 4.464844 C 14.257812 4.484375 14.261719 4.503906 14.273438 4.523438 C 14.277344 4.53125 14.285156 4.539062 14.292969 4.542969 C 14.292969 4.546875 14.296875 4.546875 14.296875 4.550781 C 14.300781 4.570312 14.316406 4.585938 14.335938 4.59375 C 14.347656 4.601562 14.363281 4.601562 14.375 4.597656 C 14.367188 4.609375 14.363281 4.621094 14.355469 4.628906 C 14.261719 4.785156 14.109375 4.898438 13.949219 5.011719 C 13.839844 5.089844 13.730469 5.164062 13.613281 5.199219 C 13.617188 5.183594 13.617188 5.164062 13.609375 5.148438 C 13.597656 5.128906 13.582031 5.117188 13.5625 5.113281 C 13.558594 5.113281 13.558594 5.109375 13.558594 5.109375 C 13.554688 5.105469 13.554688 5.101562 13.550781 5.101562 C 13.566406 5.074219 13.582031 5.050781 13.601562 5.027344 C 13.613281 5.003906 13.628906 4.984375 13.644531 4.960938 C 13.648438 4.957031 13.652344 4.953125 13.65625 4.949219 C 13.664062 4.949219 13.675781 4.945312 13.683594 4.9375 C 13.703125 4.925781 13.714844 4.902344 13.722656 4.878906 C 13.730469 4.851562 13.722656 4.824219 13.699219 4.808594 C 13.695312 4.808594 13.695312 4.808594 13.691406 4.804688 L 13.6875 4.800781 C 13.695312 4.78125 13.6875 4.761719 13.675781 4.746094 C 13.660156 4.730469 13.636719 4.722656 13.617188 4.726562 C 13.617188 4.714844 13.621094 4.699219 13.621094 4.6875 C 13.628906 4.652344 13.632812 4.617188 13.640625 4.585938 C 13.65625 4.523438 13.679688 4.464844 13.710938 4.410156 C 13.734375 4.375 13.757812 4.351562 13.777344 4.339844 Z M 13.226562 8.421875 C 13.234375 8.457031 13.242188 8.496094 13.253906 8.535156 C 13.277344 8.625 13.296875 8.710938 13.292969 8.796875 C 13.289062 8.832031 13.28125 8.863281 13.273438 8.898438 C 13.261719 8.945312 13.253906 8.996094 13.253906 9.046875 C 13.253906 9.105469 13.265625 9.160156 13.277344 9.210938 C 13.285156 9.246094 13.292969 9.28125 13.296875 9.316406 C 13.300781 9.375 13.292969 9.4375 13.285156 9.5 L 13.265625 9.640625 L 13.234375 9.542969 C 13.230469 9.527344 13.21875 9.511719 13.203125 9.503906 C 13.1875 9.496094 13.167969 9.496094 13.152344 9.503906 C 13.125 9.511719 13.105469 9.535156 13.097656 9.558594 C 13.082031 9.589844 13.085938 9.625 13.097656 9.65625 C 13.109375 9.679688 13.121094 9.699219 13.136719 9.714844 C 13.140625 9.722656 13.144531 9.726562 13.152344 9.734375 C 13.179688 9.78125 13.171875 9.847656 13.167969 9.917969 C 13.15625 10.011719 13.148438 10.121094 13.222656 10.195312 C 13.230469 10.203125 13.222656 10.226562 13.207031 10.242188 C 13.183594 10.265625 13.136719 10.277344 13.097656 10.285156 L 13.082031 10.289062 C 13.191406 10.09375 13.183594 9.832031 13.042969 9.652344 C 13.023438 9.628906 13 9.605469 12.976562 9.582031 C 12.921875 9.523438 12.871094 9.464844 12.867188 9.398438 C 12.867188 9.351562 12.898438 9.308594 12.929688 9.253906 C 12.960938 9.210938 12.988281 9.164062 13.003906 9.109375 C 13.046875 8.96875 12.988281 8.808594 12.835938 8.644531 C 12.808594 8.617188 12.773438 8.589844 12.742188 8.558594 C 12.644531 8.476562 12.585938 8.417969 12.601562 8.351562 C 12.617188 8.296875 12.660156 8.25 12.710938 8.203125 C 12.773438 8.140625 12.839844 8.074219 12.855469 7.976562 C 12.875 7.84375 12.789062 7.742188 12.714844 7.65625 C 12.652344 7.585938 12.59375 7.519531 12.589844 7.445312 C 12.589844 7.378906 12.632812 7.3125 12.683594 7.242188 C 12.703125 7.210938 12.722656 7.183594 12.742188 7.152344 C 12.820312 7.015625 12.839844 6.847656 12.792969 6.707031 C 12.769531 6.636719 12.730469 6.574219 12.695312 6.511719 C 12.652344 6.445312 12.613281 6.382812 12.597656 6.3125 C 12.570312 6.191406 12.621094 6.066406 12.671875 5.933594 C 12.703125 5.855469 12.730469 5.777344 12.75 5.695312 C 12.773438 5.585938 12.769531 5.472656 12.769531 5.363281 C 12.765625 5.246094 12.761719 5.132812 12.789062 5.027344 C 12.8125 4.949219 12.851562 4.867188 12.921875 4.761719 C 13.019531 4.617188 13.109375 4.519531 13.214844 4.457031 C 13.335938 4.378906 13.46875 4.355469 13.585938 4.382812 C 13.554688 4.4375 13.53125 4.5 13.515625 4.558594 C 13.507812 4.59375 13.5 4.632812 13.496094 4.671875 C 13.484375 4.75 13.472656 4.824219 13.433594 4.882812 C 13.421875 4.898438 13.417969 4.921875 13.425781 4.941406 C 13.417969 4.953125 13.414062 4.964844 13.40625 4.976562 C 13.394531 5 13.398438 5.03125 13.417969 5.050781 C 13.421875 5.054688 13.421875 5.054688 13.425781 5.058594 C 13.417969 5.070312 13.40625 5.085938 13.398438 5.097656 C 13.386719 5.113281 13.382812 5.132812 13.386719 5.152344 C 13.394531 5.171875 13.40625 5.183594 13.421875 5.191406 C 13.425781 5.195312 13.433594 5.195312 13.4375 5.199219 C 13.4375 5.207031 13.441406 5.214844 13.445312 5.222656 C 13.445312 5.226562 13.449219 5.230469 13.453125 5.234375 C 13.449219 5.246094 13.445312 5.257812 13.445312 5.269531 C 13.441406 5.289062 13.445312 5.308594 13.457031 5.320312 C 13.460938 5.324219 13.464844 5.328125 13.46875 5.332031 C 13.464844 5.363281 13.476562 5.390625 13.496094 5.40625 C 13.542969 5.46875 13.609375 5.519531 13.695312 5.554688 C 13.753906 5.582031 13.820312 5.59375 13.878906 5.605469 C 13.800781 5.710938 13.800781 5.824219 13.804688 5.929688 L 13.808594 6.273438 C 13.808594 6.351562 13.808594 6.433594 13.785156 6.503906 C 13.777344 6.539062 13.757812 6.570312 13.738281 6.609375 C 13.710938 6.660156 13.683594 6.71875 13.671875 6.78125 C 13.660156 6.847656 13.667969 6.910156 13.675781 6.96875 C 13.683594 7.015625 13.6875 7.058594 13.683594 7.101562 C 13.675781 7.21875 13.59375 7.316406 13.507812 7.417969 C 13.480469 7.453125 13.453125 7.484375 13.425781 7.519531 C 13.238281 7.769531 13.164062 8.109375 13.226562 8.421875 Z M 13.53125 7.589844 C 13.554688 7.558594 13.578125 7.527344 13.605469 7.492188 C 13.699219 7.378906 13.796875 7.261719 13.8125 7.105469 C 13.816406 7.050781 13.808594 7 13.804688 6.949219 C 13.796875 6.898438 13.789062 6.847656 13.796875 6.800781 C 13.804688 6.753906 13.828125 6.707031 13.855469 6.660156 C 13.875 6.621094 13.894531 6.582031 13.910156 6.539062 C 13.9375 6.445312 13.9375 6.351562 13.9375 6.269531 L 13.933594 6.03125 C 13.957031 6.066406 13.988281 6.101562 14.027344 6.125 C 14.0625 6.148438 14.101562 6.160156 14.136719 6.175781 C 14.164062 6.183594 14.1875 6.195312 14.210938 6.207031 L 14.226562 6.21875 C 14.257812 6.238281 14.296875 6.261719 14.339844 6.261719 C 14.351562 6.261719 14.367188 6.257812 14.378906 6.253906 C 14.449219 6.230469 14.476562 6.15625 14.484375 6.121094 C 14.496094 6.089844 14.476562 6.054688 14.445312 6.042969 C 14.410156 6.035156 14.375 6.050781 14.367188 6.085938 C 14.351562 6.128906 14.34375 6.132812 14.34375 6.132812 C 14.335938 6.136719 14.304688 6.117188 14.292969 6.109375 L 14.273438 6.097656 C 14.242188 6.078125 14.207031 6.066406 14.175781 6.054688 C 14.148438 6.046875 14.117188 6.035156 14.097656 6.019531 C 14.042969 5.988281 14.007812 5.917969 13.976562 5.859375 C 13.96875 5.839844 13.953125 5.828125 13.933594 5.824219 C 13.9375 5.765625 13.949219 5.71875 13.984375 5.671875 C 14.003906 5.648438 14.019531 5.632812 14.035156 5.625 C 14.050781 5.617188 14.074219 5.613281 14.101562 5.613281 C 14.148438 5.605469 14.203125 5.601562 14.25 5.554688 C 14.289062 5.515625 14.300781 5.464844 14.308594 5.421875 L 14.3125 5.402344 C 14.328125 5.332031 14.363281 5.261719 14.414062 5.210938 C 14.433594 5.191406 14.4375 5.164062 14.425781 5.136719 C 14.421875 5.125 14.410156 5.117188 14.398438 5.109375 C 14.410156 5.097656 14.417969 5.089844 14.429688 5.078125 C 14.441406 5.0625 14.449219 5.039062 14.441406 5.019531 C 14.4375 5 14.425781 4.988281 14.410156 4.980469 C 14.445312 4.910156 14.476562 4.835938 14.507812 4.765625 C 14.515625 4.785156 14.527344 4.804688 14.53125 4.824219 C 14.53125 4.824219 14.53125 4.828125 14.53125 4.828125 C 14.550781 4.878906 14.546875 4.941406 14.539062 5.003906 C 14.539062 5.035156 14.535156 5.066406 14.535156 5.097656 C 14.539062 5.25 14.589844 5.398438 14.6875 5.515625 C 14.699219 5.53125 14.707031 5.539062 14.714844 5.550781 C 14.742188 5.582031 14.765625 5.609375 14.777344 5.636719 C 14.796875 5.6875 14.789062 5.75 14.75 5.839844 L 14.738281 5.875 C 14.707031 5.949219 14.675781 6.023438 14.675781 6.109375 C 14.679688 6.222656 14.734375 6.308594 14.789062 6.394531 C 14.804688 6.417969 14.816406 6.4375 14.828125 6.460938 C 14.847656 6.492188 14.863281 6.523438 14.875 6.558594 C 14.867188 6.578125 14.855469 6.597656 14.847656 6.613281 C 14.710938 6.882812 14.65625 7.191406 14.691406 7.488281 C 14.691406 7.519531 14.714844 7.539062 14.742188 7.542969 C 14.789062 7.628906 14.839844 7.710938 14.886719 7.796875 C 15.039062 8.070312 15.191406 8.351562 15.40625 8.582031 L 15.394531 8.589844 C 15.34375 8.527344 15.292969 8.46875 15.242188 8.40625 C 15.230469 8.390625 15.203125 8.359375 15.160156 8.355469 L 15.148438 8.355469 C 15.121094 8.316406 15.09375 8.277344 15.0625 8.238281 C 14.828125 7.921875 14.566406 7.5625 14.230469 7.386719 C 14.15625 7.347656 14.0625 7.308594 13.960938 7.316406 C 13.925781 7.316406 13.898438 7.347656 13.902344 7.382812 C 13.90625 7.417969 13.933594 7.441406 13.96875 7.441406 C 14.039062 7.433594 14.113281 7.46875 14.171875 7.496094 C 14.480469 7.660156 14.738281 8.007812 14.960938 8.3125 C 14.988281 8.347656 15.011719 8.378906 15.035156 8.410156 C 14.527344 8.75 13.984375 9.042969 13.417969 9.273438 C 13.414062 9.242188 13.410156 9.210938 13.402344 9.183594 C 13.390625 9.136719 13.382812 9.089844 13.382812 9.046875 C 13.382812 9.007812 13.390625 8.96875 13.398438 8.921875 C 13.40625 8.886719 13.417969 8.847656 13.417969 8.808594 C 13.429688 8.703125 13.402344 8.601562 13.378906 8.503906 C 13.371094 8.46875 13.359375 8.429688 13.351562 8.394531 C 13.292969 8.117188 13.363281 7.816406 13.53125 7.589844 Z M 15.144531 8.484375 C 15.175781 8.523438 15.207031 8.5625 15.242188 8.601562 C 15.085938 8.671875 14.949219 8.769531 14.816406 8.871094 L 14.78125 8.898438 C 14.507812 9.105469 14.207031 9.316406 13.863281 9.425781 L 13.800781 9.445312 C 13.726562 9.46875 13.648438 9.492188 13.578125 9.53125 C 13.550781 9.476562 13.519531 9.425781 13.492188 9.378906 C 14.074219 9.140625 14.628906 8.839844 15.144531 8.484375 Z M 13.738281 10.1875 C 13.71875 10.152344 13.707031 10.117188 13.703125 10.082031 C 13.714844 10.117188 13.726562 10.152344 13.738281 10.1875 Z M 13.625 10.875 L 13.632812 10.875 C 13.648438 10.875 13.660156 10.867188 13.671875 10.859375 C 13.667969 10.878906 13.667969 10.902344 13.671875 10.921875 C 13.671875 10.925781 13.675781 10.929688 13.679688 10.9375 C 13.675781 10.9375 13.671875 10.933594 13.667969 10.933594 C 13.648438 10.9375 13.625 10.921875 13.621094 10.902344 C 13.617188 10.894531 13.621094 10.882812 13.625 10.875 Z M 14.582031 11.601562 C 14.558594 11.597656 14.53125 11.597656 14.507812 11.59375 C 14.453125 11.585938 14.398438 11.578125 14.339844 11.578125 C 14.289062 11.578125 14.234375 11.585938 14.1875 11.597656 C 14.152344 11.601562 14.121094 11.605469 14.085938 11.609375 C 14.027344 11.613281 13.945312 11.613281 13.894531 11.566406 C 13.890625 11.5625 13.886719 11.558594 13.882812 11.550781 C 13.898438 11.535156 13.898438 11.515625 13.890625 11.492188 C 13.953125 11.488281 14.019531 11.480469 14.078125 11.472656 C 14.195312 11.453125 14.304688 11.4375 14.414062 11.453125 C 14.449219 11.457031 14.480469 11.433594 14.484375 11.402344 C 14.492188 11.367188 14.46875 11.335938 14.433594 11.328125 C 14.304688 11.3125 14.179688 11.328125 14.058594 11.347656 C 13.921875 11.367188 13.792969 11.386719 13.667969 11.351562 C 13.667969 11.351562 13.660156 11.347656 13.65625 11.347656 C 13.734375 11.3125 13.816406 11.289062 13.898438 11.273438 C 13.917969 11.273438 13.929688 11.261719 13.941406 11.246094 C 14.046875 11.242188 14.148438 11.234375 14.253906 11.226562 C 14.285156 11.222656 14.3125 11.191406 14.308594 11.15625 C 14.304688 11.121094 14.277344 11.097656 14.242188 11.097656 C 14.066406 11.117188 13.886719 11.128906 13.710938 11.136719 C 13.675781 11.140625 13.648438 11.140625 13.628906 11.128906 C 13.625 11.128906 13.621094 11.125 13.617188 11.121094 L 13.617188 11.117188 C 13.621094 11.117188 13.625 11.113281 13.640625 11.105469 C 13.828125 11.019531 14.046875 10.984375 14.25 11.007812 C 14.285156 11.015625 14.316406 10.988281 14.320312 10.953125 C 14.324219 10.921875 14.300781 10.890625 14.265625 10.886719 C 14.113281 10.867188 13.957031 10.878906 13.808594 10.917969 C 13.808594 10.914062 13.804688 10.914062 13.800781 10.910156 C 13.796875 10.90625 13.796875 10.902344 13.792969 10.894531 C 13.792969 10.882812 13.796875 10.863281 13.804688 10.851562 C 13.824219 10.820312 13.871094 10.800781 13.910156 10.789062 C 14.023438 10.75 14.148438 10.734375 14.265625 10.714844 C 14.429688 10.691406 14.601562 10.667969 14.757812 10.59375 C 14.789062 10.578125 14.800781 10.539062 14.785156 10.507812 C 14.773438 10.476562 14.734375 10.464844 14.703125 10.480469 C 14.675781 10.492188 14.644531 10.503906 14.617188 10.515625 C 14.539062 10.476562 14.457031 10.472656 14.378906 10.472656 L 14.335938 10.472656 C 14.242188 10.46875 14.179688 10.445312 14.140625 10.402344 C 14.148438 10.398438 14.15625 10.398438 14.164062 10.394531 C 14.316406 10.371094 14.457031 10.347656 14.589844 10.351562 C 14.746094 10.355469 14.878906 10.386719 14.984375 10.449219 C 15.03125 10.476562 15.074219 10.511719 15.121094 10.550781 C 15.183594 10.597656 15.242188 10.644531 15.316406 10.679688 C 15.3125 10.6875 15.3125 10.695312 15.3125 10.703125 C 15.339844 10.929688 15.410156 11.15625 15.515625 11.359375 C 15.234375 11.496094 14.910156 11.632812 14.582031 11.601562 Z M 15.4375 15.75 C 15.4375 15.746094 15.4375 15.738281 15.433594 15.730469 C 15.4375 15.484375 15.445312 15.238281 15.453125 14.996094 C 15.472656 14.46875 15.496094 13.921875 15.4375 13.382812 C 15.429688 13.300781 15.417969 13.21875 15.410156 13.136719 C 15.386719 12.960938 15.363281 12.777344 15.359375 12.597656 C 15.359375 12.472656 15.367188 12.34375 15.371094 12.21875 C 15.386719 12.007812 15.398438 11.785156 15.363281 11.570312 C 15.4375 11.539062 15.507812 11.503906 15.578125 11.472656 C 15.601562 11.507812 15.621094 11.546875 15.644531 11.582031 C 15.660156 11.605469 15.671875 11.628906 15.6875 11.652344 C 15.683594 11.660156 15.683594 11.671875 15.683594 11.683594 C 15.71875 11.988281 15.597656 12.945312 15.519531 13.460938 C 15.484375 13.707031 15.507812 13.957031 15.527344 14.199219 C 15.542969 14.332031 15.554688 14.472656 15.554688 14.605469 C 15.558594 14.832031 15.535156 15.058594 15.507812 15.28125 C 15.480469 15.515625 15.453125 15.757812 15.460938 15.996094 C 15.464844 16.175781 15.480469 16.34375 15.496094 16.507812 C 15.515625 16.691406 15.535156 16.882812 15.535156 17.078125 C 15.535156 17.4375 15.523438 17.804688 15.511719 18.15625 C 15.507812 18.285156 15.503906 18.417969 15.5 18.550781 C 15.464844 18.175781 15.425781 17.796875 15.414062 17.417969 C 15.394531 16.863281 15.414062 16.300781 15.4375 15.75 Z M 15.65625 14.210938 C 15.65625 14.203125 15.65625 14.195312 15.652344 14.1875 C 15.632812 13.972656 15.617188 13.773438 15.636719 13.574219 C 15.652344 13.78125 15.660156 14.003906 15.65625 14.210938 Z M 16.527344 20.351562 C 16.425781 19.933594 16.351562 19.5 16.28125 19.078125 C 16.253906 18.917969 16.226562 18.765625 16.195312 18.609375 C 16.136719 18.300781 16.074219 17.980469 16.042969 17.660156 L 15.859375 15.75 C 15.847656 15.625 15.828125 15.5 15.808594 15.378906 C 15.769531 15.09375 15.726562 14.800781 15.761719 14.519531 C 15.8125 14.082031 15.765625 13.46875 15.699219 13.078125 C 15.734375 12.816406 15.777344 12.476562 15.796875 12.183594 C 15.804688 12.265625 15.808594 12.347656 15.808594 12.429688 C 15.808594 12.507812 15.808594 12.585938 15.804688 12.664062 C 15.800781 12.761719 15.796875 12.863281 15.800781 12.960938 L 15.800781 12.96875 C 15.800781 13.015625 15.804688 13.0625 15.808594 13.105469 C 15.808594 13.109375 15.808594 13.113281 15.8125 13.117188 C 15.820312 13.257812 15.828125 13.398438 15.835938 13.535156 C 15.855469 13.980469 15.875 14.441406 16.003906 14.882812 C 16.074219 15.117188 16.160156 15.351562 16.246094 15.578125 L 16.304688 15.738281 C 16.46875 16.179688 16.617188 16.636719 16.75 17.089844 C 16.75 17.089844 16.753906 17.089844 16.753906 17.089844 C 16.796875 17.320312 16.851562 17.550781 16.925781 17.777344 C 17.101562 18.304688 17.28125 18.851562 17.386719 19.40625 C 17.464844 19.824219 17.503906 20.257812 17.539062 20.675781 C 17.539062 20.886719 17.480469 21.035156 17.421875 21.179688 L 17.410156 21.210938 C 17.398438 21.214844 17.386719 21.21875 17.375 21.226562 C 17.292969 21.3125 17.203125 21.386719 17.105469 21.449219 C 17.027344 21.5 16.953125 21.535156 16.882812 21.554688 C 16.875 21.558594 16.867188 21.558594 16.859375 21.5625 C 16.722656 21.136719 16.617188 20.710938 16.527344 20.351562 Z M 17.566406 21.398438 C 17.546875 21.367188 17.527344 21.332031 17.507812 21.296875 C 17.511719 21.292969 17.515625 21.289062 17.515625 21.285156 L 17.539062 21.222656 C 17.550781 21.199219 17.558594 21.171875 17.570312 21.144531 C 17.574219 21.230469 17.570312 21.3125 17.566406 21.398438 Z M 16.015625 21.726562 C 16.039062 21.695312 16.105469 21.707031 16.171875 21.71875 C 16.328125 21.746094 16.480469 21.734375 16.625 21.71875 C 16.722656 21.710938 16.820312 21.703125 16.917969 21.675781 C 17 21.648438 17.085938 21.609375 17.175781 21.554688 C 17.257812 21.5 17.332031 21.441406 17.40625 21.375 C 17.441406 21.441406 17.484375 21.503906 17.53125 21.566406 C 17.539062 21.574219 17.542969 21.578125 17.550781 21.582031 C 17.542969 21.648438 17.53125 21.714844 17.519531 21.78125 C 17.519531 21.792969 17.519531 21.800781 17.515625 21.808594 C 17.472656 21.835938 17.421875 21.855469 17.371094 21.867188 C 17.074219 21.957031 16.75 21.988281 16.410156 21.957031 C 16.289062 21.945312 16.136719 21.921875 16.003906 21.855469 C 16.003906 21.84375 16.003906 21.835938 16.003906 21.824219 C 16 21.777344 15.996094 21.746094 16.015625 21.726562 Z M 16.765625 22.3125 C 16.625 22.292969 16.480469 22.273438 16.335938 22.28125 C 16.261719 22.285156 16.210938 22.273438 16.140625 22.25 L 16.09375 22.238281 C 15.976562 22.207031 15.972656 22.1875 15.980469 22.152344 C 15.984375 22.117188 15.988281 22.082031 15.988281 22.046875 C 15.988281 22.027344 15.988281 22.003906 15.992188 21.988281 C 16.132812 22.046875 16.28125 22.070312 16.398438 22.082031 C 16.488281 22.089844 16.578125 22.09375 16.667969 22.09375 C 16.925781 22.09375 17.171875 22.058594 17.40625 21.988281 C 17.433594 21.980469 17.464844 21.972656 17.492188 21.960938 C 17.484375 22.007812 17.480469 22.058594 17.476562 22.109375 C 17.472656 22.136719 17.472656 22.167969 17.484375 22.199219 C 17.488281 22.214844 17.496094 22.222656 17.503906 22.234375 C 17.46875 22.257812 17.433594 22.28125 17.398438 22.308594 C 17.390625 22.308594 17.378906 22.308594 17.367188 22.308594 C 17.175781 22.371094 16.976562 22.34375 16.765625 22.3125 Z M 16.71875 23 C 16.734375 22.988281 16.746094 22.980469 16.757812 22.972656 C 16.972656 22.8125 17.183594 22.648438 17.386719 22.484375 L 17.398438 22.472656 C 17.464844 22.417969 17.53125 22.363281 17.597656 22.320312 C 17.601562 22.316406 17.601562 22.316406 17.601562 22.316406 C 17.628906 22.332031 17.652344 22.347656 17.675781 22.363281 C 17.792969 22.441406 17.886719 22.550781 17.945312 22.675781 C 17.957031 22.691406 17.957031 22.699219 17.957031 22.703125 C 17.957031 22.707031 17.941406 22.722656 17.9375 22.730469 C 17.867188 22.808594 17.792969 22.890625 17.710938 22.960938 C 17.609375 23.046875 17.480469 23.121094 17.308594 23.199219 C 17.148438 23.269531 17.011719 23.308594 16.890625 23.324219 C 16.796875 23.335938 16.625 23.34375 16.515625 23.28125 C 16.5 23.269531 16.476562 23.253906 16.476562 23.238281 C 16.472656 23.167969 16.65625 23.039062 16.71875 23 Z M 18.058594 22.617188 C 18.035156 22.566406 18 22.519531 17.96875 22.472656 C 18.160156 22.523438 18.363281 22.535156 18.550781 22.535156 L 18.308594 22.667969 C 18.222656 22.714844 18.144531 22.753906 18.070312 22.757812 C 18.074219 22.746094 18.078125 22.730469 18.082031 22.71875 C 18.085938 22.679688 18.074219 22.648438 18.058594 22.617188 Z M 16.175781 23.390625 C 16.21875 23.328125 16.28125 23.277344 16.351562 23.246094 C 16.355469 23.285156 16.375 23.34375 16.457031 23.390625 C 16.542969 23.441406 16.65625 23.457031 16.761719 23.457031 C 16.8125 23.457031 16.859375 23.453125 16.90625 23.449219 C 17.042969 23.433594 17.1875 23.390625 17.363281 23.3125 C 17.542969 23.234375 17.679688 23.152344 17.792969 23.058594 C 17.863281 23 17.921875 22.9375 17.976562 22.871094 C 17.984375 22.875 17.992188 22.878906 18 22.878906 C 18.140625 22.90625 18.273438 22.832031 18.371094 22.777344 L 18.757812 22.566406 C 18.769531 22.558594 18.792969 22.546875 18.800781 22.546875 C 18.804688 22.546875 18.816406 22.550781 18.835938 22.609375 C 18.875 22.742188 18.902344 22.882812 18.914062 23.019531 C 18.914062 23.035156 18.917969 23.054688 18.914062 23.0625 C 18.90625 23.078125 18.867188 23.09375 18.851562 23.097656 C 18.777344 23.121094 18.699219 23.144531 18.621094 23.164062 C 18.453125 23.207031 18.28125 23.253906 18.128906 23.347656 C 18.082031 23.378906 18.039062 23.410156 17.996094 23.441406 C 17.949219 23.476562 17.910156 23.507812 17.867188 23.535156 C 17.714844 23.625 17.53125 23.664062 17.359375 23.6875 C 17.113281 23.726562 16.925781 23.734375 16.753906 23.71875 C 16.539062 23.695312 16.351562 23.636719 16.199219 23.535156 C 16.175781 23.519531 16.148438 23.5 16.144531 23.476562 C 16.136719 23.457031 16.148438 23.425781 16.175781 23.390625 Z M 18.972656 23.179688 C 18.976562 23.21875 18.976562 23.261719 18.96875 23.300781 C 18.964844 23.332031 18.957031 23.351562 18.945312 23.363281 C 18.917969 23.394531 18.867188 23.402344 18.824219 23.410156 C 18.71875 23.429688 18.597656 23.457031 18.480469 23.496094 C 18.347656 23.546875 18.222656 23.613281 18.101562 23.675781 C 17.925781 23.769531 17.761719 23.859375 17.574219 23.890625 C 17.480469 23.90625 17.386719 23.910156 17.269531 23.90625 C 17.148438 23.90625 17.023438 23.898438 16.902344 23.890625 C 16.792969 23.886719 16.675781 23.882812 16.566406 23.863281 C 16.40625 23.835938 16.28125 23.804688 16.144531 23.726562 L 16.136719 23.722656 C 16.136719 23.707031 16.136719 23.675781 16.136719 23.644531 C 16.304688 23.753906 16.511719 23.820312 16.746094 23.84375 C 16.804688 23.847656 16.863281 23.851562 16.925781 23.851562 C 17.058594 23.851562 17.203125 23.835938 17.378906 23.8125 C 17.5625 23.785156 17.761719 23.742188 17.933594 23.640625 C 17.980469 23.609375 18.027344 23.574219 18.074219 23.542969 C 18.113281 23.511719 18.152344 23.480469 18.195312 23.453125 C 18.332031 23.367188 18.488281 23.328125 18.652344 23.285156 C 18.734375 23.261719 18.816406 23.242188 18.894531 23.214844 C 18.921875 23.207031 18.949219 23.195312 18.972656 23.179688 Z M 18.4375 15.78125 C 18.453125 16.589844 18.585938 17.394531 18.714844 18.171875 C 18.765625 18.484375 18.816406 18.785156 18.835938 19.105469 C 18.871094 19.613281 18.910156 20.140625 18.890625 20.660156 C 18.878906 20.917969 18.855469 21.175781 18.816406 21.429688 C 18.796875 21.566406 18.800781 21.699219 18.828125 21.859375 C 18.859375 22.039062 18.863281 22.222656 18.835938 22.40625 C 18.414062 22.421875 18.035156 22.414062 17.726562 22.246094 C 17.710938 22.234375 17.695312 22.222656 17.679688 22.214844 C 17.671875 22.207031 17.660156 22.203125 17.644531 22.195312 C 17.640625 22.195312 17.636719 22.191406 17.632812 22.191406 C 17.625 22.183594 17.605469 22.167969 17.597656 22.15625 C 17.597656 22.148438 17.597656 22.132812 17.597656 22.121094 C 17.605469 22.015625 17.625 21.910156 17.640625 21.804688 C 17.65625 21.71875 17.671875 21.628906 17.683594 21.539062 C 17.710938 21.269531 17.691406 20.996094 17.667969 20.730469 C 17.632812 20.289062 17.59375 19.832031 17.507812 19.382812 C 17.402344 18.820312 17.21875 18.269531 17.042969 17.734375 C 16.902344 17.316406 16.835938 16.871094 16.769531 16.429688 C 16.757812 16.339844 16.742188 16.246094 16.730469 16.15625 C 16.710938 15.992188 16.6875 15.820312 16.65625 15.65625 C 16.625 15.507812 16.589844 15.355469 16.554688 15.214844 C 16.480469 14.902344 16.402344 14.578125 16.402344 14.253906 C 16.402344 14.222656 16.375 14.191406 16.339844 14.191406 C 16.304688 14.191406 16.277344 14.222656 16.277344 14.253906 C 16.277344 14.59375 16.359375 14.921875 16.433594 15.242188 C 16.46875 15.386719 16.503906 15.53125 16.53125 15.679688 C 16.5625 15.839844 16.585938 16.007812 16.605469 16.171875 C 16.609375 16.199219 16.613281 16.230469 16.617188 16.261719 C 16.554688 16.070312 16.492188 15.882812 16.421875 15.695312 L 16.363281 15.535156 C 16.277344 15.3125 16.191406 15.078125 16.125 14.847656 C 16.007812 14.449219 15.980469 14.023438 15.960938 13.613281 C 15.992188 13.664062 16.023438 13.714844 16.058594 13.757812 C 16.207031 13.957031 16.425781 14.089844 16.652344 14.128906 C 16.707031 14.136719 16.761719 14.140625 16.8125 14.140625 C 16.929688 14.140625 17.046875 14.125 17.160156 14.105469 L 18.628906 13.886719 C 18.492188 14.507812 18.429688 15.144531 18.4375 15.78125 Z M 19.492188 13.554688 C 19.492188 13.558594 19.484375 13.570312 19.480469 13.578125 C 19.453125 13.613281 19.425781 13.648438 19.394531 13.683594 C 19.199219 13.222656 19.09375 12.652344 19.070312 11.890625 C 19.070312 11.890625 19.070312 11.886719 19.070312 11.886719 C 19.0625 11.535156 19.042969 11.183594 19.003906 10.835938 C 19 10.800781 18.96875 10.773438 18.933594 10.777344 C 18.902344 10.78125 18.875 10.8125 18.878906 10.847656 C 18.945312 11.449219 18.953125 12.066406 18.957031 12.660156 C 18.960938 13 18.964844 13.351562 18.925781 13.691406 C 18.925781 13.695312 18.921875 13.710938 18.925781 13.710938 C 18.921875 13.710938 18.90625 13.714844 18.902344 13.714844 L 17.144531 13.980469 C 16.988281 14.003906 16.828125 14.027344 16.675781 14.003906 C 16.480469 13.972656 16.289062 13.855469 16.15625 13.679688 C 16.039062 13.523438 15.960938 13.324219 15.9375 13.101562 C 15.933594 13.054688 15.929688 13.007812 15.925781 12.960938 C 15.921875 12.863281 15.925781 12.761719 15.929688 12.667969 C 15.933594 12.585938 15.9375 12.507812 15.9375 12.425781 C 15.933594 12.277344 15.921875 12.125 15.90625 11.980469 C 15.910156 11.976562 15.910156 11.976562 15.914062 11.976562 L 16.808594 11.632812 C 17.09375 11.605469 17.382812 11.617188 17.664062 11.625 C 17.820312 11.632812 17.980469 11.640625 18.140625 11.640625 C 18.199219 11.640625 18.257812 11.636719 18.320312 11.636719 C 18.347656 11.636719 18.394531 11.632812 18.433594 11.601562 C 18.480469 11.5625 18.480469 11.5 18.484375 11.46875 C 18.484375 11.402344 18.492188 11.304688 18.5 11.207031 C 18.507812 11.121094 18.515625 11.035156 18.515625 10.972656 C 18.578125 10.945312 18.636719 10.914062 18.6875 10.867188 C 18.789062 10.773438 18.835938 10.640625 18.871094 10.515625 C 19.054688 9.902344 19.160156 9.265625 19.183594 8.628906 C 19.1875 8.589844 19.183594 8.550781 19.183594 8.511719 C 19.183594 8.453125 19.179688 8.398438 19.191406 8.339844 C 19.199219 8.292969 19.210938 8.25 19.222656 8.203125 C 19.234375 8.160156 19.25 8.117188 19.257812 8.074219 C 19.28125 7.949219 19.28125 7.824219 19.28125 7.714844 C 19.269531 7.417969 19.234375 7.183594 19.160156 6.972656 C 19.148438 6.9375 19.113281 6.921875 19.082031 6.933594 C 19.046875 6.941406 19.03125 6.980469 19.042969 7.011719 C 19.109375 7.210938 19.144531 7.433594 19.15625 7.71875 C 19.15625 7.820312 19.15625 7.9375 19.136719 8.046875 C 19.125 8.085938 19.117188 8.125 19.105469 8.167969 C 19.089844 8.214844 19.074219 8.265625 19.066406 8.316406 C 19.054688 8.386719 19.054688 8.453125 19.058594 8.515625 C 19.058594 8.550781 19.0625 8.585938 19.058594 8.625 C 19.035156 9.25 18.929688 9.875 18.75 10.476562 C 18.71875 10.59375 18.679688 10.699219 18.601562 10.773438 C 18.542969 10.828125 18.464844 10.859375 18.386719 10.890625 L 16.777344 11.511719 C 16.769531 11.511719 16.761719 11.515625 16.753906 11.519531 L 15.925781 11.839844 C 15.882812 11.722656 15.816406 11.617188 15.75 11.515625 C 15.71875 11.460938 15.683594 11.40625 15.652344 11.351562 C 15.546875 11.164062 15.476562 10.953125 15.445312 10.738281 C 15.640625 10.675781 15.902344 10.59375 16.121094 10.550781 C 16.183594 10.570312 16.25 10.589844 16.3125 10.605469 C 16.371094 10.617188 16.433594 10.628906 16.492188 10.628906 C 16.566406 10.628906 16.636719 10.613281 16.699219 10.566406 C 16.761719 10.519531 16.792969 10.449219 16.824219 10.378906 C 16.832031 10.355469 16.84375 10.332031 16.851562 10.308594 C 16.960938 10.226562 17.101562 10.171875 17.238281 10.113281 C 17.359375 10.066406 17.480469 10.019531 17.585938 9.953125 C 17.597656 9.945312 17.609375 9.9375 17.617188 9.9375 C 17.625 9.9375 17.644531 9.941406 17.652344 9.941406 C 17.703125 9.957031 17.753906 9.980469 17.800781 10.007812 C 17.859375 10.046875 17.914062 10.089844 17.960938 10.140625 C 17.984375 10.167969 18.027344 10.167969 18.050781 10.144531 C 18.074219 10.121094 18.078125 10.082031 18.054688 10.058594 C 18 9.996094 17.9375 9.941406 17.867188 9.902344 C 17.785156 9.847656 17.699219 9.804688 17.605469 9.773438 C 17.585938 9.675781 17.605469 9.578125 17.625 9.472656 C 17.636719 9.414062 17.644531 9.359375 17.652344 9.300781 C 17.667969 9.128906 17.640625 8.960938 17.613281 8.792969 L 17.609375 8.773438 C 17.59375 8.664062 17.566406 8.566406 17.539062 8.464844 C 17.484375 8.261719 17.433594 8.0625 17.453125 7.792969 C 17.457031 7.777344 17.460938 7.757812 17.472656 7.738281 C 17.488281 7.703125 17.519531 7.671875 17.550781 7.636719 C 17.5625 7.621094 17.578125 7.609375 17.589844 7.59375 C 17.65625 7.515625 17.707031 7.425781 17.753906 7.339844 C 17.804688 7.246094 17.855469 7.15625 17.925781 7.082031 C 18.003906 6.996094 18.109375 6.9375 18.21875 6.875 C 18.269531 6.847656 18.316406 6.816406 18.363281 6.789062 C 18.410156 6.757812 18.453125 6.726562 18.472656 6.671875 C 18.488281 6.632812 18.484375 6.585938 18.464844 6.546875 C 18.445312 6.515625 18.414062 6.496094 18.382812 6.488281 C 18.34375 6.484375 18.316406 6.496094 18.296875 6.503906 C 18.207031 6.535156 18.117188 6.570312 18.027344 6.609375 C 18.058594 6.582031 18.089844 6.554688 18.125 6.535156 C 18.15625 6.519531 18.191406 6.507812 18.226562 6.496094 C 18.257812 6.484375 18.289062 6.472656 18.320312 6.457031 C 18.417969 6.414062 18.480469 6.347656 18.5 6.269531 C 18.507812 6.234375 18.507812 6.207031 18.496094 6.179688 C 18.476562 6.140625 18.4375 6.117188 18.390625 6.113281 C 18.367188 6.082031 18.332031 6.058594 18.292969 6.050781 C 18.265625 6.046875 18.242188 6.046875 18.21875 6.050781 C 18.207031 6.019531 18.1875 5.992188 18.15625 5.976562 C 18.097656 5.949219 18.03125 5.96875 17.992188 5.980469 C 17.988281 5.984375 17.980469 5.988281 17.972656 5.988281 C 18.0625 5.894531 18.171875 5.820312 18.292969 5.773438 C 18.292969 5.777344 18.296875 5.78125 18.300781 5.785156 C 18.570312 6.03125 18.847656 6.28125 19.035156 6.601562 C 19.339844 7.128906 19.34375 7.792969 19.320312 8.242188 C 19.3125 8.402344 19.300781 8.566406 19.285156 8.726562 C 19.253906 9.136719 19.21875 9.5625 19.265625 9.980469 C 19.320312 10.496094 19.347656 11.023438 19.375 11.53125 C 19.394531 11.929688 19.414062 12.339844 19.449219 12.746094 C 19.460938 12.851562 19.460938 12.957031 19.464844 13.0625 C 19.46875 13.210938 19.476562 13.363281 19.496094 13.515625 C 19.492188 13.527344 19.496094 13.546875 19.492188 13.554688 Z M 17.175781 11.492188 L 18.390625 11.023438 C 18.386719 11.074219 18.382812 11.136719 18.375 11.195312 C 18.367188 11.296875 18.359375 11.398438 18.359375 11.460938 C 18.355469 11.496094 18.351562 11.503906 18.351562 11.507812 C 18.34375 11.511719 18.320312 11.511719 18.3125 11.511719 C 18.101562 11.519531 17.882812 11.511719 17.667969 11.5 C 17.507812 11.496094 17.339844 11.492188 17.175781 11.492188 Z M 17.175781 11.492188 "/><path style=" stroke:none;fill-rule:nonzero;fill:#442a28;fill-opacity:1;" d="M 16.796875 4.613281 C 16.832031 4.621094 16.863281 4.597656 16.871094 4.566406 C 16.882812 4.519531 16.902344 4.476562 16.933594 4.449219 C 16.964844 4.421875 17.003906 4.410156 17.039062 4.414062 C 17.105469 4.421875 17.152344 4.496094 17.164062 4.5625 C 17.175781 4.636719 17.15625 4.714844 17.125 4.8125 C 17.109375 4.855469 17.089844 4.910156 17.066406 4.957031 C 17.054688 4.980469 17.042969 5.003906 17.027344 5.015625 C 17.015625 5.019531 17.003906 5.019531 17 5.019531 C 16.996094 5.015625 16.988281 4.992188 16.984375 4.972656 C 16.980469 4.957031 16.976562 4.941406 16.972656 4.925781 C 16.960938 4.894531 16.925781 4.875 16.890625 4.886719 C 16.859375 4.898438 16.84375 4.9375 16.855469 4.96875 C 16.859375 4.980469 16.859375 4.992188 16.863281 5.003906 C 16.871094 5.039062 16.882812 5.089844 16.929688 5.125 C 16.953125 5.140625 16.976562 5.148438 17.007812 5.148438 C 17.039062 5.148438 17.070312 5.136719 17.097656 5.117188 C 17.136719 5.089844 17.160156 5.050781 17.179688 5.015625 C 17.207031 4.960938 17.226562 4.902344 17.246094 4.855469 C 17.277344 4.753906 17.304688 4.648438 17.289062 4.542969 C 17.265625 4.410156 17.171875 4.308594 17.058594 4.292969 C 16.984375 4.28125 16.90625 4.308594 16.851562 4.359375 C 16.800781 4.402344 16.765625 4.46875 16.75 4.539062 C 16.742188 4.574219 16.761719 4.605469 16.796875 4.613281 Z M 16.796875 4.613281 "/></g></svg>