<svg xmlns="http://www.w3.org/2000/svg" xmlns:xlink="http://www.w3.org/1999/xlink" width="1123" zoomAndPan="magnify" viewBox="0 0 842.25 595.499986" height="794" preserveAspectRatio="xMidYMid meet" version="1.2"><defs><clipPath id="aafa592833"><path d="M 585 0.015625 L 670 0.015625 L 670 81 L 585 81 Z M 585 0.015625 "/></clipPath><clipPath id="49c458f269"><path d="M 456 65 L 725.804688 65 L 725.804688 594.984375 L 456 594.984375 Z M 456 65 "/></clipPath></defs><g id="dc92ff5f50"><path style=" stroke:none;fill-rule:nonzero;fill:#6b3406;fill-opacity:1;" d="M 662.855469 401.277344 C 662.128906 401.277344 661.402344 401.242188 660.675781 401.167969 C 659.949219 401.097656 659.230469 400.992188 658.515625 400.847656 C 657.800781 400.707031 657.097656 400.53125 656.398438 400.320312 C 655.703125 400.105469 655.015625 399.863281 654.34375 399.582031 C 653.671875 399.304688 653.011719 398.992188 652.371094 398.648438 C 651.730469 398.308594 651.105469 397.933594 650.5 397.527344 C 649.894531 397.125 649.308594 396.691406 648.746094 396.226562 C 648.183594 395.765625 647.644531 395.277344 647.128906 394.761719 C 646.613281 394.246094 646.125 393.707031 645.664062 393.144531 C 645.199219 392.582031 644.765625 391.996094 644.363281 391.390625 C 643.957031 390.785156 643.582031 390.160156 643.238281 389.519531 C 642.898438 388.875 642.585938 388.21875 642.308594 387.546875 C 642.027344 386.871094 641.78125 386.1875 641.570312 385.492188 C 641.359375 384.792969 641.183594 384.085938 641.042969 383.375 C 640.898438 382.660156 640.792969 381.9375 640.722656 381.214844 C 640.648438 380.488281 640.613281 379.761719 640.613281 379.035156 C 640.613281 378.304688 640.648438 377.578125 640.722656 376.855469 C 640.792969 376.128906 640.898438 375.410156 641.042969 374.695312 C 641.183594 373.980469 641.359375 373.273438 641.570312 372.578125 C 641.78125 371.878906 642.027344 371.195312 642.308594 370.523438 C 642.585938 369.847656 642.898438 369.191406 643.238281 368.550781 C 643.582031 367.90625 643.957031 367.28125 644.363281 366.675781 C 644.765625 366.070312 645.199219 365.488281 645.664062 364.921875 C 646.125 364.359375 646.613281 363.820312 647.128906 363.304688 C 647.644531 362.792969 648.183594 362.300781 648.746094 361.839844 C 649.308594 361.378906 649.894531 360.945312 650.5 360.539062 C 651.105469 360.136719 651.730469 359.761719 652.371094 359.417969 C 653.011719 359.074219 653.671875 358.761719 654.34375 358.484375 C 655.015625 358.207031 655.703125 357.960938 656.398438 357.75 C 657.097656 357.539062 657.800781 357.359375 658.515625 357.21875 C 659.230469 357.078125 659.949219 356.96875 660.675781 356.898438 C 661.402344 356.828125 662.128906 356.792969 662.855469 356.792969 C 663.585938 356.792969 664.3125 356.828125 665.035156 356.898438 C 665.761719 356.96875 666.480469 357.078125 667.195312 357.21875 C 667.910156 357.359375 668.617188 357.539062 669.3125 357.75 C 670.011719 357.960938 670.695312 358.207031 671.367188 358.484375 C 672.042969 358.761719 672.699219 359.074219 673.339844 359.417969 C 673.984375 359.761719 674.609375 360.136719 675.214844 360.539062 C 675.820312 360.945312 676.402344 361.378906 676.964844 361.839844 C 677.53125 362.300781 678.070312 362.792969 678.585938 363.304688 C 679.097656 363.820312 679.585938 364.359375 680.050781 364.921875 C 680.511719 365.488281 680.945312 366.070312 681.351562 366.675781 C 681.753906 367.28125 682.128906 367.90625 682.472656 368.550781 C 682.816406 369.191406 683.125 369.847656 683.40625 370.523438 C 683.683594 371.195312 683.929688 371.878906 684.140625 372.578125 C 684.351562 373.273438 684.53125 373.980469 684.671875 374.695312 C 684.8125 375.410156 684.921875 376.128906 684.992188 376.855469 C 685.0625 377.578125 685.097656 378.304688 685.097656 379.035156 C 685.097656 379.761719 685.0625 380.488281 684.992188 381.214844 C 684.921875 381.9375 684.8125 382.660156 684.671875 383.375 C 684.53125 384.085938 684.351562 384.792969 684.140625 385.492188 C 683.929688 386.1875 683.683594 386.871094 683.40625 387.546875 C 683.128906 388.21875 682.816406 388.875 682.472656 389.519531 C 682.128906 390.160156 681.753906 390.785156 681.351562 391.390625 C 680.945312 391.996094 680.511719 392.582031 680.050781 393.144531 C 679.585938 393.707031 679.097656 394.246094 678.585938 394.761719 C 678.070312 395.277344 677.53125 395.765625 676.964844 396.226562 C 676.402344 396.691406 675.820312 397.125 675.214844 397.527344 C 674.609375 397.933594 673.984375 398.308594 673.339844 398.648438 C 672.699219 398.992188 672.042969 399.304688 671.367188 399.582031 C 670.695312 399.863281 670.011719 400.105469 669.3125 400.320312 C 668.617188 400.53125 667.910156 400.707031 667.195312 400.847656 C 666.480469 400.992188 665.761719 401.097656 665.035156 401.167969 C 664.3125 401.242188 663.585938 401.277344 662.855469 401.277344 Z M 662.855469 372.359375 C 662.371094 372.359375 661.886719 372.410156 661.410156 372.503906 C 660.933594 372.597656 660.46875 372.738281 660.019531 372.925781 C 659.570312 373.113281 659.140625 373.339844 658.738281 373.609375 C 658.332031 373.882812 657.957031 374.1875 657.613281 374.53125 C 657.269531 374.878906 656.960938 375.25 656.691406 375.65625 C 656.421875 376.0625 656.191406 376.488281 656.007812 376.9375 C 655.820312 377.386719 655.679688 377.851562 655.585938 378.328125 C 655.488281 378.804688 655.441406 379.289062 655.441406 379.777344 C 655.441406 380.261719 655.488281 380.746094 655.585938 381.222656 C 655.679688 381.699219 655.820312 382.164062 656.007812 382.613281 C 656.191406 383.0625 656.421875 383.488281 656.691406 383.894531 C 656.960938 384.300781 657.269531 384.671875 657.613281 385.019531 C 657.957031 385.363281 658.332031 385.667969 658.738281 385.941406 C 659.140625 386.210938 659.570312 386.4375 660.019531 386.625 C 660.46875 386.8125 660.933594 386.953125 661.410156 387.046875 C 661.886719 387.140625 662.371094 387.191406 662.855469 387.191406 C 663.34375 387.191406 663.824219 387.140625 664.300781 387.046875 C 664.78125 386.953125 665.242188 386.8125 665.695312 386.625 C 666.144531 386.4375 666.570312 386.210938 666.976562 385.941406 C 667.378906 385.667969 667.753906 385.363281 668.097656 385.019531 C 668.441406 384.671875 668.75 384.300781 669.019531 383.894531 C 669.292969 383.488281 669.519531 383.0625 669.707031 382.613281 C 669.890625 382.164062 670.03125 381.699219 670.128906 381.222656 C 670.222656 380.746094 670.269531 380.261719 670.269531 379.777344 C 670.269531 379.289062 670.222656 378.804688 670.128906 378.328125 C 670.03125 377.851562 669.890625 377.386719 669.707031 376.9375 C 669.519531 376.488281 669.292969 376.0625 669.019531 375.65625 C 668.75 375.25 668.441406 374.878906 668.097656 374.53125 C 667.753906 374.1875 667.378906 373.882812 666.976562 373.609375 C 666.570312 373.339844 666.144531 373.113281 665.695312 372.925781 C 665.242188 372.738281 664.78125 372.597656 664.300781 372.503906 C 663.824219 372.410156 663.34375 372.359375 662.855469 372.359375 Z M 662.855469 372.359375 "/><path style=" stroke:none;fill-rule:nonzero;fill:#6b3406;fill-opacity:1;" d="M 169.589844 461.332031 C 168.863281 461.332031 168.136719 461.296875 167.410156 461.222656 C 166.6875 461.152344 165.964844 461.046875 165.25 460.902344 C 164.539062 460.761719 163.832031 460.585938 163.132812 460.375 C 162.4375 460.160156 161.753906 459.917969 161.078125 459.636719 C 160.40625 459.359375 159.75 459.046875 159.105469 458.703125 C 158.464844 458.363281 157.839844 457.988281 157.234375 457.582031 C 156.628906 457.179688 156.042969 456.746094 155.480469 456.28125 C 154.917969 455.820312 154.378906 455.332031 153.863281 454.816406 C 153.347656 454.300781 152.859375 453.761719 152.398438 453.199219 C 151.933594 452.636719 151.5 452.050781 151.097656 451.445312 C 150.691406 450.839844 150.320312 450.214844 149.976562 449.574219 C 149.632812 448.929688 149.320312 448.273438 149.042969 447.601562 C 148.761719 446.925781 148.519531 446.242188 148.304688 445.546875 C 148.09375 444.847656 147.917969 444.140625 147.777344 443.429688 C 147.632812 442.714844 147.527344 441.992188 147.457031 441.269531 C 147.382812 440.542969 147.347656 439.816406 147.347656 439.089844 C 147.347656 438.359375 147.382812 437.632812 147.457031 436.910156 C 147.527344 436.183594 147.632812 435.464844 147.777344 434.75 C 147.917969 434.035156 148.09375 433.328125 148.304688 432.632812 C 148.519531 431.933594 148.761719 431.25 149.042969 430.578125 C 149.320312 429.902344 149.632812 429.246094 149.976562 428.605469 C 150.320312 427.960938 150.691406 427.335938 151.097656 426.730469 C 151.5 426.125 151.933594 425.542969 152.398438 424.976562 C 152.859375 424.414062 153.347656 423.875 153.863281 423.359375 C 154.378906 422.847656 154.917969 422.355469 155.480469 421.894531 C 156.042969 421.433594 156.628906 421 157.234375 420.59375 C 157.839844 420.191406 158.464844 419.816406 159.105469 419.472656 C 159.75 419.128906 160.40625 418.816406 161.078125 418.539062 C 161.753906 418.261719 162.4375 418.015625 163.132812 417.804688 C 163.832031 417.59375 164.539062 417.414062 165.25 417.273438 C 165.964844 417.132812 166.6875 417.023438 167.410156 416.953125 C 168.136719 416.882812 168.863281 416.847656 169.589844 416.847656 C 170.320312 416.847656 171.046875 416.882812 171.769531 416.953125 C 172.496094 417.023438 173.214844 417.132812 173.929688 417.273438 C 174.644531 417.414062 175.351562 417.59375 176.046875 417.804688 C 176.746094 418.015625 177.429688 418.261719 178.101562 418.539062 C 178.777344 418.816406 179.433594 419.128906 180.078125 419.472656 C 180.71875 419.816406 181.34375 420.191406 181.949219 420.59375 C 182.554688 421 183.136719 421.433594 183.703125 421.894531 C 184.265625 422.355469 184.804688 422.847656 185.320312 423.359375 C 185.835938 423.875 186.324219 424.414062 186.785156 424.976562 C 187.246094 425.542969 187.679688 426.125 188.085938 426.730469 C 188.488281 427.335938 188.863281 427.960938 189.207031 428.605469 C 189.550781 429.246094 189.863281 429.902344 190.140625 430.578125 C 190.417969 431.25 190.664062 431.933594 190.875 432.632812 C 191.085938 433.328125 191.265625 434.035156 191.40625 434.75 C 191.546875 435.464844 191.65625 436.183594 191.726562 436.910156 C 191.796875 437.632812 191.832031 438.359375 191.832031 439.089844 C 191.832031 439.816406 191.796875 440.542969 191.726562 441.269531 C 191.65625 441.992188 191.546875 442.714844 191.40625 443.429688 C 191.265625 444.140625 191.085938 444.847656 190.875 445.546875 C 190.664062 446.242188 190.417969 446.925781 190.140625 447.601562 C 189.863281 448.273438 189.550781 448.929688 189.207031 449.574219 C 188.863281 450.214844 188.488281 450.839844 188.085938 451.445312 C 187.679688 452.050781 187.246094 452.636719 186.785156 453.199219 C 186.324219 453.761719 185.835938 454.300781 185.320312 454.816406 C 184.804688 455.332031 184.265625 455.820312 183.703125 456.28125 C 183.136719 456.746094 182.554688 457.179688 181.949219 457.582031 C 181.34375 457.988281 180.71875 458.363281 180.078125 458.703125 C 179.433594 459.046875 178.777344 459.359375 178.101562 459.636719 C 177.429688 459.917969 176.746094 460.160156 176.046875 460.375 C 175.351562 460.585938 174.644531 460.761719 173.929688 460.902344 C 173.214844 461.046875 172.496094 461.152344 171.769531 461.222656 C 171.046875 461.296875 170.320312 461.332031 169.589844 461.332031 Z M 169.589844 432.417969 C 169.105469 432.417969 168.621094 432.464844 168.144531 432.558594 C 167.667969 432.652344 167.203125 432.792969 166.753906 432.980469 C 166.304688 433.167969 165.875 433.394531 165.472656 433.664062 C 165.066406 433.9375 164.691406 434.242188 164.347656 434.585938 C 164.003906 434.933594 163.695312 435.304688 163.425781 435.710938 C 163.15625 436.117188 162.925781 436.542969 162.742188 436.992188 C 162.554688 437.441406 162.414062 437.90625 162.320312 438.382812 C 162.222656 438.859375 162.175781 439.34375 162.175781 439.832031 C 162.175781 440.316406 162.222656 440.800781 162.320312 441.277344 C 162.414062 441.753906 162.554688 442.21875 162.742188 442.667969 C 162.925781 443.117188 163.15625 443.542969 163.425781 443.949219 C 163.695312 444.355469 164.003906 444.730469 164.347656 445.074219 C 164.691406 445.417969 165.066406 445.722656 165.472656 445.996094 C 165.875 446.265625 166.304688 446.492188 166.753906 446.679688 C 167.203125 446.867188 167.667969 447.007812 168.144531 447.101562 C 168.621094 447.195312 169.105469 447.246094 169.589844 447.246094 C 170.078125 447.246094 170.558594 447.195312 171.039062 447.101562 C 171.515625 447.007812 171.980469 446.867188 172.429688 446.679688 C 172.878906 446.492188 173.304688 446.265625 173.710938 445.996094 C 174.113281 445.722656 174.488281 445.417969 174.832031 445.074219 C 175.179688 444.730469 175.484375 444.355469 175.753906 443.949219 C 176.027344 443.542969 176.253906 443.117188 176.441406 442.667969 C 176.628906 442.21875 176.769531 441.753906 176.863281 441.277344 C 176.957031 440.800781 177.003906 440.316406 177.003906 439.832031 C 177.03125 439.328125 177.003906 438.828125 176.929688 438.332031 C 176.851562 437.835938 176.726562 437.351562 176.550781 436.878906 C 176.375 436.40625 176.15625 435.957031 175.890625 435.53125 C 175.621094 435.105469 175.316406 434.710938 174.96875 434.347656 C 174.621094 433.980469 174.242188 433.65625 173.828125 433.371094 C 173.417969 433.082031 172.980469 432.839844 172.515625 432.644531 C 172.054688 432.445312 171.578125 432.296875 171.085938 432.195312 C 170.589844 432.09375 170.09375 432.042969 169.589844 432.046875 Z M 169.589844 432.417969 "/><path style=" stroke:none;fill-rule:nonzero;fill:#6b3406;fill-opacity:1;" d="M 413.664062 335.289062 C 413.179688 335.289062 412.695312 335.242188 412.21875 335.148438 C 411.742188 335.054688 411.277344 334.914062 410.828125 334.726562 C 410.378906 334.539062 409.953125 334.3125 409.546875 334.039062 C 409.140625 333.769531 408.765625 333.464844 408.421875 333.117188 C 408.078125 332.773438 407.773438 332.398438 407.5 331.996094 C 407.230469 331.589844 407.003906 331.164062 406.816406 330.714844 C 406.628906 330.261719 406.488281 329.800781 406.394531 329.324219 C 406.300781 328.84375 406.25 328.363281 406.25 327.875 L 406.25 298.21875 C 406.25 297.734375 406.300781 297.25 406.394531 296.773438 C 406.488281 296.296875 406.628906 295.832031 406.816406 295.382812 C 407.003906 294.933594 407.230469 294.503906 407.5 294.101562 C 407.773438 293.695312 408.078125 293.320312 408.421875 292.976562 C 408.765625 292.632812 409.140625 292.324219 409.546875 292.054688 C 409.953125 291.785156 410.378906 291.554688 410.828125 291.371094 C 411.277344 291.183594 411.742188 291.042969 412.21875 290.949219 C 412.695312 290.851562 413.179688 290.804688 413.664062 290.804688 C 414.152344 290.804688 414.636719 290.851562 415.113281 290.949219 C 415.589844 291.042969 416.054688 291.183594 416.503906 291.371094 C 416.953125 291.554688 417.378906 291.785156 417.785156 292.054688 C 418.191406 292.324219 418.5625 292.632812 418.910156 292.976562 C 419.253906 293.320312 419.558594 293.695312 419.832031 294.101562 C 420.101562 294.503906 420.328125 294.933594 420.515625 295.382812 C 420.703125 295.832031 420.84375 296.296875 420.9375 296.773438 C 421.03125 297.25 421.078125 297.734375 421.078125 298.21875 L 421.078125 327.875 C 421.078125 328.363281 421.03125 328.84375 420.9375 329.324219 C 420.84375 329.800781 420.703125 330.261719 420.515625 330.714844 C 420.328125 331.164062 420.101562 331.589844 419.832031 331.996094 C 419.558594 332.398438 419.253906 332.773438 418.910156 333.117188 C 418.5625 333.464844 418.191406 333.769531 417.785156 334.039062 C 417.378906 334.3125 416.953125 334.539062 416.503906 334.726562 C 416.054688 334.914062 415.589844 335.054688 415.113281 335.148438 C 414.636719 335.242188 414.152344 335.289062 413.664062 335.289062 Z M 413.664062 335.289062 "/><path style=" stroke:none;fill-rule:nonzero;fill:#6b3406;fill-opacity:1;" d="M 428.496094 320.460938 L 398.835938 320.460938 C 398.351562 320.460938 397.867188 320.414062 397.390625 320.320312 C 396.914062 320.222656 396.449219 320.082031 396 319.898438 C 395.550781 319.710938 395.125 319.484375 394.71875 319.210938 C 394.3125 318.941406 393.9375 318.632812 393.59375 318.289062 C 393.25 317.945312 392.941406 317.570312 392.671875 317.167969 C 392.402344 316.761719 392.175781 316.335938 391.988281 315.886719 C 391.800781 315.433594 391.660156 314.972656 391.566406 314.496094 C 391.472656 314.015625 391.421875 313.535156 391.421875 313.046875 C 391.421875 312.5625 391.472656 312.078125 391.566406 311.601562 C 391.660156 311.125 391.800781 310.660156 391.988281 310.210938 C 392.175781 309.761719 392.402344 309.332031 392.671875 308.929688 C 392.941406 308.523438 393.25 308.148438 393.59375 307.804688 C 393.9375 307.460938 394.3125 307.152344 394.71875 306.882812 C 395.125 306.613281 395.550781 306.382812 396 306.199219 C 396.449219 306.011719 396.914062 305.871094 397.390625 305.777344 C 397.867188 305.679688 398.351562 305.632812 398.835938 305.632812 L 428.496094 305.632812 C 428.980469 305.632812 429.464844 305.679688 429.941406 305.777344 C 430.417969 305.871094 430.882812 306.011719 431.332031 306.199219 C 431.78125 306.382812 432.207031 306.613281 432.613281 306.882812 C 433.019531 307.152344 433.390625 307.460938 433.738281 307.804688 C 434.082031 308.148438 434.386719 308.523438 434.660156 308.929688 C 434.929688 309.332031 435.15625 309.761719 435.34375 310.210938 C 435.53125 310.660156 435.671875 311.125 435.765625 311.601562 C 435.859375 312.078125 435.910156 312.5625 435.910156 313.046875 C 435.910156 313.535156 435.859375 314.015625 435.765625 314.496094 C 435.671875 314.972656 435.53125 315.433594 435.34375 315.886719 C 435.15625 316.335938 434.929688 316.761719 434.660156 317.167969 C 434.386719 317.570312 434.082031 317.945312 433.738281 318.289062 C 433.390625 318.632812 433.019531 318.941406 432.613281 319.210938 C 432.207031 319.484375 431.78125 319.710938 431.332031 319.898438 C 430.882812 320.082031 430.417969 320.222656 429.941406 320.320312 C 429.464844 320.414062 428.980469 320.460938 428.496094 320.460938 Z M 428.496094 320.460938 "/><path style=" stroke:none;fill-rule:nonzero;fill:#6b3406;fill-opacity:1;" d="M 373.777344 51.773438 C 373.289062 51.773438 372.808594 51.726562 372.332031 51.628906 C 371.855469 51.535156 371.390625 51.394531 370.941406 51.207031 C 370.492188 51.023438 370.0625 50.792969 369.660156 50.523438 C 369.253906 50.253906 368.878906 49.945312 368.535156 49.601562 C 368.191406 49.257812 367.882812 48.882812 367.613281 48.476562 C 367.34375 48.074219 367.113281 47.644531 366.929688 47.195312 C 366.742188 46.746094 366.601562 46.28125 366.503906 45.804688 C 366.410156 45.328125 366.363281 44.84375 366.363281 44.359375 L 366.363281 14.703125 C 366.363281 14.214844 366.410156 13.730469 366.503906 13.253906 C 366.601562 12.777344 366.742188 12.3125 366.929688 11.863281 C 367.113281 11.414062 367.34375 10.988281 367.613281 10.582031 C 367.882812 10.175781 368.191406 9.804688 368.535156 9.457031 C 368.878906 9.113281 369.253906 8.808594 369.660156 8.535156 C 370.0625 8.265625 370.492188 8.039062 370.941406 7.851562 C 371.390625 7.664062 371.855469 7.523438 372.332031 7.429688 C 372.808594 7.335938 373.289062 7.289062 373.777344 7.289062 C 374.265625 7.289062 374.746094 7.335938 375.222656 7.429688 C 375.703125 7.523438 376.164062 7.664062 376.613281 7.851562 C 377.066406 8.039062 377.492188 8.265625 377.898438 8.535156 C 378.300781 8.808594 378.675781 9.113281 379.019531 9.457031 C 379.363281 9.804688 379.671875 10.175781 379.941406 10.582031 C 380.210938 10.988281 380.441406 11.414062 380.628906 11.863281 C 380.8125 12.3125 380.953125 12.777344 381.050781 13.253906 C 381.144531 13.730469 381.191406 14.214844 381.191406 14.703125 L 381.191406 44.359375 C 381.191406 44.84375 381.144531 45.328125 381.050781 45.804688 C 380.953125 46.28125 380.8125 46.746094 380.628906 47.195312 C 380.441406 47.644531 380.210938 48.074219 379.941406 48.476562 C 379.671875 48.882812 379.363281 49.257812 379.019531 49.601562 C 378.675781 49.945312 378.300781 50.253906 377.898438 50.523438 C 377.492188 50.792969 377.066406 51.023438 376.613281 51.207031 C 376.164062 51.394531 375.703125 51.535156 375.222656 51.628906 C 374.746094 51.726562 374.265625 51.773438 373.777344 51.773438 Z M 373.777344 51.773438 "/><path style=" stroke:none;fill-rule:nonzero;fill:#6b3406;fill-opacity:1;" d="M 388.605469 36.945312 L 358.949219 36.945312 C 358.460938 36.945312 357.980469 36.894531 357.503906 36.800781 C 357.023438 36.707031 356.5625 36.566406 356.113281 36.378906 C 355.664062 36.191406 355.234375 35.964844 354.832031 35.695312 C 354.425781 35.425781 354.050781 35.117188 353.707031 34.773438 C 353.363281 34.429688 353.054688 34.054688 352.785156 33.648438 C 352.515625 33.242188 352.285156 32.816406 352.097656 32.367188 C 351.914062 31.917969 351.773438 31.453125 351.675781 30.976562 C 351.582031 30.5 351.535156 30.015625 351.535156 29.53125 C 351.535156 29.042969 351.582031 28.5625 351.675781 28.082031 C 351.773438 27.605469 351.914062 27.140625 352.097656 26.691406 C 352.285156 26.242188 352.515625 25.816406 352.785156 25.410156 C 353.054688 25.007812 353.363281 24.632812 353.707031 24.289062 C 354.050781 23.941406 354.425781 23.636719 354.832031 23.363281 C 355.234375 23.09375 355.664062 22.867188 356.113281 22.679688 C 356.5625 22.492188 357.023438 22.351562 357.503906 22.257812 C 357.980469 22.164062 358.460938 22.117188 358.949219 22.117188 L 388.605469 22.117188 C 389.09375 22.117188 389.574219 22.164062 390.050781 22.257812 C 390.53125 22.351562 390.992188 22.492188 391.441406 22.679688 C 391.894531 22.867188 392.320312 23.09375 392.726562 23.363281 C 393.128906 23.636719 393.503906 23.941406 393.847656 24.289062 C 394.191406 24.632812 394.5 25.007812 394.769531 25.410156 C 395.039062 25.816406 395.269531 26.242188 395.457031 26.691406 C 395.640625 27.140625 395.78125 27.605469 395.878906 28.082031 C 395.972656 28.5625 396.019531 29.042969 396.019531 29.53125 C 396.019531 30.015625 395.972656 30.5 395.878906 30.976562 C 395.78125 31.453125 395.640625 31.917969 395.457031 32.367188 C 395.269531 32.816406 395.042969 33.242188 394.769531 33.648438 C 394.5 34.054688 394.191406 34.429688 393.847656 34.773438 C 393.503906 35.117188 393.128906 35.425781 392.726562 35.695312 C 392.320312 35.964844 391.894531 36.191406 391.441406 36.378906 C 390.992188 36.566406 390.53125 36.707031 390.050781 36.800781 C 389.574219 36.894531 389.09375 36.945312 388.605469 36.945312 Z M 388.605469 36.945312 "/><g clip-rule="nonzero" clip-path="url(#aafa592833)"><path style=" stroke:none;fill-rule:nonzero;fill:#6b3406;fill-opacity:1;" d="M 661.816406 80.761719 C 661.390625 80.769531 660.964844 80.742188 660.542969 80.679688 C 660.117188 80.617188 659.703125 80.515625 659.296875 80.378906 C 658.894531 80.242188 658.5 80.074219 658.125 79.871094 C 657.75 79.667969 657.394531 79.433594 657.058594 79.167969 C 656.722656 78.902344 656.410156 78.609375 656.125 78.289062 C 655.839844 77.972656 655.585938 77.628906 655.359375 77.265625 C 655.132812 76.902344 654.941406 76.523438 654.78125 76.128906 C 654.617188 75.730469 654.492188 75.324219 654.402344 74.90625 C 654.042969 73.460938 653.59375 72.042969 653.0625 70.652344 C 652.527344 69.257812 651.914062 67.90625 651.214844 66.589844 C 650.519531 65.273438 649.746094 64.003906 648.898438 62.777344 C 648.046875 61.554688 647.125 60.386719 646.136719 59.273438 C 645.144531 58.160156 644.09375 57.113281 642.976562 56.125 C 641.859375 55.140625 640.6875 54.226562 639.457031 53.382812 C 638.230469 52.535156 636.957031 51.769531 635.636719 51.078125 C 634.316406 50.386719 632.960938 49.777344 631.570312 49.25 C 632.105469 51.078125 632.375 52.945312 632.375 54.847656 C 632.375 56.753906 632.105469 58.621094 631.570312 60.445312 C 631.089844 61.929688 630.441406 63.332031 629.625 64.65625 C 628.808594 65.980469 627.84375 67.1875 626.734375 68.28125 C 625.621094 69.371094 624.398438 70.3125 623.058594 71.109375 C 621.71875 71.902344 620.304688 72.523438 618.816406 72.976562 C 617.058594 73.527344 615.257812 73.863281 613.417969 73.984375 C 611.578125 74.109375 609.75 74.015625 607.933594 73.707031 C 606.117188 73.398438 604.363281 72.882812 602.667969 72.15625 C 600.972656 71.429688 599.386719 70.519531 597.90625 69.417969 C 596.519531 68.453125 595.265625 67.335938 594.144531 66.070312 C 593.023438 64.804688 592.070312 63.421875 591.28125 61.921875 C 590.496094 60.425781 589.898438 58.855469 589.488281 57.214844 C 589.078125 55.574219 588.871094 53.910156 588.863281 52.21875 L 588.863281 51.328125 C 588.871094 50.3125 588.960938 49.304688 589.128906 48.300781 C 589.296875 47.300781 589.546875 46.320312 589.871094 45.355469 C 590.195312 44.394531 590.597656 43.464844 591.070312 42.566406 C 591.542969 41.667969 592.085938 40.8125 592.695312 40 C 593.304688 39.1875 593.976562 38.429688 594.707031 37.722656 C 595.4375 37.019531 596.21875 36.375 597.050781 35.796875 C 597.886719 35.214844 598.757812 34.703125 599.671875 34.261719 C 600.589844 33.820312 601.53125 33.453125 602.503906 33.164062 L 586.710938 12.328125 C 586.441406 11.941406 586.210938 11.53125 586.023438 11.097656 C 585.832031 10.664062 585.683594 10.21875 585.578125 9.753906 C 585.472656 9.292969 585.410156 8.828125 585.394531 8.355469 C 585.378906 7.882812 585.410156 7.410156 585.480469 6.945312 C 585.554688 6.476562 585.675781 6.023438 585.835938 5.578125 C 585.996094 5.132812 586.199219 4.707031 586.441406 4.300781 C 586.683594 3.894531 586.960938 3.515625 587.277344 3.164062 C 587.59375 2.808594 587.9375 2.492188 588.316406 2.203125 C 588.691406 1.917969 589.09375 1.667969 589.515625 1.460938 C 589.941406 1.25 590.378906 1.082031 590.835938 0.957031 C 591.292969 0.832031 591.753906 0.75 592.226562 0.710938 C 592.699219 0.675781 593.167969 0.683594 593.640625 0.738281 C 594.109375 0.789062 594.570312 0.886719 595.023438 1.027344 C 595.472656 1.171875 595.90625 1.351562 596.324219 1.578125 C 596.738281 1.800781 597.132812 2.0625 597.496094 2.363281 C 597.863281 2.664062 598.199219 2.996094 598.5 3.359375 L 620.003906 31.308594 C 621.417969 31.382812 622.828125 31.511719 624.230469 31.699219 C 625.632812 31.886719 627.027344 32.125 628.414062 32.421875 C 629.800781 32.71875 631.171875 33.070312 632.527344 33.476562 C 633.882812 33.878906 635.222656 34.339844 636.542969 34.851562 C 637.863281 35.363281 639.164062 35.925781 640.441406 36.539062 C 641.714844 37.15625 642.964844 37.820312 644.1875 38.535156 C 645.410156 39.246094 646.605469 40.007812 647.769531 40.816406 C 648.929688 41.625 650.058594 42.480469 651.15625 43.378906 C 652.25 44.277344 653.308594 45.214844 654.328125 46.199219 C 655.347656 47.179688 656.328125 48.203125 657.269531 49.261719 C 658.207031 50.324219 659.105469 51.417969 659.957031 52.550781 C 660.808594 53.679688 661.613281 54.84375 662.375 56.039062 C 663.136719 57.234375 663.847656 58.457031 664.511719 59.707031 C 665.171875 60.960938 665.785156 62.238281 666.347656 63.535156 C 666.910156 64.835938 667.417969 66.15625 667.875 67.5 C 668.332031 68.839844 668.734375 70.195312 669.085938 71.566406 C 669.1875 72.046875 669.242188 72.527344 669.25 73.015625 C 669.257812 73.503906 669.21875 73.988281 669.132812 74.46875 C 669.042969 74.949219 668.910156 75.417969 668.730469 75.871094 C 668.550781 76.324219 668.328125 76.753906 668.0625 77.164062 C 667.796875 77.574219 667.496094 77.957031 667.15625 78.304688 C 666.8125 78.65625 666.441406 78.96875 666.039062 79.246094 C 665.636719 79.523438 665.214844 79.757812 664.765625 79.949219 C 664.316406 80.144531 663.851562 80.289062 663.375 80.390625 Z M 612.738281 46.507812 L 612.21875 46.507812 L 608.363281 46.953125 C 608.070312 46.953125 607.78125 46.980469 607.492188 47.035156 C 607.203125 47.089844 606.925781 47.171875 606.652344 47.28125 C 606.382812 47.390625 606.121094 47.523438 605.875 47.679688 C 605.628906 47.839844 605.398438 48.019531 605.1875 48.21875 C 604.976562 48.421875 604.785156 48.640625 604.613281 48.878906 C 604.445312 49.117188 604.300781 49.371094 604.175781 49.636719 C 604.054688 49.902344 603.960938 50.179688 603.890625 50.460938 C 603.820312 50.746094 603.78125 51.035156 603.765625 51.328125 L 603.765625 52.21875 C 603.839844 53.261719 604.136719 54.238281 604.65625 55.148438 C 605.175781 56.058594 605.867188 56.8125 606.730469 57.40625 C 607.804688 58.175781 608.988281 58.683594 610.28125 58.929688 C 611.578125 59.175781 612.867188 59.136719 614.144531 58.816406 C 614.878906 58.636719 615.523438 58.289062 616.078125 57.773438 C 616.628906 57.257812 617.023438 56.644531 617.257812 55.925781 C 617.464844 55.089844 617.472656 54.253906 617.277344 53.417969 C 617.078125 52.582031 616.703125 51.835938 616.148438 51.179688 Z M 612.738281 46.507812 "/></g><path style=" stroke:none;fill-rule:nonzero;fill:#6b3406;fill-opacity:1;" d="M 178.191406 124.503906 C 177.367188 124.5 176.566406 124.363281 175.789062 124.09375 C 175.011719 123.820312 174.300781 123.433594 173.652344 122.921875 C 173.003906 122.414062 172.457031 121.816406 172.007812 121.125 C 171.558594 120.433594 171.234375 119.6875 171.035156 118.890625 C 170.835938 118.089844 170.769531 117.28125 170.839844 116.460938 C 170.910156 115.640625 171.113281 114.851562 171.445312 114.097656 C 171.777344 113.34375 172.222656 112.667969 172.78125 112.0625 C 173.339844 111.457031 173.980469 110.957031 174.707031 110.566406 L 194.578125 100.039062 C 196.96875 98.671875 199.175781 97.054688 201.195312 95.179688 C 203.214844 93.308594 204.996094 91.230469 206.539062 88.949219 C 208.082031 86.667969 209.34375 84.242188 210.328125 81.667969 C 211.316406 79.097656 211.996094 76.445312 212.371094 73.71875 C 212.585938 71.90625 212.894531 70.109375 213.304688 68.328125 C 213.714844 66.550781 214.21875 64.796875 214.820312 63.074219 C 215.417969 61.351562 216.109375 59.664062 216.894531 58.015625 C 217.675781 56.363281 218.546875 54.761719 219.503906 53.207031 C 220.460938 51.652344 221.5 50.15625 222.621094 48.714844 C 223.742188 47.273438 224.9375 45.898438 226.207031 44.585938 C 227.476562 43.273438 228.816406 42.035156 230.222656 40.871094 C 231.625 39.703125 233.089844 38.617188 234.613281 37.609375 L 256.855469 23.300781 C 257.265625 23.023438 257.695312 22.785156 258.152344 22.589844 C 258.609375 22.394531 259.078125 22.246094 259.5625 22.144531 C 260.046875 22.042969 260.539062 21.988281 261.035156 21.984375 C 261.53125 21.976562 262.019531 22.019531 262.507812 22.113281 C 262.996094 22.203125 263.46875 22.339844 263.929688 22.523438 C 264.390625 22.710938 264.828125 22.9375 265.242188 23.207031 C 265.65625 23.476562 266.042969 23.785156 266.394531 24.132812 C 266.75 24.480469 267.066406 24.859375 267.347656 25.265625 C 267.628906 25.675781 267.863281 26.109375 268.058594 26.5625 C 268.253906 27.019531 268.402344 27.488281 268.503906 27.972656 C 268.605469 28.460938 268.660156 28.949219 268.664062 29.445312 C 268.671875 29.941406 268.628906 30.433594 268.539062 30.917969 C 268.445312 31.40625 268.308594 31.878906 268.125 32.339844 C 267.9375 32.800781 267.710938 33.238281 267.441406 33.652344 C 267.171875 34.066406 266.863281 34.453125 266.515625 34.804688 C 266.167969 35.160156 265.792969 35.476562 265.382812 35.757812 L 243.140625 50.066406 C 241.011719 51.472656 239.054688 53.089844 237.273438 54.914062 C 235.492188 56.738281 233.921875 58.734375 232.566406 60.894531 C 231.210938 63.054688 230.097656 65.335938 229.230469 67.734375 C 228.363281 70.132812 227.761719 72.597656 227.421875 75.125 C 227.167969 77.09375 226.800781 79.035156 226.320312 80.957031 C 225.835938 82.882812 225.242188 84.769531 224.535156 86.621094 C 223.828125 88.472656 223.015625 90.277344 222.09375 92.03125 C 221.175781 93.785156 220.15625 95.480469 219.035156 97.117188 C 217.914062 98.75 216.699219 100.3125 215.394531 101.804688 C 214.089844 103.296875 212.699219 104.703125 211.226562 106.03125 C 209.753906 107.355469 208.207031 108.589844 206.589844 109.734375 C 204.96875 110.878906 203.289062 111.921875 201.546875 112.863281 L 181.675781 123.46875 C 180.601562 124.105469 179.441406 124.453125 178.191406 124.503906 Z M 178.191406 124.503906 "/><path style=" stroke:none;fill-rule:nonzero;fill:#6b3406;fill-opacity:1;" d="M 305.714844 218.664062 C 304.175781 218.664062 302.640625 218.589844 301.105469 218.4375 C 299.574219 218.289062 298.050781 218.0625 296.542969 217.761719 C 295.03125 217.460938 293.539062 217.085938 292.066406 216.640625 C 290.59375 216.191406 289.144531 215.675781 287.722656 215.085938 C 286.296875 214.496094 284.910156 213.835938 283.550781 213.109375 C 282.191406 212.386719 280.871094 211.59375 279.59375 210.738281 C 278.3125 209.882812 277.078125 208.964844 275.886719 207.988281 C 274.695312 207.011719 273.558594 205.976562 272.46875 204.890625 C 271.378906 203.800781 270.347656 202.660156 269.371094 201.46875 C 268.394531 200.277344 267.476562 199.042969 266.621094 197.761719 C 265.769531 196.480469 264.976562 195.160156 264.253906 193.804688 C 263.527344 192.445312 262.871094 191.054688 262.28125 189.628906 C 261.691406 188.207031 261.175781 186.757812 260.726562 185.285156 C 260.28125 183.8125 259.910156 182.320312 259.609375 180.808594 C 259.308594 179.296875 259.082031 177.777344 258.933594 176.242188 C 258.785156 174.710938 258.707031 173.175781 258.710938 171.632812 C 258.710938 170.09375 258.785156 168.558594 258.9375 167.027344 C 259.089844 165.492188 259.316406 163.972656 259.617188 162.460938 C 259.917969 160.953125 260.292969 159.460938 260.742188 157.984375 C 261.191406 156.511719 261.710938 155.066406 262.300781 153.640625 C 262.890625 152.21875 263.546875 150.832031 264.273438 149.472656 C 265.003906 148.113281 265.792969 146.796875 266.652344 145.515625 C 267.507812 144.234375 268.425781 143 269.402344 141.8125 C 270.378906 140.621094 271.414062 139.484375 272.503906 138.394531 C 273.59375 137.308594 274.734375 136.273438 275.925781 135.300781 C 277.117188 134.324219 278.351562 133.40625 279.632812 132.554688 C 280.914062 131.699219 282.234375 130.910156 283.59375 130.183594 C 284.953125 129.460938 286.34375 128.804688 287.765625 128.214844 C 289.191406 127.628906 290.640625 127.109375 292.113281 126.664062 C 293.585938 126.21875 295.078125 125.847656 296.589844 125.546875 C 298.101562 125.25 299.621094 125.023438 301.15625 124.875 C 302.6875 124.726562 304.226562 124.652344 305.765625 124.652344 C 307.304688 124.65625 308.839844 124.730469 310.375 124.886719 C 311.90625 125.039062 313.425781 125.265625 314.9375 125.566406 C 316.449219 125.871094 317.9375 126.246094 319.414062 126.695312 C 320.886719 127.140625 322.332031 127.660156 323.753906 128.253906 C 325.175781 128.84375 326.566406 129.503906 327.925781 130.230469 C 329.28125 130.957031 330.601562 131.75 331.878906 132.609375 C 333.160156 133.464844 334.394531 134.382812 335.582031 135.363281 C 336.769531 136.339844 337.910156 137.375 338.996094 138.464844 C 340.085938 139.554688 341.117188 140.695312 342.089844 141.886719 C 343.066406 143.078125 343.980469 144.316406 344.835938 145.597656 C 345.6875 146.878906 346.476562 148.199219 347.203125 149.558594 C 347.925781 150.917969 348.582031 152.308594 349.167969 153.734375 C 349.757812 155.15625 350.273438 156.605469 350.71875 158.082031 C 351.164062 159.554688 351.535156 161.046875 351.832031 162.558594 C 352.128906 164.070312 352.351562 165.589844 352.503906 167.125 C 352.652344 168.65625 352.722656 170.195312 352.722656 171.734375 C 352.71875 173.273438 352.640625 174.804688 352.488281 176.335938 C 352.335938 177.867188 352.109375 179.386719 351.804688 180.894531 C 351.503906 182.402344 351.128906 183.890625 350.679688 185.363281 C 350.230469 186.832031 349.710938 188.277344 349.121094 189.699219 C 348.53125 191.121094 347.875 192.507812 347.148438 193.863281 C 346.421875 195.21875 345.628906 196.535156 344.773438 197.8125 C 343.917969 199.089844 343 200.324219 342.023438 201.511719 C 341.046875 202.699219 340.015625 203.835938 338.925781 204.925781 C 337.839844 206.011719 336.699219 207.042969 335.511719 208.015625 C 334.320312 208.992188 333.085938 209.90625 331.808594 210.757812 C 330.527344 211.613281 329.210938 212.402344 327.851562 213.125 C 326.496094 213.851562 325.109375 214.507812 323.6875 215.09375 C 322.265625 215.683594 320.820312 216.199219 319.347656 216.644531 C 317.875 217.089844 316.386719 217.464844 314.875 217.765625 C 313.367188 218.0625 311.847656 218.289062 310.316406 218.441406 C 308.789062 218.589844 307.253906 218.664062 305.714844 218.664062 Z M 305.714844 139.554688 C 304.660156 139.554688 303.609375 139.609375 302.5625 139.710938 C 301.511719 139.8125 300.472656 139.96875 299.4375 140.175781 C 298.40625 140.378906 297.382812 140.636719 296.375 140.941406 C 295.367188 141.246094 294.375 141.601562 293.402344 142.003906 C 292.429688 142.410156 291.476562 142.859375 290.546875 143.355469 C 289.617188 143.851562 288.714844 144.394531 287.839844 144.980469 C 286.960938 145.566406 286.117188 146.191406 285.300781 146.859375 C 284.488281 147.527344 283.707031 148.234375 282.960938 148.980469 C 282.21875 149.726562 281.511719 150.503906 280.84375 151.320312 C 280.171875 152.136719 279.546875 152.980469 278.960938 153.855469 C 278.375 154.734375 277.835938 155.636719 277.335938 156.566406 C 276.839844 157.496094 276.390625 158.445312 275.988281 159.417969 C 275.582031 160.394531 275.230469 161.382812 274.921875 162.394531 C 274.617188 163.402344 274.363281 164.421875 274.15625 165.457031 C 273.949219 166.488281 273.796875 167.53125 273.691406 168.578125 C 273.589844 169.628906 273.539062 170.679688 273.539062 171.734375 C 273.539062 172.789062 273.589844 173.839844 273.691406 174.886719 C 273.796875 175.9375 273.949219 176.976562 274.15625 178.011719 C 274.363281 179.042969 274.617188 180.066406 274.921875 181.074219 C 275.230469 182.082031 275.582031 183.074219 275.988281 184.046875 C 276.390625 185.019531 276.839844 185.972656 277.335938 186.902344 C 277.835938 187.832031 278.375 188.734375 278.960938 189.609375 C 279.546875 190.488281 280.171875 191.332031 280.84375 192.148438 C 281.511719 192.960938 282.21875 193.742188 282.960938 194.488281 C 283.707031 195.230469 284.488281 195.9375 285.300781 196.605469 C 286.117188 197.277344 286.960938 197.902344 287.839844 198.488281 C 288.714844 199.074219 289.617188 199.613281 290.546875 200.113281 C 291.476562 200.609375 292.429688 201.058594 293.402344 201.460938 C 294.375 201.863281 295.367188 202.21875 296.375 202.527344 C 297.382812 202.832031 298.40625 203.085938 299.4375 203.292969 C 300.472656 203.5 301.511719 203.652344 302.5625 203.757812 C 303.609375 203.859375 304.660156 203.910156 305.714844 203.910156 C 306.769531 203.910156 307.820312 203.859375 308.871094 203.757812 C 309.917969 203.652344 310.960938 203.5 311.992188 203.292969 C 313.027344 203.085938 314.046875 202.832031 315.054688 202.527344 C 316.066406 202.21875 317.054688 201.863281 318.027344 201.460938 C 319.003906 201.058594 319.953125 200.609375 320.882812 200.113281 C 321.8125 199.613281 322.714844 199.074219 323.59375 198.488281 C 324.46875 197.902344 325.3125 197.277344 326.128906 196.605469 C 326.941406 195.9375 327.722656 195.230469 328.46875 194.488281 C 329.214844 193.742188 329.921875 192.960938 330.589844 192.148438 C 331.257812 191.332031 331.882812 190.488281 332.46875 189.609375 C 333.054688 188.734375 333.597656 187.832031 334.09375 186.902344 C 334.589844 185.972656 335.039062 185.019531 335.445312 184.046875 C 335.847656 183.074219 336.203125 182.082031 336.507812 181.074219 C 336.8125 180.066406 337.070312 179.042969 337.273438 178.011719 C 337.480469 176.976562 337.632812 175.9375 337.738281 174.886719 C 337.839844 173.839844 337.894531 172.789062 337.894531 171.734375 C 337.894531 170.679688 337.847656 169.628906 337.746094 168.578125 C 337.644531 167.527344 337.492188 166.484375 337.285156 165.449219 C 337.082031 164.417969 336.828125 163.394531 336.523438 162.382812 C 336.21875 161.375 335.867188 160.382812 335.464844 159.410156 C 335.0625 158.433594 334.613281 157.480469 334.117188 156.550781 C 333.621094 155.621094 333.078125 154.714844 332.492188 153.839844 C 331.90625 152.960938 331.28125 152.117188 330.613281 151.300781 C 329.941406 150.484375 329.234375 149.703125 328.488281 148.957031 C 327.746094 148.214844 326.964844 147.507812 326.148438 146.835938 C 325.332031 146.167969 324.488281 145.542969 323.609375 144.957031 C 322.734375 144.371094 321.828125 143.828125 320.898438 143.332031 C 319.96875 142.835938 319.015625 142.386719 318.039062 141.984375 C 317.066406 141.582031 316.074219 141.230469 315.0625 140.925781 C 314.054688 140.621094 313.03125 140.367188 312 140.160156 C 310.964844 139.957031 309.921875 139.804688 308.871094 139.703125 C 307.820312 139.601562 306.769531 139.554688 305.714844 139.554688 Z M 305.714844 139.554688 "/><path style=" stroke:none;fill-rule:nonzero;fill:#6b3406;fill-opacity:1;" d="M 566.324219 218.664062 C 564.785156 218.664062 563.246094 218.589844 561.714844 218.4375 C 560.183594 218.289062 558.660156 218.0625 557.148438 217.761719 C 555.640625 217.460938 554.148438 217.085938 552.675781 216.640625 C 551.199219 216.191406 549.753906 215.675781 548.328125 215.085938 C 546.90625 214.496094 545.515625 213.835938 544.160156 213.109375 C 542.800781 212.386719 541.480469 211.59375 540.199219 210.738281 C 538.921875 209.882812 537.683594 208.964844 536.496094 207.988281 C 535.304688 207.011719 534.164062 205.976562 533.078125 204.890625 C 531.988281 203.800781 530.957031 202.660156 529.980469 201.46875 C 529.003906 200.277344 528.085938 199.042969 527.230469 197.761719 C 526.375 196.480469 525.585938 195.160156 524.859375 193.804688 C 524.132812 192.445312 523.476562 191.054688 522.890625 189.628906 C 522.300781 188.207031 521.78125 186.757812 521.335938 185.285156 C 520.890625 183.8125 520.515625 182.320312 520.21875 180.808594 C 519.917969 179.296875 519.691406 177.777344 519.542969 176.242188 C 519.390625 174.710938 519.316406 173.175781 519.316406 171.632812 C 519.320312 170.09375 519.394531 168.558594 519.546875 167.027344 C 519.699219 165.492188 519.925781 163.972656 520.226562 162.460938 C 520.527344 160.953125 520.902344 159.460938 521.351562 157.984375 C 521.796875 156.511719 522.316406 155.066406 522.90625 153.640625 C 523.496094 152.21875 524.15625 150.832031 524.882812 149.472656 C 525.609375 148.113281 526.402344 146.796875 527.257812 145.515625 C 528.113281 144.234375 529.03125 143 530.011719 141.8125 C 530.988281 140.621094 532.023438 139.484375 533.113281 138.394531 C 534.203125 137.308594 535.34375 136.273438 536.535156 135.300781 C 537.726562 134.324219 538.960938 133.40625 540.242188 132.554688 C 541.523438 131.699219 542.84375 130.910156 544.203125 130.183594 C 545.5625 129.460938 546.953125 128.804688 548.375 128.214844 C 549.796875 127.628906 551.246094 127.109375 552.722656 126.664062 C 554.195312 126.21875 555.6875 125.847656 557.199219 125.546875 C 558.710938 125.25 560.230469 125.023438 561.765625 124.875 C 563.296875 124.726562 564.832031 124.652344 566.375 124.652344 C 567.914062 124.65625 569.449219 124.730469 570.980469 124.886719 C 572.515625 125.039062 574.035156 125.265625 575.546875 125.566406 C 577.054688 125.871094 578.546875 126.246094 580.019531 126.695312 C 581.492188 127.140625 582.941406 127.660156 584.363281 128.253906 C 585.785156 128.84375 587.175781 129.503906 588.53125 130.230469 C 589.890625 130.957031 591.207031 131.75 592.488281 132.609375 C 593.765625 133.464844 595 134.382812 596.191406 135.363281 C 597.378906 136.339844 598.519531 137.375 599.605469 138.464844 C 600.691406 139.554688 601.722656 140.695312 602.699219 141.886719 C 603.675781 143.078125 604.589844 144.316406 605.445312 145.597656 C 606.296875 146.878906 607.085938 148.199219 607.808594 149.558594 C 608.535156 150.917969 609.191406 152.308594 609.777344 153.734375 C 610.363281 155.15625 610.878906 156.605469 611.324219 158.082031 C 611.769531 159.554688 612.140625 161.046875 612.441406 162.558594 C 612.738281 164.070312 612.960938 165.589844 613.109375 167.125 C 613.257812 168.65625 613.332031 170.195312 613.328125 171.734375 C 613.328125 173.273438 613.25 174.804688 613.097656 176.335938 C 612.945312 177.867188 612.714844 179.386719 612.414062 180.894531 C 612.113281 182.402344 611.738281 183.890625 611.289062 185.363281 C 610.839844 186.832031 610.320312 188.277344 609.730469 189.699219 C 609.140625 191.121094 608.480469 192.507812 607.753906 193.863281 C 607.027344 195.21875 606.238281 196.535156 605.382812 197.8125 C 604.527344 199.089844 603.609375 200.324219 602.632812 201.511719 C 601.65625 202.699219 600.625 203.835938 599.535156 204.925781 C 598.449219 206.011719 597.308594 207.042969 596.117188 208.015625 C 594.929688 208.992188 593.695312 209.90625 592.414062 210.757812 C 591.136719 211.613281 589.820312 212.402344 588.460938 213.125 C 587.105469 213.851562 585.714844 214.507812 584.296875 215.09375 C 582.875 215.683594 581.425781 216.199219 579.957031 216.644531 C 578.484375 217.089844 576.992188 217.464844 575.484375 217.765625 C 573.976562 218.0625 572.457031 218.289062 570.925781 218.441406 C 569.394531 218.589844 567.863281 218.664062 566.324219 218.664062 Z M 566.324219 139.554688 C 565.269531 139.554688 564.21875 139.609375 563.167969 139.710938 C 562.121094 139.8125 561.078125 139.96875 560.046875 140.175781 C 559.011719 140.378906 557.992188 140.636719 556.984375 140.941406 C 555.972656 141.246094 554.984375 141.601562 554.011719 142.003906 C 553.035156 142.410156 552.085938 142.859375 551.15625 143.355469 C 550.226562 143.851562 549.324219 144.394531 548.445312 144.980469 C 547.570312 145.566406 546.726562 146.191406 545.910156 146.859375 C 545.097656 147.527344 544.316406 148.234375 543.570312 148.980469 C 542.824219 149.726562 542.117188 150.503906 541.449219 151.320312 C 540.78125 152.136719 540.15625 152.980469 539.570312 153.855469 C 538.984375 154.734375 538.441406 155.636719 537.945312 156.566406 C 537.449219 157.496094 537 158.445312 536.59375 159.417969 C 536.191406 160.394531 535.835938 161.382812 535.53125 162.394531 C 535.226562 163.402344 534.96875 164.421875 534.765625 165.457031 C 534.558594 166.488281 534.40625 167.53125 534.300781 168.578125 C 534.199219 169.628906 534.144531 170.679688 534.144531 171.734375 C 534.144531 172.789062 534.199219 173.839844 534.300781 174.886719 C 534.40625 175.9375 534.558594 176.976562 534.765625 178.011719 C 534.96875 179.042969 535.226562 180.066406 535.53125 181.074219 C 535.835938 182.082031 536.191406 183.074219 536.59375 184.046875 C 537 185.019531 537.449219 185.972656 537.945312 186.902344 C 538.441406 187.832031 538.984375 188.734375 539.570312 189.609375 C 540.15625 190.488281 540.78125 191.332031 541.449219 192.148438 C 542.117188 192.960938 542.824219 193.742188 543.570312 194.488281 C 544.316406 195.230469 545.097656 195.9375 545.910156 196.605469 C 546.726562 197.277344 547.570312 197.902344 548.445312 198.488281 C 549.324219 199.074219 550.226562 199.613281 551.15625 200.113281 C 552.085938 200.609375 553.035156 201.058594 554.011719 201.460938 C 554.984375 201.863281 555.972656 202.21875 556.984375 202.527344 C 557.992188 202.832031 559.011719 203.085938 560.046875 203.292969 C 561.078125 203.5 562.121094 203.652344 563.167969 203.757812 C 564.21875 203.859375 565.269531 203.910156 566.324219 203.910156 C 567.378906 203.910156 568.429688 203.859375 569.476562 203.757812 C 570.527344 203.652344 571.566406 203.5 572.601562 203.292969 C 573.636719 203.085938 574.65625 202.832031 575.664062 202.527344 C 576.671875 202.21875 577.664062 201.863281 578.636719 201.460938 C 579.609375 201.058594 580.5625 200.609375 581.492188 200.113281 C 582.421875 199.613281 583.324219 199.074219 584.199219 198.488281 C 585.078125 197.902344 585.921875 197.277344 586.738281 196.605469 C 587.550781 195.9375 588.332031 195.230469 589.078125 194.488281 C 589.820312 193.742188 590.527344 192.960938 591.199219 192.148438 C 591.867188 191.332031 592.492188 190.488281 593.078125 189.609375 C 593.664062 188.734375 594.203125 187.832031 594.703125 186.902344 C 595.199219 185.972656 595.648438 185.019531 596.050781 184.046875 C 596.457031 183.074219 596.808594 182.082031 597.117188 181.074219 C 597.421875 180.066406 597.675781 179.042969 597.882812 178.011719 C 598.089844 176.976562 598.242188 175.9375 598.347656 174.886719 C 598.449219 173.839844 598.5 172.789062 598.5 171.734375 C 598.503906 170.679688 598.453125 169.628906 598.351562 168.578125 C 598.25 167.527344 598.097656 166.484375 597.894531 165.449219 C 597.691406 164.417969 597.4375 163.394531 597.132812 162.382812 C 596.828125 161.375 596.472656 160.382812 596.070312 159.410156 C 595.667969 158.433594 595.21875 157.480469 594.722656 156.550781 C 594.226562 155.621094 593.6875 154.714844 593.101562 153.839844 C 592.515625 152.960938 591.890625 152.117188 591.21875 151.300781 C 590.550781 150.484375 589.84375 149.703125 589.097656 148.957031 C 588.351562 148.214844 587.574219 147.507812 586.757812 146.835938 C 585.941406 146.167969 585.09375 145.542969 584.21875 144.957031 C 583.339844 144.371094 582.4375 143.828125 581.507812 143.332031 C 580.578125 142.835938 579.625 142.386719 578.648438 141.984375 C 577.675781 141.582031 576.683594 141.230469 575.671875 140.925781 C 574.664062 140.621094 573.640625 140.367188 572.605469 140.160156 C 571.570312 139.957031 570.53125 139.804688 569.480469 139.703125 C 568.429688 139.601562 567.378906 139.554688 566.324219 139.554688 Z M 566.324219 139.554688 "/><path style=" stroke:none;fill-rule:nonzero;fill:#6b3406;fill-opacity:1;" d="M 369.179688 591.671875 C 368.171875 591.671875 367.167969 591.621094 366.164062 591.519531 C 365.164062 591.417969 364.167969 591.261719 363.183594 591.054688 C 362.195312 590.847656 361.222656 590.59375 360.261719 590.285156 C 359.304688 589.976562 358.363281 589.621094 357.4375 589.21875 C 356.515625 588.8125 355.617188 588.359375 354.742188 587.863281 C 353.863281 587.363281 353.015625 586.824219 352.195312 586.234375 C 351.378906 585.648438 350.589844 585.023438 349.835938 584.355469 C 349.082031 583.6875 348.363281 582.980469 347.679688 582.238281 C 347 581.496094 346.359375 580.722656 345.757812 579.914062 C 345.15625 579.105469 344.597656 578.265625 344.085938 577.398438 C 343.570312 576.53125 343.101562 575.640625 342.679688 574.726562 C 342.257812 573.8125 341.886719 572.875 341.5625 571.921875 C 341.238281 570.96875 340.960938 570 340.738281 569.019531 C 340.515625 568.035156 340.339844 567.042969 340.21875 566.042969 C 340.097656 565.042969 340.03125 564.039062 340.011719 563.03125 C 339.996094 562.023438 340.03125 561.019531 340.117188 560.015625 L 345.898438 491.359375 C 346.429688 485.835938 346.152344 480.351562 345.066406 474.910156 C 343.980469 469.46875 342.132812 464.300781 339.523438 459.402344 L 312.683594 411.65625 C 312.253906 410.886719 311.722656 410.191406 311.09375 409.570312 C 310.46875 408.953125 309.765625 408.433594 308.988281 408.011719 C 308.214844 407.589844 307.394531 407.285156 306.53125 407.097656 C 305.671875 406.90625 304.800781 406.84375 303.917969 406.902344 C 303.039062 406.957031 302.183594 407.136719 301.351562 407.4375 C 300.523438 407.738281 299.75 408.148438 299.039062 408.667969 C 298.324219 409.1875 297.695312 409.796875 297.15625 410.492188 C 296.613281 411.191406 296.179688 411.949219 295.855469 412.769531 L 281.621094 449.171875 C 275.324219 465.238281 271.222656 481.847656 269.3125 498.996094 L 261.898438 567.28125 C 261.800781 568.171875 261.660156 569.058594 261.476562 569.941406 C 261.296875 570.820312 261.070312 571.6875 260.800781 572.546875 C 260.53125 573.402344 260.222656 574.246094 259.871094 575.070312 C 259.519531 575.898438 259.128906 576.707031 258.699219 577.496094 C 258.265625 578.285156 257.796875 579.050781 257.292969 579.792969 C 256.785156 580.535156 256.246094 581.25 255.667969 581.941406 C 255.09375 582.628906 254.484375 583.289062 253.84375 583.917969 C 253.203125 584.546875 252.53125 585.144531 251.832031 585.707031 C 251.132812 586.273438 250.40625 586.800781 249.65625 587.292969 C 248.90625 587.785156 248.128906 588.238281 247.335938 588.65625 C 246.539062 589.074219 245.722656 589.449219 244.890625 589.785156 C 244.058594 590.121094 243.210938 590.417969 242.347656 590.671875 C 241.484375 590.925781 240.613281 591.132812 239.730469 591.300781 C 238.847656 591.46875 237.957031 591.59375 237.0625 591.671875 C 236.167969 591.753906 235.273438 591.789062 234.375 591.78125 C 233.476562 591.773438 232.578125 591.722656 231.6875 591.625 C 230.792969 591.53125 229.90625 591.390625 229.027344 591.207031 C 228.148438 591.023438 227.277344 590.800781 226.421875 590.53125 C 225.5625 590.261719 224.71875 589.953125 223.894531 589.601562 C 223.066406 589.25 222.257812 588.859375 221.46875 588.429688 C 220.679688 588 219.914062 587.53125 219.171875 587.027344 C 218.429688 586.519531 217.714844 585.980469 217.023438 585.402344 C 216.335938 584.828125 215.675781 584.21875 215.042969 583.578125 C 214.414062 582.9375 213.816406 582.265625 213.253906 581.566406 C 212.691406 580.867188 212.160156 580.144531 211.667969 579.390625 C 211.175781 578.640625 210.722656 577.867188 210.304688 577.070312 C 209.886719 576.273438 209.511719 575.460938 209.175781 574.625 C 208.835938 573.792969 208.542969 572.945312 208.289062 572.085938 C 208.035156 571.222656 207.824219 570.351562 207.65625 569.46875 C 207.488281 568.585938 207.363281 567.695312 207.285156 566.800781 C 207.203125 565.90625 207.167969 565.007812 207.175781 564.109375 C 207.183594 563.210938 207.234375 562.316406 207.328125 561.421875 L 215.335938 484.6875 C 216.90625 469.832031 219.996094 455.300781 224.605469 441.089844 L 238.246094 399.421875 L 239.804688 293.546875 C 239.820312 292.289062 239.554688 291.089844 239.007812 289.957031 C 238.460938 288.820312 237.6875 287.867188 236.691406 287.097656 C 235.695312 286.316406 234.574219 285.808594 233.332031 285.570312 C 232.085938 285.335938 230.859375 285.398438 229.644531 285.765625 L 191.980469 296.589844 C 190.738281 296.941406 189.476562 297.199219 188.191406 297.367188 C 186.910156 297.535156 185.625 297.605469 184.332031 297.582031 C 183.039062 297.558594 181.753906 297.441406 180.480469 297.226562 C 179.203125 297.015625 177.953125 296.710938 176.722656 296.3125 C 175.492188 295.917969 174.296875 295.433594 173.136719 294.859375 C 171.980469 294.285156 170.867188 293.632812 169.804688 292.894531 C 168.742188 292.160156 167.742188 291.347656 166.796875 290.464844 C 165.855469 289.578125 164.980469 288.628906 164.179688 287.617188 L 122.585938 234.605469 C 122.066406 233.941406 121.582031 233.257812 121.132812 232.546875 C 120.683594 231.835938 120.269531 231.105469 119.890625 230.355469 C 119.511719 229.601562 119.171875 228.835938 118.867188 228.050781 C 118.566406 227.265625 118.300781 226.46875 118.078125 225.65625 C 117.851562 224.847656 117.667969 224.027344 117.523438 223.199219 C 117.378906 222.371094 117.277344 221.535156 117.214844 220.695312 C 117.152344 219.859375 117.132812 219.019531 117.152344 218.179688 C 117.175781 217.335938 117.234375 216.5 117.339844 215.664062 C 117.441406 214.828125 117.585938 214.003906 117.769531 213.179688 C 117.953125 212.359375 118.175781 211.550781 118.441406 210.753906 C 118.703125 209.953125 119.007812 209.171875 119.347656 208.402344 C 119.6875 207.632812 120.066406 206.882812 120.480469 206.148438 C 120.894531 205.417969 121.34375 204.707031 121.828125 204.019531 C 122.3125 203.332031 122.832031 202.671875 123.378906 202.035156 C 123.929688 201.398438 124.507812 200.789062 125.117188 200.207031 C 125.726562 199.628906 126.363281 199.082031 127.027344 198.5625 C 127.6875 198.046875 128.375 197.5625 129.085938 197.113281 C 129.796875 196.664062 130.527344 196.25 131.28125 195.871094 C 132.03125 195.492188 132.800781 195.152344 133.582031 194.847656 C 134.367188 194.546875 135.167969 194.285156 135.976562 194.058594 C 136.789062 193.835938 137.605469 193.652344 138.4375 193.507812 C 139.265625 193.363281 140.097656 193.261719 140.9375 193.199219 C 141.777344 193.136719 142.617188 193.117188 143.457031 193.140625 C 144.296875 193.160156 145.136719 193.222656 145.96875 193.324219 C 146.804688 193.429688 147.632812 193.574219 148.453125 193.757812 C 149.273438 193.941406 150.082031 194.167969 150.882812 194.429688 C 151.679688 194.695312 152.464844 194.996094 153.234375 195.339844 C 154 195.679688 154.75 196.058594 155.484375 196.472656 C 156.214844 196.886719 156.925781 197.335938 157.613281 197.820312 C 158.300781 198.304688 158.960938 198.824219 159.597656 199.375 C 160.234375 199.921875 160.84375 200.503906 161.421875 201.113281 C 162 201.722656 162.550781 202.359375 163.066406 203.019531 L 188.421875 235.71875 C 189.121094 236.609375 189.933594 237.378906 190.863281 238.023438 C 191.789062 238.667969 192.792969 239.164062 193.871094 239.507812 C 194.949219 239.851562 196.054688 240.027344 197.183594 240.039062 C 198.316406 240.050781 199.425781 239.894531 200.507812 239.574219 L 266.792969 220.074219 C 269.070312 219.4375 271.394531 219.140625 273.761719 219.183594 L 318.246094 220.148438 C 319.480469 220.199219 320.707031 220.113281 321.921875 219.886719 C 323.136719 219.664062 324.3125 219.308594 325.445312 218.820312 C 326.582031 218.332031 327.648438 217.726562 328.648438 217 C 329.648438 216.273438 330.554688 215.445312 331.367188 214.511719 L 363.621094 179.59375 L 390.3125 98.035156 C 390.703125 96.847656 391.175781 95.695312 391.730469 94.574219 C 392.289062 93.453125 392.925781 92.378906 393.636719 91.347656 C 394.347656 90.320312 395.128906 89.347656 395.980469 88.433594 C 396.835938 87.515625 397.746094 86.664062 398.722656 85.882812 C 399.699219 85.097656 400.722656 84.386719 401.800781 83.75 C 402.878906 83.113281 403.996094 82.558594 405.152344 82.082031 C 406.3125 81.609375 407.496094 81.21875 408.710938 80.914062 C 409.921875 80.609375 411.152344 80.394531 412.398438 80.269531 C 413.640625 80.140625 414.890625 80.105469 416.140625 80.15625 C 417.390625 80.210938 418.628906 80.351562 419.859375 80.585938 C 421.089844 80.816406 422.296875 81.136719 423.480469 81.542969 C 424.664062 81.949219 425.808594 82.4375 426.921875 83.007812 C 428.035156 83.578125 429.101562 84.226562 430.121094 84.953125 C 431.140625 85.679688 432.105469 86.472656 433.007812 87.339844 C 433.914062 88.203125 434.75 89.125 435.523438 90.113281 C 436.292969 91.097656 436.992188 92.132812 437.613281 93.21875 C 438.492188 94.746094 439.207031 96.351562 439.757812 98.027344 C 440.304688 99.703125 440.679688 101.421875 440.875 103.171875 C 441.074219 104.925781 441.09375 106.683594 440.929688 108.441406 C 440.765625 110.195312 440.429688 111.917969 439.910156 113.605469 L 413 202.578125 C 412.644531 203.648438 412.101562 204.609375 411.367188 205.46875 L 364.066406 257.367188 C 362.589844 258.988281 361.453125 260.824219 360.660156 262.871094 C 359.867188 264.914062 359.46875 267.035156 359.46875 269.230469 L 360.65625 382.296875 L 395.796875 446.207031 C 397.4375 449.203125 398.855469 452.300781 400.050781 455.5 C 401.246094 458.699219 402.203125 461.96875 402.925781 465.308594 C 403.644531 468.648438 404.125 472.019531 404.359375 475.429688 C 404.59375 478.835938 404.582031 482.242188 404.324219 485.648438 L 398.835938 564.683594 C 398.765625 565.605469 398.652344 566.515625 398.496094 567.425781 C 398.339844 568.332031 398.140625 569.230469 397.902344 570.121094 C 397.660156 571.011719 397.375 571.886719 397.050781 572.75 C 396.726562 573.609375 396.363281 574.457031 395.960938 575.285156 C 395.554688 576.113281 395.113281 576.917969 394.632812 577.703125 C 394.152344 578.492188 393.632812 579.253906 393.082031 579.988281 C 392.527344 580.726562 391.941406 581.4375 391.324219 582.117188 C 390.703125 582.800781 390.050781 583.449219 389.371094 584.070312 C 388.6875 584.691406 387.980469 585.277344 387.242188 585.832031 C 386.507812 586.382812 385.746094 586.902344 384.957031 587.382812 C 384.171875 587.863281 383.367188 588.304688 382.539062 588.710938 C 381.710938 589.113281 380.867188 589.480469 380.003906 589.804688 C 379.140625 590.128906 378.265625 590.410156 377.375 590.652344 C 376.488281 590.894531 375.589844 591.09375 374.679688 591.25 C 373.773438 591.40625 372.859375 591.523438 371.941406 591.59375 C 371.023438 591.664062 370.101562 591.6875 369.179688 591.671875 Z M 304.527344 392.007812 C 305.601562 392.007812 306.671875 392.078125 307.738281 392.21875 C 308.800781 392.359375 309.851562 392.570312 310.886719 392.855469 C 311.925781 393.136719 312.9375 393.484375 313.925781 393.902344 C 314.914062 394.320312 315.871094 394.800781 316.796875 395.347656 C 317.722656 395.890625 318.609375 396.496094 319.453125 397.160156 C 320.296875 397.824219 321.09375 398.539062 321.839844 399.3125 C 322.589844 400.082031 323.285156 400.898438 323.921875 401.761719 C 324.5625 402.621094 325.140625 403.523438 325.660156 404.464844 L 352.203125 452.210938 C 353.910156 455.269531 355.378906 458.4375 356.613281 461.714844 C 357.847656 464.992188 358.832031 468.34375 359.566406 471.765625 C 360.300781 475.191406 360.777344 478.648438 361 482.144531 C 361.21875 485.636719 361.175781 489.128906 360.875 492.621094 L 355.09375 561.273438 C 355.054688 561.761719 355.039062 562.253906 355.046875 562.746094 C 355.058594 563.234375 355.089844 563.722656 355.152344 564.210938 C 355.210938 564.699219 355.296875 565.179688 355.40625 565.660156 C 355.511719 566.136719 355.648438 566.609375 355.804688 567.074219 C 355.960938 567.539062 356.140625 567.996094 356.347656 568.441406 C 356.550781 568.886719 356.777344 569.320312 357.023438 569.746094 C 357.273438 570.167969 357.542969 570.578125 357.832031 570.972656 C 358.125 571.371094 358.433594 571.75 358.761719 572.113281 C 359.089844 572.476562 359.4375 572.824219 359.804688 573.152344 C 360.167969 573.480469 360.546875 573.789062 360.945312 574.078125 C 361.339844 574.367188 361.75 574.636719 362.175781 574.882812 C 362.597656 575.132812 363.035156 575.355469 363.480469 575.558594 C 363.925781 575.761719 364.382812 575.941406 364.847656 576.097656 C 365.3125 576.253906 365.785156 576.386719 366.265625 576.496094 C 366.742188 576.601562 367.226562 576.683594 367.714844 576.742188 C 368.199219 576.800781 368.691406 576.835938 369.179688 576.84375 C 370.09375 576.847656 370.996094 576.769531 371.894531 576.609375 C 372.789062 576.449219 373.664062 576.207031 374.519531 575.882812 C 375.371094 575.558594 376.1875 575.160156 376.964844 574.6875 C 377.742188 574.214844 378.472656 573.671875 379.152344 573.066406 C 379.832031 572.457031 380.449219 571.792969 381.003906 571.070312 C 381.5625 570.347656 382.046875 569.582031 382.464844 568.769531 C 382.878906 567.960938 383.214844 567.117188 383.476562 566.242188 C 383.734375 565.371094 383.914062 564.480469 384.007812 563.574219 L 389.867188 484.09375 C 390.273438 478.667969 389.898438 473.300781 388.738281 467.988281 C 387.574219 462.675781 385.679688 457.636719 383.046875 452.878906 L 346.9375 387.191406 C 346.351562 386.101562 346.054688 384.941406 346.046875 383.703125 L 344.863281 268.785156 C 344.832031 266.75 344.992188 264.726562 345.347656 262.722656 C 345.699219 260.714844 346.238281 258.761719 346.960938 256.855469 C 347.6875 254.953125 348.582031 253.132812 349.648438 251.398438 C 350.71875 249.664062 351.941406 248.046875 353.316406 246.542969 L 399.503906 196.050781 L 425.898438 108.640625 C 426.339844 107.175781 426.472656 105.683594 426.308594 104.167969 C 426.140625 102.648438 425.683594 101.222656 424.933594 99.890625 C 424.136719 98.519531 423.089844 97.378906 421.796875 96.460938 C 420.503906 95.542969 419.078125 94.929688 417.519531 94.625 C 416.84375 94.472656 416.15625 94.378906 415.460938 94.351562 C 414.765625 94.320312 414.074219 94.355469 413.382812 94.457031 C 412.695312 94.554688 412.019531 94.714844 411.359375 94.9375 C 410.699219 95.160156 410.066406 95.441406 409.460938 95.78125 C 408.851562 96.121094 408.28125 96.511719 407.746094 96.957031 C 407.210938 97.402344 406.71875 97.890625 406.273438 98.425781 C 405.828125 98.960938 405.4375 99.535156 405.09375 100.140625 C 404.753906 100.746094 404.472656 101.382812 404.25 102.039062 L 377.1875 185.597656 C 376.902344 186.625 376.382812 187.515625 375.632812 188.265625 L 342.414062 224.523438 C 340.871094 226.203125 339.171875 227.703125 337.308594 229.023438 C 335.449219 230.339844 333.472656 231.453125 331.375 232.351562 C 329.28125 233.253906 327.113281 233.925781 324.875 234.367188 C 322.636719 234.808594 320.378906 235.011719 318.097656 234.976562 L 273.613281 234.011719 C 272.820312 233.859375 272.03125 233.859375 271.238281 234.011719 L 204.734375 253.734375 C 203.476562 254.136719 202.191406 254.4375 200.886719 254.644531 C 199.578125 254.847656 198.265625 254.949219 196.941406 254.949219 C 195.621094 254.953125 194.304688 254.851562 193 254.652344 C 191.691406 254.449219 190.40625 254.148438 189.148438 253.75 C 187.886719 253.351562 186.664062 252.855469 185.480469 252.269531 C 184.296875 251.683594 183.164062 251.007812 182.082031 250.246094 C 181.003906 249.480469 179.988281 248.640625 179.035156 247.722656 C 178.085938 246.804688 177.210938 245.816406 176.414062 244.761719 L 151.054688 212.140625 C 150.617188 211.578125 150.128906 211.066406 149.589844 210.597656 C 149.050781 210.132812 148.46875 209.722656 147.851562 209.371094 C 147.230469 209.019531 146.582031 208.730469 145.90625 208.507812 C 145.230469 208.285156 144.535156 208.128906 143.828125 208.039062 C 143.121094 207.953125 142.414062 207.933594 141.703125 207.984375 C 140.992188 208.039062 140.292969 208.160156 139.605469 208.347656 C 138.917969 208.539062 138.253906 208.792969 137.617188 209.113281 C 136.980469 209.433594 136.382812 209.8125 135.820312 210.25 C 135.257812 210.6875 134.742188 211.175781 134.277344 211.714844 C 133.8125 212.257812 133.402344 212.835938 133.050781 213.457031 C 132.699219 214.074219 132.410156 214.722656 132.1875 215.402344 C 131.960938 216.078125 131.804688 216.769531 131.71875 217.476562 C 131.632812 218.183594 131.613281 218.894531 131.664062 219.605469 C 131.71875 220.316406 131.835938 221.015625 132.027344 221.703125 C 132.21875 222.386719 132.472656 223.050781 132.792969 223.6875 C 133.113281 224.324219 133.492188 224.925781 133.929688 225.488281 L 175.597656 278.421875 C 176.285156 279.316406 177.089844 280.085938 178.011719 280.730469 C 178.933594 281.378906 179.929688 281.875 181.003906 282.21875 C 182.074219 282.5625 183.175781 282.742188 184.300781 282.75 C 185.425781 282.761719 186.527344 282.605469 187.609375 282.277344 L 225.347656 271.527344 C 226.199219 271.285156 227.0625 271.089844 227.9375 270.945312 C 228.816406 270.800781 229.695312 270.707031 230.582031 270.667969 C 231.46875 270.625 232.355469 270.632812 233.238281 270.695312 C 234.125 270.757812 235.003906 270.871094 235.875 271.035156 C 236.75 271.199219 237.609375 271.414062 238.457031 271.679688 C 239.300781 271.941406 240.132812 272.257812 240.941406 272.617188 C 241.753906 272.976562 242.539062 273.386719 243.304688 273.839844 C 244.066406 274.292969 244.800781 274.785156 245.503906 275.324219 C 246.210938 275.863281 246.882812 276.441406 247.519531 277.058594 C 248.160156 277.675781 248.757812 278.328125 249.320312 279.015625 C 249.882812 279.699219 250.402344 280.417969 250.882812 281.164062 C 251.359375 281.914062 251.792969 282.683594 252.183594 283.484375 C 252.570312 284.28125 252.910156 285.097656 253.203125 285.9375 C 253.496094 286.773438 253.742188 287.625 253.933594 288.492188 C 254.128906 289.359375 254.269531 290.234375 254.363281 291.117188 C 254.453125 292 254.496094 292.882812 254.484375 293.769531 L 252.925781 400.832031 C 252.886719 401.585938 252.765625 402.328125 252.554688 403.054688 L 238.542969 445.761719 C 234.257812 458.980469 231.390625 472.496094 229.941406 486.316406 L 221.933594 562.90625 C 221.84375 563.726562 221.835938 564.550781 221.910156 565.375 C 221.980469 566.199219 222.132812 567.011719 222.363281 567.804688 C 222.597656 568.597656 222.902344 569.363281 223.285156 570.097656 C 223.667969 570.832031 224.117188 571.523438 224.636719 572.167969 C 225.152344 572.8125 225.730469 573.402344 226.363281 573.933594 C 226.996094 574.464844 227.675781 574.929688 228.402344 575.328125 C 229.128906 575.726562 229.886719 576.050781 230.675781 576.296875 C 231.464844 576.546875 232.269531 576.71875 233.09375 576.808594 C 233.917969 576.898438 234.738281 576.90625 235.5625 576.832031 C 236.390625 576.761719 237.199219 576.609375 237.992188 576.378906 C 238.789062 576.148438 239.550781 575.839844 240.285156 575.457031 C 241.019531 575.074219 241.710938 574.625 242.355469 574.105469 C 243 573.589844 243.589844 573.011719 244.121094 572.378906 C 244.652344 571.746094 245.117188 571.066406 245.515625 570.339844 C 245.914062 569.613281 246.238281 568.855469 246.488281 568.066406 C 246.734375 567.277344 246.90625 566.472656 246.996094 565.648438 L 254.410156 497.289062 C 256.5 478.878906 260.902344 461.035156 267.605469 443.757812 L 281.914062 407.355469 C 282.351562 406.222656 282.871094 405.128906 283.472656 404.074219 C 284.074219 403.019531 284.753906 402.019531 285.507812 401.066406 C 286.265625 400.117188 287.085938 399.226562 287.976562 398.402344 C 288.867188 397.574219 289.8125 396.820312 290.820312 396.140625 C 291.824219 395.457031 292.875 394.855469 293.96875 394.335938 C 295.066406 393.8125 296.195312 393.375 297.359375 393.027344 C 298.519531 392.675781 299.703125 392.414062 300.90625 392.246094 C 302.105469 392.074219 303.316406 391.996094 304.527344 392.007812 Z M 337.003906 219.554688 Z M 337.003906 219.554688 "/><g clip-rule="nonzero" clip-path="url(#49c458f269)"><path style=" stroke:none;fill-rule:nonzero;fill:#6b3406;fill-opacity:1;" d="M 486.472656 594.785156 C 485.578125 594.78125 484.6875 594.734375 483.800781 594.644531 C 482.910156 594.554688 482.03125 594.421875 481.152344 594.246094 C 480.277344 594.074219 479.414062 593.855469 478.558594 593.597656 C 477.703125 593.339844 476.863281 593.042969 476.035156 592.703125 C 475.207031 592.363281 474.402344 591.988281 473.609375 591.570312 C 472.820312 591.152344 472.050781 590.699219 471.304688 590.210938 C 470.558594 589.71875 469.835938 589.195312 469.140625 588.636719 C 468.445312 588.074219 467.777344 587.484375 467.140625 586.859375 C 466.5 586.238281 465.890625 585.582031 465.316406 584.902344 C 464.738281 584.21875 464.195312 583.511719 463.6875 582.777344 C 463.179688 582.042969 462.707031 581.285156 462.273438 580.503906 C 461.835938 579.726562 461.4375 578.925781 461.082031 578.109375 C 460.722656 577.289062 460.402344 576.457031 460.125 575.609375 C 459.84375 574.761719 459.609375 573.902344 459.414062 573.03125 C 459.214844 572.15625 459.0625 571.277344 458.949219 570.394531 C 458.839844 569.507812 458.769531 568.617188 458.742188 567.726562 L 456.296875 459.179688 C 456.125 453.101562 457.1875 447.242188 459.484375 441.609375 L 485.730469 376.808594 L 502.636719 252.621094 C 502.96875 250.03125 502.847656 247.460938 502.273438 244.914062 C 501.699219 242.367188 500.707031 239.992188 499.300781 237.792969 L 462.523438 181.074219 C 460.394531 177.773438 458.828125 174.222656 457.828125 170.421875 C 456.828125 166.617188 456.441406 162.757812 456.667969 158.832031 L 460.597656 90.621094 C 460.699219 88.828125 460.976562 87.0625 461.4375 85.328125 C 461.898438 83.59375 462.53125 81.921875 463.335938 80.3125 C 464.140625 78.707031 465.097656 77.199219 466.207031 75.789062 C 467.320312 74.378906 468.566406 73.09375 469.941406 71.9375 C 470.929688 71.105469 471.976562 70.34375 473.082031 69.664062 C 474.183594 68.984375 475.328125 68.386719 476.519531 67.871094 C 477.710938 67.359375 478.933594 66.9375 480.183594 66.601562 C 481.4375 66.269531 482.707031 66.03125 483.996094 65.882812 C 485.285156 65.734375 486.574219 65.683594 487.871094 65.726562 C 489.167969 65.769531 490.453125 65.90625 491.726562 66.140625 C 493.003906 66.371094 494.253906 66.695312 495.484375 67.109375 C 496.710938 67.527344 497.902344 68.03125 499.054688 68.621094 C 500.210938 69.210938 501.3125 69.882812 502.367188 70.636719 C 503.425781 71.390625 504.417969 72.214844 505.351562 73.113281 C 506.285156 74.011719 507.148438 74.976562 507.941406 76 C 508.734375 77.027344 509.445312 78.105469 510.082031 79.238281 C 510.714844 80.367188 511.261719 81.539062 511.726562 82.75 C 512.1875 83.960938 512.558594 85.199219 512.835938 86.464844 C 513.117188 87.730469 513.304688 89.011719 513.394531 90.304688 C 513.488281 91.597656 513.484375 92.890625 513.386719 94.179688 L 509.234375 149.9375 C 509.042969 152.425781 509.265625 154.878906 509.902344 157.292969 C 510.539062 159.707031 511.550781 161.949219 512.941406 164.023438 L 541.410156 206.433594 C 542.328125 207.792969 543.382812 209.039062 544.574219 210.164062 C 545.769531 211.292969 547.070312 212.277344 548.480469 213.117188 C 549.890625 213.957031 551.375 214.628906 552.933594 215.140625 C 554.492188 215.652344 556.089844 215.988281 557.722656 216.144531 L 583.226562 218.367188 C 585.789062 218.582031 588.308594 218.355469 590.789062 217.691406 C 593.273438 217.03125 595.570312 215.972656 597.6875 214.511719 L 647.804688 179.59375 C 649.65625 178.296875 651.273438 176.757812 652.664062 174.976562 C 654.054688 173.195312 655.152344 171.25 655.960938 169.140625 L 674.347656 121.316406 C 674.636719 120.527344 674.964844 119.75 675.332031 118.992188 C 675.695312 118.230469 676.097656 117.492188 676.53125 116.769531 C 676.96875 116.050781 677.4375 115.351562 677.941406 114.675781 C 678.445312 114 678.980469 113.347656 679.546875 112.726562 C 680.113281 112.101562 680.707031 111.503906 681.332031 110.9375 C 681.957031 110.371094 682.605469 109.835938 683.28125 109.332031 C 683.957031 108.828125 684.652344 108.355469 685.375 107.917969 C 686.09375 107.480469 686.832031 107.078125 687.59375 106.714844 C 688.351562 106.347656 689.128906 106.019531 689.917969 105.726562 C 690.707031 105.4375 691.511719 105.183594 692.328125 104.96875 C 693.140625 104.757812 693.964844 104.582031 694.796875 104.449219 C 695.628906 104.3125 696.464844 104.21875 697.308594 104.164062 C 698.148438 104.109375 698.988281 104.097656 699.832031 104.125 C 700.675781 104.152344 701.511719 104.21875 702.347656 104.328125 C 703.183594 104.433594 704.015625 104.582031 704.835938 104.769531 C 705.65625 104.957031 706.46875 105.183594 707.265625 105.449219 C 708.082031 105.730469 708.882812 106.046875 709.667969 106.40625 C 710.453125 106.761719 711.21875 107.160156 711.960938 107.589844 C 712.707031 108.023438 713.429688 108.492188 714.128906 108.996094 C 714.828125 109.5 715.503906 110.039062 716.148438 110.609375 C 716.796875 111.179688 717.410156 111.78125 718 112.410156 C 718.585938 113.042969 719.140625 113.703125 719.664062 114.386719 C 720.1875 115.074219 720.671875 115.785156 721.125 116.515625 C 721.578125 117.25 721.992188 118.003906 722.371094 118.78125 C 722.75 119.554688 723.085938 120.347656 723.386719 121.15625 C 723.6875 121.964844 723.945312 122.785156 724.167969 123.617188 C 724.386719 124.453125 724.5625 125.296875 724.699219 126.144531 C 724.835938 126.996094 724.929688 127.855469 724.980469 128.714844 C 725.03125 129.574219 725.042969 130.4375 725.007812 131.296875 C 724.976562 132.160156 724.898438 133.015625 724.78125 133.871094 C 724.664062 134.726562 724.503906 135.570312 724.304688 136.410156 C 724.101562 137.246094 723.859375 138.074219 723.578125 138.890625 L 702.820312 197.535156 C 701.429688 201.394531 699.46875 204.933594 696.933594 208.15625 C 694.398438 211.375 691.414062 214.113281 687.992188 216.367188 L 638.761719 249.210938 C 636.441406 250.785156 634.304688 252.578125 632.351562 254.589844 C 630.398438 256.601562 628.671875 258.789062 627.164062 261.15625 C 625.660156 263.519531 624.410156 266.011719 623.417969 268.632812 C 622.421875 271.253906 621.707031 273.949219 621.261719 276.71875 L 601.984375 396.53125 L 610.511719 427.820312 C 610.984375 429.535156 611.671875 431.160156 612.566406 432.695312 C 613.464844 434.230469 614.542969 435.628906 615.804688 436.882812 C 617.066406 438.136719 618.46875 439.207031 620.007812 440.097656 C 621.550781 440.988281 623.179688 441.664062 624.894531 442.128906 L 687.992188 458.738281 C 688.914062 458.980469 689.820312 459.269531 690.714844 459.601562 C 691.609375 459.933594 692.484375 460.304688 693.34375 460.722656 C 694.199219 461.140625 695.035156 461.59375 695.851562 462.09375 C 696.664062 462.589844 697.453125 463.125 698.214844 463.695312 C 698.976562 464.269531 699.710938 464.878906 700.414062 465.523438 C 701.117188 466.164062 701.789062 466.839844 702.425781 467.550781 C 703.0625 468.257812 703.667969 468.996094 704.234375 469.761719 C 704.800781 470.527344 705.332031 471.320312 705.820312 472.136719 C 706.3125 472.957031 706.761719 473.796875 707.171875 474.65625 C 707.582031 475.515625 707.949219 476.394531 708.273438 477.292969 C 708.601562 478.1875 708.882812 479.097656 709.117188 480.023438 C 709.355469 480.945312 709.550781 481.878906 709.695312 482.820312 C 709.84375 483.761719 709.945312 484.710938 710 485.660156 C 710.058594 486.613281 710.066406 487.566406 710.03125 488.519531 C 709.996094 489.472656 709.914062 490.421875 709.785156 491.367188 C 709.660156 492.3125 709.488281 493.246094 709.269531 494.175781 C 709.050781 495.140625 708.789062 496.09375 708.476562 497.03125 C 708.164062 497.96875 707.804688 498.890625 707.402344 499.792969 C 707 500.695312 706.550781 501.574219 706.058594 502.433594 C 705.566406 503.292969 705.03125 504.121094 704.457031 504.925781 C 703.882812 505.730469 703.269531 506.503906 702.617188 507.25 C 701.964844 507.992188 701.277344 508.699219 700.550781 509.375 C 699.828125 510.050781 699.074219 510.683594 698.285156 511.285156 C 697.5 511.882812 696.683594 512.441406 695.839844 512.957031 C 695 513.476562 694.132812 513.949219 693.242188 514.378906 C 692.351562 514.808594 691.441406 515.195312 690.511719 515.535156 C 689.582031 515.875 688.640625 516.164062 687.683594 516.410156 C 686.722656 516.65625 685.753906 516.851562 684.777344 517 C 683.800781 517.148438 682.816406 517.25 681.828125 517.296875 C 680.84375 517.347656 679.855469 517.347656 678.867188 517.300781 C 677.878906 517.25 676.894531 517.152344 675.917969 517.003906 C 674.941406 516.859375 673.972656 516.664062 673.015625 516.417969 L 584.191406 494.027344 C 582.734375 493.671875 581.308594 493.21875 579.914062 492.679688 C 578.515625 492.136719 577.15625 491.507812 575.839844 490.789062 C 574.523438 490.074219 573.261719 489.277344 572.046875 488.394531 C 570.832031 487.515625 569.683594 486.5625 568.589844 485.53125 C 567.5 484.503906 566.480469 483.410156 565.53125 482.25 C 564.585938 481.089844 563.714844 479.871094 562.921875 478.601562 C 562.128906 477.328125 561.421875 476.007812 560.800781 474.644531 C 560.179688 473.28125 559.648438 471.882812 559.207031 470.449219 L 538.445312 403.722656 L 516.203125 453.25 C 514.539062 457.027344 513.699219 460.984375 513.683594 465.113281 L 513.683594 566.6875 C 513.695312 567.59375 513.664062 568.496094 513.585938 569.398438 C 513.511719 570.300781 513.390625 571.195312 513.226562 572.085938 C 513.0625 572.976562 512.855469 573.855469 512.605469 574.726562 C 512.355469 575.597656 512.0625 576.453125 511.730469 577.292969 C 511.394531 578.132812 511.019531 578.957031 510.605469 579.761719 C 510.191406 580.566406 509.738281 581.347656 509.246094 582.109375 C 508.757812 582.871094 508.230469 583.605469 507.667969 584.3125 C 507.101562 585.023438 506.507812 585.703125 505.875 586.351562 C 505.246094 587.003906 504.585938 587.621094 503.898438 588.207031 C 503.207031 588.792969 502.488281 589.34375 501.746094 589.855469 C 501 590.371094 500.234375 590.851562 499.441406 591.289062 C 498.652344 591.730469 497.839844 592.132812 497.011719 592.492188 C 496.179688 592.851562 495.335938 593.171875 494.472656 593.449219 C 493.613281 593.730469 492.738281 593.964844 491.855469 594.15625 C 490.96875 594.347656 490.078125 594.5 489.179688 594.601562 C 488.28125 594.707031 487.378906 594.769531 486.472656 594.785156 Z M 486.992188 80.761719 C 486.257812 80.765625 485.527344 80.835938 484.804688 80.976562 C 484.082031 81.117188 483.378906 81.324219 482.695312 81.597656 C 482.011719 81.871094 481.359375 82.207031 480.742188 82.601562 C 480.121094 82.996094 479.542969 83.445312 479.007812 83.953125 C 478.472656 84.457031 477.988281 85.007812 477.554688 85.601562 C 477.125 86.199219 476.753906 86.828125 476.441406 87.496094 C 476.125 88.160156 475.878906 88.851562 475.695312 89.5625 C 475.511719 90.277344 475.398438 91 475.351562 91.734375 L 471.421875 159.648438 C 471.316406 162.003906 471.566406 164.320312 472.171875 166.597656 C 472.777344 168.875 473.714844 171.003906 474.980469 172.992188 L 511.457031 229.636719 C 512.636719 231.46875 513.644531 233.390625 514.480469 235.398438 C 515.320312 237.410156 515.976562 239.476562 516.449219 241.601562 C 516.925781 243.726562 517.210938 245.875 517.304688 248.050781 C 517.402344 250.226562 517.304688 252.390625 517.019531 254.550781 L 500.261719 379.777344 C 500.183594 380.386719 500.039062 380.980469 499.820312 381.554688 L 472.980469 447.246094 C 471.457031 450.949219 470.765625 454.804688 470.902344 458.808594 L 473.351562 567.355469 C 473.410156 568.15625 473.546875 568.949219 473.753906 569.726562 C 473.964844 570.503906 474.246094 571.257812 474.59375 571.984375 C 474.945312 572.710938 475.359375 573.394531 475.839844 574.042969 C 476.316406 574.691406 476.851562 575.289062 477.445312 575.839844 C 478.035156 576.386719 478.671875 576.875 479.355469 577.304688 C 480.035156 577.730469 480.753906 578.09375 481.503906 578.386719 C 482.253906 578.679688 483.023438 578.902344 483.816406 579.054688 C 484.609375 579.203125 485.40625 579.277344 486.214844 579.277344 C 487.019531 579.277344 487.820312 579.203125 488.609375 579.054688 C 489.402344 578.902344 490.171875 578.679688 490.921875 578.386719 C 491.675781 578.09375 492.390625 577.730469 493.074219 577.304688 C 493.753906 576.875 494.390625 576.386719 494.984375 575.839844 C 495.574219 575.289062 496.109375 574.691406 496.589844 574.042969 C 497.066406 573.394531 497.480469 572.710938 497.832031 571.984375 C 498.183594 571.257812 498.460938 570.503906 498.671875 569.726562 C 498.882812 568.949219 499.015625 568.15625 499.078125 567.355469 L 499.078125 465.484375 C 499.058594 459.257812 500.316406 453.300781 502.859375 447.613281 L 532.960938 380.144531 C 533.273438 379.441406 533.6875 378.800781 534.199219 378.226562 C 534.714844 377.648438 535.300781 377.164062 535.96875 376.773438 C 536.632812 376.378906 537.339844 376.097656 538.09375 375.929688 C 538.84375 375.757812 539.605469 375.707031 540.375 375.773438 C 541.121094 375.820312 541.847656 375.976562 542.546875 376.246094 C 543.246094 376.515625 543.890625 376.878906 544.480469 377.34375 C 545.066406 377.804688 545.574219 378.347656 546 378.964844 C 546.425781 379.582031 546.75 380.246094 546.972656 380.960938 L 573.664062 466.078125 C 574.203125 467.753906 574.945312 469.335938 575.898438 470.820312 C 576.847656 472.304688 577.972656 473.640625 579.273438 474.832031 C 580.574219 476.019531 582.007812 477.023438 583.570312 477.839844 C 585.132812 478.65625 586.773438 479.257812 588.492188 479.644531 L 676.648438 501.886719 C 678.574219 502.375 680.523438 502.472656 682.488281 502.175781 C 684.457031 501.878906 686.289062 501.214844 687.992188 500.179688 C 689.625 499.132812 691.003906 497.8125 692.121094 496.21875 C 693.234375 494.628906 694.011719 492.882812 694.441406 490.988281 C 694.660156 490.054688 694.785156 489.113281 694.820312 488.15625 C 694.855469 487.199219 694.796875 486.25 694.648438 485.304688 C 694.5 484.359375 694.261719 483.4375 693.933594 482.535156 C 693.609375 481.636719 693.195312 480.777344 692.703125 479.957031 C 692.210938 479.140625 691.640625 478.375 691 477.664062 C 690.359375 476.953125 689.652344 476.3125 688.886719 475.738281 C 688.121094 475.167969 687.308594 474.671875 686.445312 474.257812 C 685.582031 473.839844 684.691406 473.511719 683.765625 473.269531 L 621.261719 456.4375 C 619.773438 456.046875 618.316406 455.5625 616.890625 454.980469 C 615.46875 454.398438 614.085938 453.726562 612.75 452.964844 C 611.410156 452.199219 610.128906 451.355469 608.902344 450.425781 C 607.675781 449.496094 606.515625 448.488281 605.421875 447.40625 C 604.328125 446.324219 603.308594 445.175781 602.363281 443.960938 C 601.417969 442.746094 600.558594 441.472656 599.777344 440.148438 C 599 438.820312 598.3125 437.445312 597.714844 436.027344 C 597.113281 434.609375 596.613281 433.160156 596.203125 431.675781 L 587.304688 398.902344 C 587.070312 397.839844 587.070312 396.777344 587.304688 395.714844 L 607.101562 274.273438 C 607.730469 270.492188 608.738281 266.8125 610.121094 263.238281 C 611.503906 259.664062 613.234375 256.269531 615.3125 253.050781 C 617.390625 249.828125 619.773438 246.855469 622.460938 244.121094 C 625.148438 241.390625 628.085938 238.960938 631.273438 236.832031 L 680.578125 204.058594 C 682.617188 202.671875 684.390625 201.003906 685.898438 199.054688 C 687.40625 197.101562 688.574219 194.964844 689.398438 192.640625 L 709.863281 134.21875 C 710.390625 132.789062 710.609375 131.3125 710.519531 129.789062 C 710.429688 128.265625 710.039062 126.828125 709.34375 125.46875 C 708.691406 124.105469 707.800781 122.917969 706.667969 121.917969 C 705.535156 120.914062 704.253906 120.167969 702.820312 119.6875 C 702.128906 119.453125 701.421875 119.285156 700.699219 119.1875 C 699.980469 119.085938 699.253906 119.058594 698.527344 119.097656 C 697.800781 119.136719 697.082031 119.246094 696.375 119.421875 C 695.667969 119.601562 694.984375 119.84375 694.324219 120.152344 C 693.664062 120.457031 693.039062 120.828125 692.449219 121.253906 C 691.859375 121.679688 691.316406 122.160156 690.816406 122.691406 C 690.320312 123.226562 689.875 123.800781 689.488281 124.414062 C 689.101562 125.03125 688.773438 125.679688 688.507812 126.359375 L 670.121094 174.179688 C 668.792969 177.691406 666.96875 180.925781 664.65625 183.886719 C 662.34375 186.84375 659.640625 189.390625 656.554688 191.53125 L 606.433594 226.523438 C 604.671875 227.746094 602.816406 228.804688 600.867188 229.703125 C 598.921875 230.601562 596.910156 231.324219 594.839844 231.875 C 592.765625 232.425781 590.660156 232.792969 588.523438 232.976562 C 586.386719 233.160156 584.253906 233.160156 582.117188 232.976562 L 556.683594 230.75 C 553.945312 230.515625 551.265625 229.980469 548.644531 229.144531 C 546.023438 228.308594 543.53125 227.191406 541.164062 225.789062 C 538.792969 224.390625 536.609375 222.746094 534.613281 220.855469 C 532.617188 218.964844 530.855469 216.875 529.328125 214.585938 L 500.632812 172.179688 C 498.316406 168.71875 496.632812 164.972656 495.578125 160.945312 C 494.523438 156.917969 494.15625 152.828125 494.480469 148.675781 L 498.632812 93.21875 C 498.6875 92.476562 498.675781 91.734375 498.585938 90.992188 C 498.5 90.253906 498.34375 89.53125 498.117188 88.820312 C 497.890625 88.109375 497.597656 87.429688 497.242188 86.777344 C 496.882812 86.121094 496.464844 85.511719 495.988281 84.9375 C 495.511719 84.363281 494.984375 83.84375 494.410156 83.371094 C 493.832031 82.902344 493.214844 82.492188 492.558594 82.140625 C 491.902344 81.789062 491.21875 81.503906 490.503906 81.285156 C 489.792969 81.0625 489.066406 80.914062 488.328125 80.835938 Z M 492.921875 378.738281 Z M 492.921875 378.738281 "/></g></g></svg>